# This file uses centimeters as units for non-parametric coordinates.

mtllib WideStairs_LP.mtl
g default
v 0.000000 -0.000000 0.000000
v 0.000066 0.000000 -7.994328
v -10.000023 0.000000 0.000000
v -9.999958 0.000000 -8.000000
v -5.111795 -0.000000 0.000000
v -5.111672 -0.000000 -7.994328
v -7.667607 0.000000 -0.000001
v -7.667542 0.000000 -7.994328
v -2.556028 0.000000 0.000000
v -2.555804 0.000000 -7.994328
v -1.287553 -0.000000 -0.000003
v -1.277869 -0.000000 -7.994328
v -3.834042 0.000000 0.000000
v -3.833738 -0.000000 -7.994328
v -6.389681 0.000000 0.000000
v -6.389607 0.000000 -7.994328
v -9.002523 0.000000 0.000001
v -9.002459 0.000000 -7.999998
v -0.011518 4.178099 -0.011344
v -0.011452 4.164258 -8.005672
v -1.289468 4.160733 -8.005672
v -1.289317 4.174574 -0.011344
v -1.287553 3.515065 -0.009552
v -1.287649 3.501223 -8.003881
v -2.565502 3.497698 -8.003881
v -2.565431 3.511540 -0.009552
v -2.563633 2.839223 -0.007725
v -2.563728 2.825381 -8.002052
v -3.841582 2.821856 -8.002052
v -3.841520 2.835697 -0.007725
v -3.840024 2.276071 -0.006205
v -3.840119 2.262229 -8.000532
v -5.117972 2.258703 -8.000532
v -5.117903 2.272545 -0.006205
v -5.116157 1.619741 -0.004431
v -5.116253 1.605899 -7.998758
v -6.394106 1.602373 -7.998758
v -6.394171 1.616215 -0.004431
v -6.392498 1.038777 -0.002862
v -6.392594 1.024935 -7.997189
v -7.670448 1.021410 -7.997189
v -7.670513 1.035251 -0.002863
v -7.668882 0.473002 -0.001335
v -7.668977 0.459160 -7.995660
v -9.003813 0.455482 -7.995659
v -9.003878 0.469323 -0.001333
vt 0.696666 0.499823
vt 0.083995 0.461714
vt 0.698026 1.000000
vt 0.084000 0.961895
vt 0.869598 0.499823
vt 0.949942 0.499823
vt 0.870091 0.999648
vt 0.950435 0.999648
vt 0.523735 0.261231
vt 0.766408 0.499823
vt 0.524228 0.761056
vt 0.766900 0.999648
vt 0.770780 0.499823
vt 0.995630 0.499823
vt 0.771273 0.999648
vt 0.996123 0.999648
vt 0.262359 0.261125
vt 0.812016 0.499823
vt 0.261868 0.760960
vt 0.812509 0.999648
vt 0.953593 0.499823
vt 0.904589 0.499823
vt 0.954086 0.999648
vt 0.905081 0.999648
vt 0.909125 0.499823
vt 0.559840 0.261231
vt 0.909618 0.999648
vt 0.560332 0.761056
vt 0.731253 0.499823
vt 0.726011 0.499827
vt 0.731745 0.999648
vt 0.726504 0.999651
vt 0.523591 0.261125
vt 0.522234 0.760957
vt 0.260146 0.222043
vt 0.259896 0.301943
vt 0.482453 0.000000
vt 0.259647 0.381844
vt 0.403143 0.000000
vt 0.259397 0.461745
vt 0.323237 0.000000
vt 0.259147 0.541646
vt 0.243347 0.000000
vt 0.258897 0.621546
vt 0.163449 0.000000
vt 0.083548 0.000000
vt 0.563262 0.000000
vt 0.646733 0.000000
vt 0.646726 0.499822
vt 0.563265 0.499823
vt 0.731253 0.000000
vt 0.811161 0.000000
vt 0.811154 0.499823
vt 0.731255 0.499823
vt 0.899249 0.000000
vt 0.979149 0.000000
vt 0.979142 0.499823
vt 0.899243 0.499823
vt 0.647268 0.000000
vt 0.727163 0.000000
vt 0.727166 0.499823
vt 0.647258 0.499823
vt 0.815254 0.000000
vt 0.895154 0.000000
vt 0.895146 0.499823
vt 0.815248 0.499823
vt 0.000000 0.381784
vt 0.079908 0.381783
vt 0.079901 0.881606
vt 0.000003 0.881606
vt 0.563268 0.499823
vt 0.643168 0.499822
vt 0.643161 0.999645
vt 0.563262 0.999645
vt 0.146363 0.461712
vt 0.146368 0.961893
vt 0.000085 0.000000
vt 0.083469 0.029574
vt 0.000000 0.029344
vt 0.163273 0.064948
vt 0.083367 0.064728
vt 0.243074 0.101272
vt 0.163168 0.101052
vt 0.322863 0.142309
vt 0.242965 0.142088
vt 0.402667 0.177519
vt 0.322769 0.177299
vt 0.482453 0.219775
vt 0.402555 0.219555
vt 0.562955 0.000000
vt 0.562235 0.261231
vt 0.482342 0.261010
vt 0.230189 0.621546
vt 0.258635 0.705010
vt 0.230158 0.705005
vt 0.195064 0.541632
vt 0.195035 0.621528
vt 0.158989 0.461717
vt 0.158960 0.541614
vt 0.118203 0.381801
vt 0.118173 0.461697
vt 0.083242 0.301887
vt 0.083213 0.381783
vt 0.041235 0.221970
vt 0.041206 0.301866
vt 0.260396 0.142142
vt 0.000000 0.221955
vt 0.000029 0.142048
vn 0.000000 1.000000 0.000000
vn 0.000000 1.000000 0.000000
vn 0.000000 1.000000 0.000000
vn 0.000000 1.000000 0.000000
vn -0.002759 0.999995 -0.001731
vn -0.002759 0.999995 -0.001731
vn -0.002759 0.999995 -0.001731
vn -0.002759 0.999995 -0.001731
vn -0.002759 0.999995 -0.001731
vn -0.002759 0.999995 -0.001731
vn -0.002759 0.999995 -0.001731
vn -0.002759 0.999995 -0.001731
vn -0.002759 0.999995 -0.001731
vn -0.002759 0.999995 -0.001731
vn -0.002759 0.999995 -0.001731
vn -0.002759 0.999995 -0.001731
vn -0.002758 0.999995 -0.001731
vn -0.002758 0.999995 -0.001731
vn -0.002758 0.999995 -0.001731
vn -0.002758 0.999995 -0.001731
vn -0.002759 0.999995 -0.001731
vn -0.002759 0.999995 -0.001731
vn -0.002759 0.999995 -0.001731
vn -0.002759 0.999995 -0.001731
vn -0.002759 0.999995 -0.001731
vn -0.002759 0.999995 -0.001731
vn -0.002759 0.999995 -0.001731
vn -0.002759 0.999995 -0.001731
vn -0.002755 0.999995 -0.001731
vn -0.002755 0.999995 -0.001731
vn -0.002755 0.999995 -0.001731
vn -0.002755 0.999995 -0.001731
vn 0.999996 0.002761 0.000006
vn 0.999996 0.002761 0.000006
vn 0.999996 0.002761 0.000006
vn 0.999996 0.002761 0.000006
vn 0.000006 -0.002725 -0.999996
vn 0.000006 -0.002725 -0.999996
vn 0.000006 -0.002725 -0.999996
vn 0.000006 -0.002725 -0.999996
vn 0.000006 -0.002725 -0.999996
vn -0.000005 0.002716 0.999996
vn -0.000005 0.002716 0.999996
vn -0.000005 0.002716 0.999996
vn -0.000005 0.002716 0.999996
vn -0.000005 0.002716 0.999996
vn 0.000007 -0.002730 -0.999996
vn 0.000007 -0.002730 -0.999996
vn 0.000007 -0.002730 -0.999996
vn 0.000007 -0.002730 -0.999996
vn 0.000007 -0.002730 -0.999996
vn -0.000003 0.002718 0.999996
vn -0.000003 0.002718 0.999996
vn -0.000003 0.002718 0.999996
vn -0.000003 0.002718 0.999996
vn -0.000003 0.002718 0.999996
vn 0.000008 -0.002736 -0.999996
vn 0.000008 -0.002736 -0.999996
vn 0.000008 -0.002736 -0.999996
vn 0.000008 -0.002736 -0.999996
vn 0.000008 -0.002736 -0.999996
vn -0.000005 0.002723 0.999996
vn -0.000005 0.002723 0.999996
vn -0.000005 0.002723 0.999996
vn -0.000005 0.002723 0.999996
vn -0.000005 0.002723 0.999996
vn 0.000011 -0.002745 -0.999996
vn 0.000011 -0.002745 -0.999996
vn 0.000011 -0.002745 -0.999996
vn 0.000011 -0.002745 -0.999996
vn 0.000011 -0.002745 -0.999996
vn -0.000007 0.002728 0.999996
vn -0.000007 0.002728 0.999996
vn -0.000007 0.002728 0.999996
vn -0.000007 0.002728 0.999996
vn -0.000007 0.002728 0.999996
vn 0.000015 -0.002761 -0.999996
vn 0.000015 -0.002761 -0.999996
vn 0.000015 -0.002761 -0.999996
vn 0.000015 -0.002761 -0.999996
vn 0.000015 -0.002761 -0.999996
vn -0.000009 0.002738 0.999996
vn -0.000009 0.002738 0.999996
vn -0.000009 0.002738 0.999996
vn -0.000009 0.002738 0.999996
vn -0.000009 0.002738 0.999996
vn 0.000021 -0.002796 -0.999996
vn 0.000021 -0.002796 -0.999996
vn 0.000021 -0.002796 -0.999996
vn 0.000021 -0.002796 -0.999996
vn 0.000021 -0.002796 -0.999996
vn -0.000015 0.002760 0.999996
vn -0.000015 0.002760 0.999996
vn -0.000015 0.002760 0.999996
vn -0.000015 0.002760 0.999996
vn -0.000015 0.002760 0.999996
vn 0.002119 0.003294 -0.999992
vn 0.002119 0.003294 -0.999992
vn 0.002119 0.003294 -0.999992
vn 0.002119 0.003294 -0.999992
vn -0.000002 0.002832 0.999996
vn -0.000002 0.002832 0.999996
vn -0.000002 0.002832 0.999996
vn -0.000002 0.002832 0.999996
vn -0.999997 -0.002654 0.000015
vn -0.999997 -0.002654 0.000015
vn -0.999997 -0.002654 0.000015
vn -0.999996 -0.002654 0.000015
vn -0.999996 -0.002757 0.000007
vn -0.999996 -0.002757 0.000007
vn -0.999996 -0.002757 0.000007
vn -0.999996 -0.002757 0.000007
vn -0.999996 -0.002758 0.000007
vn -0.999996 -0.002758 0.000007
vn -0.999996 -0.002758 0.000007
vn -0.999996 -0.002758 0.000007
vn -0.999996 -0.002930 -0.000006
vn -0.999996 -0.002930 -0.000006
vn -0.999996 -0.002930 -0.000006
vn -0.999996 -0.002930 -0.000006
vn -0.999997 -0.002645 0.000014
vn -0.999997 -0.002645 0.000014
vn -0.999997 -0.002645 0.000014
vn -0.999997 -0.002645 0.000014
vn -0.999996 -0.002657 0.000015
vn -0.999996 -0.002657 0.000015
vn -0.999996 -0.002657 0.000015
vn -0.999997 -0.002657 0.000015
vn -0.999996 -0.002717 0.000020
vn -0.999996 -0.002717 0.000020
vn -0.999996 -0.002717 0.000020
vn -0.999996 -0.002717 0.000020
s off
g WideStairs_LP
usemtl initialShadingGroup
f 4/4/1 3/2/2 17/75/3 18/76/4
f 34/71/5 31/72/6 32/73/7 33/74/8
f 42/67/9 39/68/10 40/69/11 41/70/12
f 26/63/13 23/64/14 24/65/15 25/66/16
f 22/59/17 19/60/18 20/61/19 21/62/20
f 30/55/21 27/56/22 28/57/23 29/58/24
f 38/51/25 35/52/26 36/53/27 37/54/28
f 46/47/29 43/48/30 44/49/31 45/50/32
f 19/17/33 1/33/34 2/34/35 20/19/36
f 2/106/37 12/35/38 24/104/39 21/107/40 20/108/41
f 23/88/42 11/37/43 1/90/44 19/91/45 22/92/46
f 24/104/47 12/35/48 10/36/49 28/102/50 25/105/51
f 27/86/52 9/39/53 11/37/54 23/88/55 26/89/56
f 28/102/57 10/36/58 14/38/59 32/100/60 29/103/61
f 31/84/62 13/41/63 9/39/64 27/86/65 30/87/66
f 32/100/67 14/38/68 6/40/69 36/98/70 33/101/71
f 35/82/72 5/43/73 13/41/74 31/84/75 34/85/76
f 36/98/77 6/40/78 16/42/79 40/96/80 37/99/81
f 39/80/82 15/45/83 5/43/84 35/82/85 38/83/86
f 40/96/87 16/42/88 8/44/89 44/93/90 41/97/91
f 43/78/92 7/46/93 15/45/94 39/80/95 42/81/96
f 44/93/97 8/44/98 18/94/99 45/95/100
f 17/77/101 7/46/102 43/78/103 46/79/104
f 35/25/105 34/6/106 33/8/107 36/27/108
f 43/29/109 42/10/110 41/12/111 44/31/112
f 39/9/113 38/26/114 37/28/115 40/11/116
f 17/1/117 46/30/118 45/32/119 18/3/120
f 31/5/121 30/22/122 29/24/123 32/7/124
f 27/21/125 26/14/126 25/16/127 28/23/128
f 23/13/129 22/18/130 21/20/131 24/15/132
