# This file uses centimeters as units for non-parametric coordinates.

mtllib CornerRoofTrim_LP.mtl
g default
v 0.000000 0.000000 0.000000
v 0.000000 0.000000 3.661051
v 0.000368 0.066654 3.661050
v 0.000368 0.066654 3.830524
v -4.000000 0.238239 4.000000
v 0.001315 0.238239 4.000000
v 0.001314 0.238239 3.830524
v -4.000000 0.238239 3.830524
v -3.662995 0.000000 0.000001
v -3.662811 0.000000 3.661050
v -3.662899 0.066654 3.661051
v -3.662899 0.066654 3.830524
v -3.662811 0.238239 3.830525
v -3.662811 0.238239 3.999999
v -3.830522 0.061993 3.661051
v -3.830522 0.066654 3.830524
v -3.830526 0.238239 3.830525
v -3.830526 0.238239 4.000001
v -3.830531 0.066654 -0.000001
v -3.662724 0.066654 -0.000001
v -4.000000 0.238239 3.661049
v -3.830526 0.238239 3.661050
v -3.830526 0.238239 0.000001
v -4.000000 0.238239 0.000000
vt 0.579911 0.927637
vt 0.352485 0.927637
vt 0.352485 0.917127
vt 0.579911 0.917127
vt 0.590372 0.917127
vt 0.590372 0.927637
vt 0.600561 0.927637
vt 0.600561 0.917127
vt 0.590372 0.906616
vt 0.600561 0.906616
vt 0.590372 0.679561
vt 0.600561 0.679561
vt 0.379562 0.942983
vt 0.379562 0.932472
vt 0.606988 0.932472
vt 0.606988 0.942983
vt 0.617448 0.932472
vt 0.617448 0.942983
vt 0.617448 0.705418
vt 0.606988 0.705418
vt 0.631958 0.690072
vt 0.632056 0.917127
vt 0.621317 0.917127
vt 0.621317 0.690072
vt 0.631958 0.679561
vt 0.621317 0.679561
vt 0.647430 0.917448
vt 0.636789 0.917448
vt 0.636789 0.690022
vt 0.647430 0.690022
vt 0.636789 0.679561
vt 0.647430 0.679561
vt 0.666065 0.679561
vt 0.666065 0.906616
vt 0.662030 0.906616
vt 0.661931 0.679561
vt 0.656395 0.906988
vt 0.652261 0.906988
vt 0.652261 0.679561
vt 0.656395 0.679561
vt 0.579540 0.906988
vt 0.352485 0.906988
vt 0.352485 0.679561
vt 0.579540 0.679561
vn 0.000000 1.000000 0.000000
vn 0.000000 1.000000 0.000000
vn 0.000000 1.000000 0.000000
vn 0.000000 1.000000 0.000000
vn -0.000000 1.000000 -0.000001
vn -0.000000 1.000000 -0.000001
vn -0.000608 1.000000 -0.000603
vn -0.000608 1.000000 -0.000603
vn 0.000000 0.000004 -1.000000
vn 0.000000 0.000004 -1.000000
vn 0.000000 0.000004 -1.000000
vn 0.000000 0.000004 -1.000000
vn -0.000000 1.000000 0.000000
vn -0.000000 1.000000 0.000000
vn -0.000000 1.000000 0.000000
vn -0.000000 1.000000 0.000000
vn -0.000000 0.000004 -1.000000
vn -0.000000 0.000004 -1.000000
vn -0.000000 0.000004 -1.000000
vn -0.000000 0.000004 -1.000000
vn -0.013894 0.999903 0.000636
vn -0.013894 0.999903 0.000636
vn -0.013894 0.999903 0.000636
vn -0.013894 0.999903 0.000636
vn -0.013901 0.999809 -0.013751
vn -0.013901 0.999809 -0.013751
vn 0.000000 0.000006 -1.000000
vn 0.000000 0.000006 -1.000000
vn 0.000000 1.000000 0.000000
vn 0.000000 1.000000 0.000000
vn 0.000000 1.000000 0.000000
vn 0.000000 1.000000 0.000000
vn 0.000000 1.000000 0.000000
vn 0.000000 1.000000 0.000000
vn 0.000000 1.000000 0.000000
vn 0.000000 1.000000 0.000000
vn 0.000000 1.000000 0.000000
vn 0.000000 1.000000 0.000000
vn 0.000000 1.000000 0.000000
vn 0.000000 1.000000 0.000000
vn 0.999999 -0.001378 -0.000001
vn 0.999999 -0.001378 -0.000001
vn 0.999999 -0.001378 -0.000001
vn 0.999999 -0.001378 -0.000001
vn 1.000000 0.000001 -0.000001
vn 1.000000 0.000001 -0.000001
vn 1.000000 0.000001 -0.000001
vn 1.000000 0.000001 -0.000001
vn 1.000000 0.000028 -0.000000
vn 1.000000 0.000028 -0.000000
vn 1.000000 0.000028 -0.000000
vn 1.000000 0.000028 -0.000000
s off
g CornerRoofTrim_LP
usemtl initialShadingGroup
f 2/41/1 1/42/2 9/43/3 10/44/4
s 1
f 4/13/5 3/14/6 11/15/7 12/16/8
s off
f 3/37/9 2/38/10 10/39/11 11/40/12
s 2
f 14/1/13 6/2/14 7/3/15 13/4/16
s 3
f 7/27/17 4/28/18 12/29/19 13/30/20
s off
f 19/19/21 15/17/22 11/15/23 20/20/24
s 1
f 15/17/25 16/18/26 12/16/8 11/15/7
s 3
f 13/30/20 12/29/19 16/31/27 17/32/28
s 2
f 17/5/29 18/6/30 14/1/13 13/4/16
s off
f 21/10/31 22/9/32 23/11/33 24/12/34
f 8/8/35 17/5/36 22/9/37 21/10/38
s 2
f 5/7/39 18/6/30 17/5/29 8/8/40
s off
f 10/33/41 9/34/42 20/35/43 11/36/44
f 15/21/45 19/22/46 23/23/47 22/24/48
f 16/25/49 15/21/50 22/24/51 17/26/52
