# This file uses centimeters as units for non-parametric coordinates.

mtllib HallwayRoofTrim_LP.mtl
g default
v -3.662813 0.000000 -0.000001
v -3.661051 0.000000 4.000000
v -3.661051 0.066654 4.000000
v -3.662813 0.066654 -0.000001
v -3.830525 0.066654 -0.000001
v -3.830525 0.066654 4.000000
v -4.001607 0.238239 -0.000001
v -4.000000 0.238239 4.000000
v -3.830525 0.238239 3.999999
v -3.830525 0.238239 -0.000001
v -0.337187 0.000000 0.000000
v -0.337188 0.000000 4.000000
v -0.169475 0.066654 0.000000
v -0.169474 0.066654 4.000000
v -0.169475 0.238239 0.000000
v -0.169474 0.238239 3.999999
v 0.000000 0.238239 4.000000
v -0.001634 0.238239 0.000000
v -0.336811 0.066654 0.000000
v -0.337188 0.066654 4.000000
vt 0.315367 0.381208
vt 0.315367 0.633296
vt 0.305013 0.633296
vt 0.305013 0.381208
vt 0.286178 0.381208
vt 0.286178 0.633295
vt 0.275548 0.633295
vt 0.275548 0.381208
vt 0.330100 0.381208
vt 0.330100 0.633296
vt 0.319746 0.633296
vt 0.319746 0.381208
vt 0.242586 0.381208
vt 0.242586 0.633296
vt 0.032465 0.633296
vt 0.032465 0.381208
vt 0.300910 0.381208
vt 0.300910 0.633295
vt 0.290281 0.633295
vt 0.290281 0.381208
vt 0.346045 0.381208
vt 0.346045 0.633298
vt 0.341844 0.633298
vt 0.341844 0.381208
vt 0.271630 0.381208
vt 0.271630 0.633296
vt 0.260816 0.633296
vt 0.260816 0.381208
vt 0.256897 0.381208
vt 0.256897 0.633296
vt 0.246084 0.633296
vt 0.246084 0.381208
vt 0.338678 0.381208
vt 0.338678 0.633295
vt 0.334478 0.633295
vt 0.334478 0.381208
vn -0.000000 1.000000 0.000000
vn -0.000000 1.000000 0.000000
vn -0.000000 1.000000 0.000000
vn -0.000000 1.000000 0.000000
vn 0.000000 1.000000 0.000000
vn 0.000000 1.000000 0.000000
vn 0.000000 1.000000 0.000000
vn 0.000000 1.000000 0.000000
vn 1.000000 0.000000 -0.000441
vn 1.000000 0.000000 -0.000441
vn 1.000000 0.000000 -0.000441
vn 1.000000 0.000000 -0.000441
vn 0.000000 1.000000 0.000000
vn 0.000000 1.000000 0.000000
vn 0.000000 1.000000 0.000000
vn 0.000000 1.000000 0.000000
vn 1.000000 -0.000000 0.000000
vn 1.000000 -0.000000 0.000000
vn 1.000000 -0.000000 0.000000
vn 1.000000 -0.000000 0.000000
vn 0.000000 1.000000 0.000000
vn 0.000000 1.000000 0.000000
vn 0.000000 1.000000 0.000000
vn 0.000000 1.000000 0.000000
vn 0.000000 1.000000 0.000000
vn 0.000000 1.000000 0.000000
vn 0.000000 1.000000 0.000000
vn 0.000000 1.000000 0.000000
vn -1.000000 0.000000 0.000000
vn -1.000000 0.000000 0.000000
vn -1.000000 0.000000 0.000000
vn -1.000000 0.000000 0.000000
vn -0.999996 0.002822 -0.000047
vn -0.999996 0.002822 -0.000047
vn -0.999996 0.002822 -0.000047
vn -0.999996 0.002822 -0.000047
s off
g HallwayRoofTrim_LP
usemtl initialShadingGroup
f 15/1/1 16/2/2 17/3/3 18/4/4
f 5/5/5 6/6/6 3/7/7 4/8/8
f 2/21/9 1/22/10 4/23/11 3/24/12
f 7/9/13 8/10/14 9/11/15 10/12/16
f 6/25/17 5/26/18 10/27/19 9/28/20
f 1/13/21 2/14/22 12/15/23 11/16/24
f 19/17/25 20/18/26 14/19/27 13/20/28
f 13/29/29 14/30/30 16/31/31 15/32/32
f 11/33/33 12/34/34 20/35/35 19/36/36
