# This file uses centimeters as units for non-parametric coordinates.

mtllib HallwayCornerTrim.mtl
g default
v 0.337188 0.000000 0.000000
v 0.337188 0.066654 0.000000
v 0.169474 0.066654 0.000000
v 0.000000 0.238239 0.000000
v 0.169474 0.238239 0.000000
v 0.000000 0.000000 -0.338951
v 0.000000 0.066654 -0.338951
v 0.000000 0.066654 -0.169476
v 0.000000 0.238239 -0.169476
v 0.000000 0.000000 -4.000000
v 0.337187 0.000000 -0.338951
v 0.337188 0.066654 -0.338951
v 0.169476 0.066654 -0.169476
v 0.169476 0.238239 -0.169476
v 4.000000 0.000000 -0.337189
v 4.000000 0.066654 -0.337189
v 3.999999 0.066654 -0.169472
v 4.000000 0.238239 0.000000
v 4.000000 0.238239 -0.169472
v 4.000000 0.000000 -4.000000
v 3.661051 0.000000 0.000000
v 3.661051 0.066654 0.000000
v 3.830525 0.066654 0.000000
v 3.830525 0.238239 0.000000
v 0.337186 0.000000 -4.000000
v 3.661051 0.000000 -0.337185
v 3.661051 0.066654 -0.337189
v 3.830525 0.066654 -0.169476
v 3.830525 0.238239 -0.169476
v 3.661051 0.000000 -4.000000
vt 0.687836 0.924005
vt 0.687836 0.912149
vt 0.711810 0.912149
vt 0.699823 0.924005
vt 0.711810 0.935986
vt 0.699823 0.935986
vt 0.687836 0.936377
vt 0.687836 0.924396
vt 0.699823 0.924396
vt 0.699823 0.936377
vt 0.970756 0.935834
vt 0.817222 0.941183
vt 0.726524 0.941194
vt 0.726525 0.950135
vt 0.771991 0.941189
vt 0.771992 0.950130
vt 0.688760 0.969214
vt 0.704256 0.969214
vt 0.688760 0.953910
vt 0.704256 0.953910
vt 0.817223 0.950124
vt 0.704256 0.938605
vt 0.688760 0.938605
vt 0.727870 0.955730
vt 0.727869 0.964600
vt 0.699823 0.653213
vt 0.711685 0.653213
vt 0.721997 0.938882
vt 0.706506 0.938880
vt 0.687836 0.653604
vt 0.699823 0.653604
vt 0.711685 0.653061
vt 0.970756 0.653061
vt 0.817845 0.964610
vt 0.817846 0.955740
vt 0.687836 0.665194
vt 0.687836 0.677175
vt 0.706501 0.969481
vt 0.721992 0.969483
vt 0.687836 0.665585
vt 0.687836 0.677023
vt 0.687836 0.911997
vt 0.699823 0.665585
vt 0.721994 0.954183
vt 0.706503 0.954180
vt 0.711685 0.677175
vt 0.699823 0.665194
vt 0.772976 0.955736
vt 0.772974 0.964606
vt 0.970756 0.911997
vt 0.711685 0.677023
vt 0.970756 0.677023
vt 0.711810 0.911997
vt 0.711810 0.935834
vn 0.000000 1.000000 0.000000
vn 0.000000 1.000000 0.000000
vn 0.000000 1.000000 0.000000
vn 1.000000 0.000000 0.000011
vn 1.000000 0.000000 0.000011
vn 0.707111 0.000000 -0.707103
vn 0.707111 0.000000 -0.707103
vn 0.000000 1.000000 0.000000
vn 0.000000 1.000000 0.000000
vn 0.000000 1.000000 -0.000000
vn 0.000000 1.000000 -0.000000
vn 1.000000 -0.000007 -0.000003
vn 1.000000 -0.000007 -0.000003
vn 0.708945 -0.000005 -0.705264
vn 0.708951 -0.000005 -0.705258
vn 0.000000 0.000000 -1.000000
vn 0.000000 0.000000 -1.000000
vn 0.000000 1.000000 -0.000000
vn 0.000000 1.000000 -0.000000
vn 0.000000 0.000000 -1.000000
vn 0.000000 0.000000 -1.000000
vn 0.000000 1.000000 0.000000
vn 0.000000 1.000000 0.000000
vn 0.000000 1.000000 0.000000
vn 0.000000 1.000000 0.000000
vn 0.000022 -0.000000 -1.000000
vn 0.000022 -0.000000 -1.000000
vn -0.707102 -0.000000 -0.707112
vn -0.707102 -0.000000 -0.707112
vn 0.000000 1.000000 0.000000
vn 0.000000 1.000000 0.000000
vn 0.000000 1.000000 0.000000
vn 0.000000 1.000000 0.000000
vn -0.000006 -0.000029 -1.000000
vn -0.000006 -0.000029 -1.000000
vn -0.705276 -0.000020 -0.708933
vn -0.705250 -0.000020 -0.708958
vn 0.000000 1.000000 0.000000
vn 0.000000 1.000000 0.000000
vn 0.000000 1.000000 0.000000
vn 0.000000 1.000000 0.000000
vn -1.000000 0.000000 0.000000
vn -1.000000 0.000000 0.000000
vn 0.000000 1.000000 0.000000
vn 0.000000 1.000000 0.000000
vn -1.000000 0.000000 0.000000
vn -1.000000 0.000000 0.000000
vn 0.000000 1.000000 0.000000
vn 0.000000 1.000000 0.000000
vn 0.000000 1.000000 0.000000
vn 0.000000 1.000000 0.000000
vn 0.000000 1.000000 0.000000
vn 0.000000 1.000000 0.000000
vn 0.000000 1.000000 0.000000
vn 0.000000 1.000000 0.000000
vn 0.000000 1.000000 0.000000
s 1
g HallwayCornerTrim_LP
usemtl initialShadingGroup
f 4/7/1 5/8/2 14/9/3
s 2
f 5/18/4 3/17/5 13/19/6 14/20/7
s 3
f 3/1/8 2/2/9 12/3/10 13/4/11
s 4
f 2/14/12 1/13/13 11/15/14 12/16/15
f 12/16/15 11/15/14 6/12/16 7/21/17
s 3
f 13/4/11 12/3/10 7/5/18 8/6/19
s 2
f 14/20/7 13/19/6 8/23/20 9/22/21
s 1
f 4/7/1 14/9/3 9/10/22
s 5
f 18/30/23 19/31/24 29/43/25
s 6
f 19/29/26 17/28/27 28/44/28 29/45/29
s 7
f 17/26/30 16/27/31 27/46/32 28/47/33
s 8
f 16/25/34 15/24/35 26/48/36 27/49/37
s 9
f 26/51/38 11/53/39 1/42/40 21/41/41
s 8
f 27/49/37 26/48/36 21/35/42 22/34/43
s 7
f 28/47/33 27/46/32 22/37/44 23/36/45
s 6
f 29/45/29 28/44/28 23/39/46 24/38/47
s 5
f 18/30/23 29/43/25 24/40/48
s off
f 10/11/49 6/54/50 11/53/51 25/50/52
s 9
f 15/32/53 20/33/54 30/52/55 26/51/38
f 26/51/38 30/52/55 25/50/56 11/53/39
