# This file uses centimeters as units for non-parametric coordinates.

mtllib InnerCornerRoofTrim_LP.mtl
g default
v 3.662812 0.000000 -4.000000
v 3.662812 0.066654 -4.000000
v 3.830526 0.066654 -3.999999
v 4.000000 0.238239 -4.000000
v 3.830526 0.238239 -4.000000
v 3.662812 0.000000 -8.000000
v 3.662812 0.066654 -8.000000
v 3.830526 0.066654 -8.000000
v 3.830526 0.238239 -8.000000
v 4.000000 0.238239 -8.000000
v 0.000000 0.000000 -4.000000
v 0.000000 0.000000 -8.000000
v 8.000000 0.000000 -3.661051
v 8.000000 0.066654 -3.661051
v 8.000000 0.066654 -3.830525
v 8.000000 0.238239 -4.000000
v 8.000000 0.238239 -3.830525
v 4.000000 0.000000 -3.661051
v 4.000000 0.066654 -3.661051
v 4.000000 0.066654 -3.830525
v 4.000000 0.238239 -3.830525
v 8.000000 0.000000 0.000000
v 4.000000 0.000000 0.000000
v 0.000000 0.000000 0.000000
v 3.662814 0.000000 -3.661051
v 3.662812 0.066654 -3.661051
v 3.830524 0.066654 -3.830526
v 3.830524 0.238239 -3.830525
v 0.000000 0.000000 -3.661050
v 3.662814 0.015098 -3.661051
v 3.677153 0.000000 -3.661051
v 3.662815 0.000000 0.000000
vt 0.694897 0.292267
vt 0.429723 0.292267
vt 0.429723 0.281086
vt 0.694897 0.281086
vt 0.717367 0.281086
vt 0.706132 0.292267
vt 0.717367 0.303159
vt 0.706132 0.303159
vt 0.706133 0.568334
vt 0.717367 0.568333
vt 0.686911 0.311145
vt 0.421738 0.311145
vt 0.421738 0.300253
vt 0.686911 0.300253
vt 0.698146 0.300253
vt 0.698146 0.311145
vt 0.686911 0.576318
vt 0.698146 0.576318
vt 0.702883 0.271817
vt 0.437711 0.271817
vt 0.437712 0.028718
vt 0.702883 0.028718
vt 0.968056 0.028718
vt 0.968056 0.293890
vt 0.725353 0.293890
vt 0.725353 0.271817
vt 0.725353 0.559062
vt 0.968056 0.559062
vt 0.968056 0.584566
vt 0.968056 0.588985
vt 0.702884 0.588985
vt 0.702885 0.584566
vt 0.680414 0.588985
vt 0.680415 0.584566
vt 0.678925 0.319420
vt 0.678925 0.330795
vt 0.413752 0.330795
vt 0.413752 0.319420
vt 0.402517 0.330795
vt 0.402517 0.319420
vt 0.702884 0.601763
vt 0.702884 0.597344
vt 0.968056 0.597345
vt 0.968056 0.601763
vt 0.680811 0.601763
vt 0.680812 0.597344
vt 0.413754 0.349962
vt 0.413754 0.338587
vt 0.678925 0.338587
vt 0.678925 0.349962
vt 0.402862 0.349962
vt 0.402862 0.338587
vt 0.726403 0.028718
vt 0.680414 0.587984
vt 0.680811 0.598346
vt 0.681750 0.597344
vt 0.725353 0.272756
vt 0.968056 0.275710
vn -1.000000 0.000000 0.000000
vn -1.000000 0.000000 0.000000
vn -1.000000 0.000000 0.000000
vn -1.000000 0.000000 0.000000
vn 0.000000 1.000000 0.000000
vn 0.000000 1.000000 0.000000
vn 0.000000 1.000000 0.000000
vn 0.000000 1.000000 0.000000
vn -1.000000 -0.000001 0.000000
vn -1.000000 -0.000001 0.000000
vn -1.000000 -0.000001 0.000000
vn -1.000000 -0.000001 0.000000
vn 0.000000 1.000000 0.000000
vn 0.000000 1.000000 0.000000
vn 0.000000 1.000000 0.000000
vn 0.000000 1.000000 0.000000
vn 0.000000 1.000000 0.000000
vn 0.000000 1.000000 0.000000
vn 0.000000 1.000000 0.000000
vn 0.000000 1.000000 0.000000
vn 0.000000 0.000000 1.000000
vn 0.000000 0.000000 1.000000
vn 0.000000 0.000000 1.000000
vn 0.000000 0.000000 1.000000
vn 0.000000 1.000000 0.000000
vn 0.000000 1.000000 0.000000
vn 0.000000 1.000000 0.000000
vn 0.000000 1.000000 0.000000
vn 0.000000 0.000001 1.000000
vn 0.000000 0.000001 1.000000
vn 0.000000 0.000001 1.000000
vn 0.000000 0.000001 1.000000
vn 0.000000 1.000000 0.000000
vn 0.000000 1.000000 0.000000
vn 0.000000 1.000000 0.000000
vn 0.000000 1.000000 0.000000
vn 0.000000 1.000000 0.000000
vn 0.000000 1.000000 0.000000
vn 0.000000 1.000000 0.000000
vn 0.000000 1.000000 0.000000
vn 0.000000 1.000000 0.000000
vn 0.000000 1.000000 0.000000
vn 0.000000 1.000000 0.000000
vn -1.000000 -0.000002 -0.000011
vn -1.000000 -0.000002 -0.000011
vn -0.707109 -0.000002 0.707104
vn -0.707108 -0.000002 0.707105
vn 0.000000 1.000000 -0.000000
vn 0.000000 1.000000 -0.000000
vn 0.000000 1.000000 0.000000
vn 0.000000 1.000000 0.000000
vn -1.000000 -0.000016 0.000004
vn -1.000000 -0.000016 0.000004
vn -0.999989 -0.000016 0.004795
vn -0.799307 -0.000013 0.600923
vn -0.710652 -0.000011 0.703543
vn 0.000000 1.000000 0.000000
vn -0.000000 1.000000 0.000000
vn 0.000000 1.000000 0.000000
vn 0.000000 1.000000 0.000000
vn 0.000000 0.000000 1.000000
vn 0.000000 0.000000 1.000000
vn 0.000000 0.000000 1.000000
vn 0.000000 1.000000 0.000000
vn 0.000000 1.000000 0.000000
vn -0.000002 -0.000001 1.000000
vn -0.000002 -0.000001 1.000000
vn 0.000000 1.000000 0.000000
vn -0.000000 1.000000 0.000000
vn -0.000000 1.000000 0.000000
vn 0.000000 1.000000 0.000000
vn 0.000000 1.000000 0.000000
vn -0.000000 1.000000 0.000000
s off
g InnerCornerRoofTrim_LP
usemtl initialShadingGroup
f 7/29/1 6/30/2 1/31/3 2/32/4
f 3/1/5 8/2/6 7/3/7 2/4/8
f 9/35/9 8/36/10 3/37/11 5/38/12
f 4/11/13 10/12/14 9/13/15 5/14/16
f 1/19/17 6/20/18 12/21/19 11/22/20
f 19/41/21 18/42/22 13/43/23 14/44/24
f 15/9/25 20/8/26 19/7/27 14/10/28
f 21/47/29 20/48/30 15/49/31 17/50/32
f 16/17/33 4/11/34 21/16/35 17/18/36
f 13/27/37 18/25/38 23/24/39 22/28/40
s 1
f 4/11/41 5/14/42 28/15/43
s 2
f 5/38/44 3/37/45 27/39/46 28/40/47
s 3
f 3/1/48 2/4/49 26/5/50 27/6/51
s 4
f 2/32/52 1/31/53 25/33/54 30/54/55 26/34/56
s 5
f 31/57/57 32/58/58 23/24/59 18/25/60
s 4
f 26/45/56 30/55/55 31/56/61 18/42/62 19/41/63
s 3
f 27/6/51 26/5/50 19/7/64 20/8/65
s 2
f 28/51/47 27/52/46 20/48/66 21/47/67
s 1
f 4/11/41 28/15/43 21/16/68
s 5
f 29/53/69 25/26/70 1/19/71 11/22/72
s 4
f 31/56/61 30/55/55 25/46/54
s 5
f 24/23/73 32/58/58 31/57/57 25/26/70 29/53/69
