# This file uses centimeters as units for non-parametric coordinates.

mtllib SingleDoor_LP.mtl
g default
v 0.001137 0.004503 -0.272167
v -1.976168 0.006968 -0.272165
v 0.014132 4.714762 -0.272167
v -1.963173 4.717227 -0.272165
v 0.014132 4.714762 -0.096147
v -1.963173 4.717227 -0.096145
v 0.001137 0.004503 -0.096147
v -1.976168 0.006968 -0.096145
v -0.986558 0.005733 -0.272166
v -0.968450 4.929070 -0.272166
v -0.968450 4.929070 -0.096145
v -0.986558 0.005733 -0.096145
v -1.456334 0.006282 -0.272153
v -1.438941 4.899781 -0.272153
v -1.438941 4.899781 -0.096133
v -1.456334 0.006282 -0.096133
v -0.486117 0.005100 -0.272163
v -0.468724 4.898599 -0.272163
v -0.468724 4.898599 -0.096143
v -0.486117 0.005100 -0.096143
vt 0.398268 0.020127
vt 0.488703 0.020240
vt 0.485526 0.913905
vt 0.395895 0.880328
vt 0.579138 0.020353
vt 0.575831 0.919467
vt 0.669573 0.020466
vt 0.666396 0.914131
vt 0.760007 0.020579
vt 0.757634 0.880780
vt 0.018818 0.059265
vt 0.108450 0.025688
vt 0.111626 0.919353
vt 0.021191 0.919466
vt 0.198754 0.020126
vt 0.202060 0.919240
vt 0.289319 0.025462
vt 0.292496 0.919127
vt 0.380557 0.058813
vt 0.382930 0.919014
vt 0.857814 0.387939
vt 0.857814 0.296803
vt 0.890499 0.296803
vt 0.890499 0.387939
vt 0.857814 0.204983
vt 0.890499 0.204983
vt 0.857814 0.112897
vt 0.890499 0.112897
vt 0.857814 0.020127
vt 0.890499 0.020127
vt 0.772972 0.020127
vt 0.805149 0.020127
vt 0.805149 0.881176
vt 0.772972 0.881176
vt 0.815393 0.020127
vt 0.847570 0.020127
vt 0.847570 0.881176
vt 0.815393 0.881176
vn -0.000008 0.000000 -1.000000
vn -0.000001 0.000000 -1.000000
vn -0.000000 -0.000000 -1.000000
vn -0.000008 0.000000 -1.000000
vn 0.355813 0.934557 0.000000
vn 0.213097 0.977031 0.000000
vn 0.213097 0.977031 0.000000
vn 0.355813 0.934557 0.000000
vn 0.000008 -0.000000 1.000000
vn 0.000000 0.000000 1.000000
vn 0.000001 -0.000000 1.000000
vn 0.000008 -0.000000 1.000000
vn -0.999996 0.002759 0.000000
vn -0.999996 0.002759 0.000000
vn -0.999996 0.002759 0.000000
vn -0.999996 0.002759 0.000000
vn 0.999996 -0.002759 0.000000
vn 0.999996 -0.002759 0.000000
vn 0.999996 -0.002759 0.000000
vn 0.999996 -0.002759 0.000000
vn -0.000010 0.000000 -1.000000
vn -0.000010 0.000000 -1.000000
vn -0.000001 0.000000 -1.000000
vn -0.000004 0.000000 -1.000000
vn 0.001218 0.999999 0.000000
vn 0.001219 0.999999 0.000000
vn -0.208295 0.978066 0.000000
vn -0.208295 0.978066 0.000000
vn 0.000010 -0.000000 1.000000
vn 0.000010 -0.000000 1.000000
vn 0.000004 -0.000000 1.000000
vn 0.000001 -0.000000 1.000000
vn 0.000023 -0.000000 -1.000000
vn 0.000023 -0.000000 -1.000000
vn -0.328862 0.944378 0.000000
vn -0.328862 0.944378 0.000000
vn -0.000023 0.000000 1.000000
vn -0.000023 0.000000 1.000000
s 1
g SingleDoor_LP SingleDoor_LP
usemtl initialShadingGroup
f 1/1/1 17/2/2 18/3/3 3/4/4
s 2
f 3/21/5 18/22/6 19/23/7 5/24/8
s 3
f 5/11/9 19/12/10 20/13/11 7/14/12
s off
f 2/31/13 8/32/14 6/33/15 4/34/16
f 7/35/17 1/36/18 3/37/19 5/38/20
s 1
f 10/6/21 9/5/22 13/7/23 14/8/24
s 2
f 11/26/25 10/25/26 14/27/27 15/28/28
s 3
f 12/16/29 11/15/30 15/17/31 16/18/32
s 1
f 14/8/24 13/7/23 2/9/33 4/10/34
s 2
f 15/28/28 14/27/27 4/29/35 6/30/36
s 3
f 16/18/32 15/17/31 6/19/37 8/20/38
s 1
f 18/3/3 17/2/2 9/5/22 10/6/21
s 2
f 19/23/7 18/22/6 10/25/26 11/26/25
s 3
f 20/13/11 19/12/10 11/15/30 12/16/29
