# This file uses centimeters as units for non-parametric coordinates.

mtllib SmallStairs_LP.mtl
g default
v 0.000000 -0.000000 0.000000
v 0.000031 -0.011272 -4.085721
v -8.437374 -0.023277 0.000000
v -8.437343 -0.034549 -4.085720
v -4.218687 -0.011638 0.000000
v -4.218656 -0.022910 -4.085721
v -6.328030 -0.017458 0.000000
v -6.327999 -0.028729 -4.085721
v -2.109344 -0.005819 0.000000
v -2.109313 -0.017091 -4.085721
v -1.054672 -0.002910 0.000000
v -1.054641 -0.014181 -4.085721
v -3.164015 -0.008729 0.000000
v -3.163984 -0.020000 -4.085721
v -5.273358 -0.014548 0.000000
v -5.273327 -0.025820 -4.085721
v -7.382702 -0.020367 0.000000
v -7.382671 -0.031639 -4.085720
v -0.008844 3.205769 -0.008844
v -0.008813 3.194497 -4.094564
v -1.063485 3.191588 -4.094564
v -1.063516 3.202859 -0.008844
v -1.062274 2.752776 -0.007602
v -1.062243 2.741505 -4.093322
v -2.116914 2.738595 -4.093322
v -2.116945 2.749867 -0.007602
v -2.115604 2.263505 -0.006261
v -2.115573 2.252234 -4.091980
v -3.170244 2.249324 -4.091980
v -3.170276 2.260596 -0.006261
v -3.168990 1.794450 -0.004975
v -3.168958 1.783178 -4.090694
v -4.223630 1.780269 -4.090694
v -4.223661 1.791540 -0.004975
v -4.222471 1.360229 -0.003785
v -4.222440 1.348957 -4.089504
v -5.277112 1.346048 -4.089504
v -5.277143 1.357319 -0.003785
v -5.275793 0.868110 -0.002435
v -5.275762 0.856838 -4.088155
v -6.330434 0.853929 -4.088155
v -6.330465 0.865200 -0.002435
v -6.329076 0.361509 -0.001045
v -6.329045 0.350237 -4.086765
v -7.383716 0.347328 -4.086765
v -7.383747 0.358599 -0.001045
v 0.000016 -0.005636 -2.042860
v -0.008829 3.200133 -2.051703
v -1.063500 3.197223 -2.051703
v -1.062258 2.747140 -2.050461
v -2.116930 2.744231 -2.050461
v -2.115588 2.257870 -2.049120
v -3.170260 2.254960 -2.049120
v -3.168974 1.788814 -2.047834
v -4.223646 1.785905 -2.047834
v -4.222456 1.354593 -2.046644
v -5.277127 1.351683 -2.046644
v -5.275778 0.862474 -2.045294
v -6.330450 0.859565 -2.045294
v -6.329060 0.355873 -2.043904
v -7.383732 0.352964 -2.043904
v -7.382687 -0.026003 -2.042859
v -8.437359 -0.028913 -2.042859
v -4.218687 -0.011638 0.000000
v -4.218656 -0.022910 -4.085721
v -6.328030 -0.017458 0.000000
v -6.327999 -0.028729 -4.085721
v -2.109344 -0.005819 0.000000
v -2.109313 -0.017091 -4.085721
v -1.054672 -0.002910 0.000000
v -1.054641 -0.014181 -4.085721
v -3.164015 -0.008729 0.000000
v -3.163984 -0.020000 -4.085721
v -5.273358 -0.014548 0.000000
v -5.273327 -0.025820 -4.085721
vt 0.208589 0.399177
vt 0.298863 0.399177
vt 0.298863 0.656429
vt 0.298863 0.699748
vt 0.208589 0.699748
vt 0.789251 0.004538
vt 0.789251 0.217309
vt 0.789251 0.262909
vt 0.789251 0.544412
vt 0.789251 0.713477
vt 0.789251 0.757183
vt 0.891030 0.623513
vt 0.891030 0.752139
vt 0.891030 0.792578
vt 0.298862 0.711314
vt 0.298862 0.794071
vt 0.298862 0.839939
vt 0.456157 0.793816
vt 0.456157 0.829347
vt 0.456157 0.876573
vt 0.197084 0.793816
vt 0.197084 0.829347
vt 0.291862 0.387611
vt 0.291862 0.196075
vt 0.382136 0.196075
vt 0.382136 0.387611
vt 0.291862 0.004538
vt 0.382136 0.004538
vt 0.495420 0.387611
vt 0.495420 0.196075
vt 0.585694 0.196075
vt 0.585694 0.387611
vt 0.495420 0.004538
vt 0.585694 0.004538
vt 0.393641 0.387611
vt 0.393641 0.196074
vt 0.483915 0.196074
vt 0.483915 0.387611
vt 0.393641 0.004538
vt 0.483915 0.004538
vt 0.393641 0.782250
vt 0.393641 0.590713
vt 0.483915 0.590713
vt 0.483915 0.782250
vt 0.393641 0.399177
vt 0.483915 0.399177
vt 0.597199 0.782250
vt 0.597199 0.590713
vt 0.687472 0.590713
vt 0.687472 0.782250
vt 0.597199 0.399177
vt 0.687472 0.399177
vt 0.597199 0.387611
vt 0.597199 0.196074
vt 0.687472 0.196074
vt 0.687472 0.387611
vt 0.597199 0.004538
vt 0.687472 0.004538
vt 0.106810 0.782250
vt 0.106810 0.590714
vt 0.197084 0.590714
vt 0.197084 0.782250
vt 0.106810 0.399177
vt 0.197084 0.399177
vt 0.005031 0.782250
vt 0.005031 0.590714
vt 0.095305 0.590714
vt 0.095305 0.782250
vt 0.005031 0.399177
vt 0.095305 0.399177
vt 0.005031 0.387611
vt 0.005031 0.196075
vt 0.279427 0.196075
vt 0.279427 0.387611
vt 0.005031 0.004538
vt 0.279427 0.004538
vt 0.958051 0.196075
vt 0.994969 0.196075
vt 0.994969 0.387611
vt 0.958051 0.387611
vt 0.994969 0.004538
vt 0.958051 0.004538
vt 0.800756 0.420411
vt 0.843869 0.420411
vt 0.843869 0.611947
vt 0.800756 0.611947
vt 0.843869 0.228874
vt 0.800756 0.228874
vt 0.310368 0.590714
vt 0.352241 0.590714
vt 0.352241 0.782250
vt 0.310368 0.782250
vt 0.352241 0.399177
vt 0.310368 0.399177
vt 0.958051 0.590714
vt 0.990488 0.590714
vt 0.990488 0.782250
vt 0.958051 0.782250
vt 0.990488 0.399177
vt 0.958051 0.399177
vt 0.907161 0.196075
vt 0.947061 0.196075
vt 0.947061 0.387612
vt 0.907161 0.387612
vt 0.947061 0.004538
vt 0.907161 0.004538
vt 0.856272 0.420411
vt 0.897902 0.420411
vt 0.897902 0.611948
vt 0.856272 0.611948
vt 0.897902 0.228874
vt 0.856272 0.228874
vt 0.907161 0.590714
vt 0.945686 0.590714
vt 0.945686 0.782250
vt 0.907161 0.782250
vt 0.945686 0.399177
vt 0.907161 0.399177
vt 0.208589 0.711314
vt 0.106810 0.793816
vt 0.698978 0.544412
vt 0.698978 0.004538
vt 0.800756 0.623513
vt 0.365883 0.793816
vt 0.698978 0.262909
vt 0.698978 0.757183
vt 0.800756 0.792578
vt 0.365883 0.876573
vt 0.106810 0.829347
vt 0.208589 0.839939
vt 0.495420 0.657549
vt 0.495420 0.399177
vt 0.585694 0.399177
vt 0.585694 0.699748
vt 0.495420 0.699748
vt 0.698978 0.487246
vt 0.698978 0.274475
vt 0.789251 0.274475
vt 0.789251 0.532847
vt 0.698978 0.532847
vt 0.800756 0.173603
vt 0.800756 0.004538
vt 0.891030 0.004538
vt 0.891030 0.217309
vt 0.800756 0.217309
vt 0.495420 0.839939
vt 0.495420 0.711314
vt 0.585694 0.711314
vt 0.585694 0.880379
vt 0.495420 0.880379
vt 0.698978 0.851506
vt 0.698978 0.768749
vt 0.789251 0.768749
vt 0.789251 0.897374
vt 0.698978 0.897374
vt 0.629636 0.892701
vt 0.597199 0.892701
vt 0.597199 0.793816
vt 0.672749 0.793816
vt 0.672749 0.892701
vt 0.902535 0.892701
vt 0.902535 0.793816
vt 0.934972 0.793816
vt 0.934972 0.892701
vn -0.002759 0.999992 -0.002759
vn -0.002759 0.999992 -0.002759
vn -0.002759 0.999992 -0.002759
vn -0.002759 0.999992 -0.002759
vn -0.002759 0.999992 -0.002759
vn -0.002759 0.999992 -0.002759
vn -0.002759 0.999992 -0.002759
vn -0.002759 0.999992 -0.002759
vn -0.002759 0.999992 -0.002759
vn -0.002759 0.999992 -0.002759
vn -0.002759 0.999992 -0.002759
vn -0.002759 0.999992 -0.002759
vn -0.002759 0.999992 -0.002759
vn -0.002759 0.999992 -0.002759
vn -0.002759 0.999992 -0.002759
vn -0.002759 0.999992 -0.002759
vn -0.002759 0.999992 -0.002759
vn -0.002759 0.999992 -0.002759
vn -0.002759 0.999992 -0.002759
vn -0.002759 0.999992 -0.002759
vn -0.002759 0.999992 -0.002759
vn -0.002759 0.999992 -0.002759
vn -0.002759 0.999992 -0.002759
vn -0.002759 0.999992 -0.002759
vn -0.002759 0.999992 -0.002759
vn -0.002759 0.999992 -0.002759
vn -0.002759 0.999992 -0.002759
vn -0.002759 0.999992 -0.002759
vn -0.002759 0.999992 -0.002759
vn -0.002759 0.999992 -0.002759
vn -0.002759 0.999992 -0.002759
vn -0.002759 0.999992 -0.002759
vn 0.999996 0.002759 -0.000000
vn 0.999996 0.002759 -0.000000
vn 0.999996 0.002759 -0.000000
vn 0.999996 0.002759 -0.000000
vn 0.000008 -0.002758 -0.999996
vn 0.000008 -0.002758 -0.999996
vn 0.000008 -0.002758 -0.999996
vn 0.000008 -0.002758 -0.999996
vn 0.000008 -0.002758 -0.999996
vn -0.000008 0.002759 0.999996
vn -0.000008 0.002759 0.999996
vn -0.000008 0.002759 0.999996
vn -0.000008 0.002759 0.999996
vn -0.000008 0.002759 0.999996
vn 0.000008 -0.002758 -0.999996
vn 0.000008 -0.002758 -0.999996
vn 0.000008 -0.002758 -0.999996
vn 0.000008 -0.002758 -0.999996
vn 0.000008 -0.002758 -0.999996
vn -0.000008 0.002759 0.999996
vn -0.000008 0.002759 0.999996
vn -0.000008 0.002759 0.999996
vn -0.000008 0.002759 0.999996
vn -0.000008 0.002759 0.999996
vn 0.000008 -0.002758 -0.999996
vn 0.000008 -0.002758 -0.999996
vn 0.000008 -0.002758 -0.999996
vn 0.000008 -0.002758 -0.999996
vn 0.000008 -0.002758 -0.999996
vn -0.000008 0.002759 0.999996
vn -0.000008 0.002759 0.999996
vn -0.000008 0.002759 0.999996
vn -0.000008 0.002759 0.999996
vn -0.000008 0.002759 0.999996
vn 0.000008 -0.002758 -0.999996
vn 0.000008 -0.002758 -0.999996
vn 0.000008 -0.002758 -0.999996
vn 0.000008 -0.002758 -0.999996
vn 0.000008 -0.002758 -0.999996
vn -0.000008 0.002759 0.999996
vn -0.000008 0.002759 0.999996
vn -0.000008 0.002759 0.999996
vn -0.000008 0.002759 0.999996
vn -0.000008 0.002759 0.999996
vn 0.000007 -0.002758 -0.999996
vn 0.000007 -0.002758 -0.999996
vn 0.000007 -0.002758 -0.999996
vn 0.000007 -0.002758 -0.999996
vn 0.000007 -0.002758 -0.999996
vn -0.000008 0.002759 0.999996
vn -0.000008 0.002759 0.999996
vn -0.000008 0.002759 0.999996
vn -0.000008 0.002759 0.999996
vn -0.000008 0.002759 0.999996
vn 0.000007 -0.002758 -0.999996
vn 0.000007 -0.002758 -0.999996
vn 0.000007 -0.002758 -0.999996
vn 0.000007 -0.002758 -0.999996
vn 0.000007 -0.002758 -0.999996
vn -0.000008 0.002759 0.999996
vn -0.000008 0.002759 0.999996
vn -0.000008 0.002759 0.999996
vn -0.000008 0.002759 0.999996
vn -0.000008 0.002759 0.999996
vn 0.000007 -0.002758 -0.999996
vn 0.000007 -0.002758 -0.999996
vn 0.000007 -0.002758 -0.999996
vn 0.000007 -0.002758 -0.999996
vn -0.000008 0.002759 0.999996
vn -0.000008 0.002759 0.999996
vn -0.000008 0.002759 0.999996
vn -0.000008 0.002759 0.999996
vn -0.999996 -0.002759 0.000000
vn -0.999996 -0.002759 0.000000
vn -0.999996 -0.002759 0.000000
vn -0.999996 -0.002759 0.000000
vn 0.999996 0.002759 -0.000000
vn 0.999996 0.002759 -0.000000
vn -0.002759 0.999992 -0.002759
vn -0.002759 0.999992 -0.002759
vn -0.002759 0.999992 -0.002759
vn -0.002759 0.999992 -0.002759
vn -0.002759 0.999992 -0.002759
vn -0.002759 0.999992 -0.002759
vn -0.002759 0.999992 -0.002759
vn -0.002759 0.999992 -0.002759
vn -0.999996 -0.002759 0.000000
vn -0.999996 -0.002759 0.000000
vn -0.002759 0.999992 -0.002759
vn -0.002759 0.999992 -0.002759
vn -0.002759 0.999992 -0.002759
vn -0.002759 0.999992 -0.002759
vn -0.002759 0.999992 -0.002759
vn -0.002759 0.999992 -0.002759
vn -0.002759 0.999992 -0.002759
vn -0.002759 0.999992 -0.002759
vn -0.999996 -0.002759 0.000000
vn -0.999996 -0.002759 0.000000
vn -0.999996 -0.002759 0.000000
vn -0.999996 -0.002759 0.000000
vn -0.999996 -0.002759 0.000000
vn -0.999996 -0.002759 0.000000
vn -0.999996 -0.002759 0.000000
vn -0.999996 -0.002759 0.000000
vn -0.999996 -0.002759 0.000000
vn -0.999996 -0.002759 0.000000
vn -0.999996 -0.002759 0.000000
vn -0.999996 -0.002759 0.000000
vn -0.999996 -0.002758 -0.000000
vn -0.999996 -0.002758 -0.000000
vn -0.999996 -0.002758 -0.000000
vn -0.999996 -0.002758 -0.000000
vn -0.999996 -0.002758 -0.000000
vn -0.999996 -0.002758 -0.000000
vn -0.999996 -0.002759 0.000000
vn -0.999996 -0.002759 0.000000
vn -0.999996 -0.002759 0.000000
vn -0.999996 -0.002759 0.000000
vn -0.999996 -0.002759 0.000000
vn -0.999996 -0.002759 0.000000
vn -0.999996 -0.002759 0.000000
vn -0.999996 -0.002759 0.000000
vn -0.999996 -0.002759 0.000000
vn -0.999996 -0.002759 0.000000
vn -0.999996 -0.002759 0.000000
vn -0.999996 -0.002759 0.000000
vn -0.999996 -0.002759 0.000000
vn -0.999996 -0.002759 0.000000
vn -0.999996 -0.002759 0.000000
vn -0.999996 -0.002759 0.000000
vn -0.999996 -0.002759 0.000000
vn -0.999996 -0.002759 0.000000
s 1
g SmallStairs_LP
usemtl initialShadingGroup
f 17/23/1 62/24/2 63/25/3 3/26/4
s 2
f 31/29/5 54/30/6 55/31/7 34/32/8
s 3
f 39/35/9 58/36/10 59/37/11 42/38/12
s 4
f 23/41/13 50/42/14 51/43/15 26/44/16
s 5
f 19/47/17 48/48/18 49/49/19 22/50/20
s 6
f 27/53/21 52/54/22 53/55/23 30/56/24
s 7
f 35/59/25 56/60/26 57/61/27 38/62/28
s 8
f 43/65/29 60/66/30 61/67/31 46/68/32
s 9
f 1/71/33 47/72/34 48/73/35 19/74/36
s off
f 2/1/37 12/2/38 24/3/39 21/4/40 20/5/41
f 23/131/42 70/132/43 1/133/44 19/134/45 22/135/46
f 24/125/47 71/122/48 10/6/49 28/7/50 25/8/51
f 27/136/52 68/137/53 11/138/54 23/139/55 26/140/56
f 28/126/57 69/121/58 14/9/59 32/10/60 29/11/61
f 31/141/62 72/142/63 9/143/64 27/144/65 30/145/66
f 32/127/67 73/123/68 6/12/69 36/13/70 33/14/71
f 35/146/72 64/147/73 13/148/74 31/149/75 34/150/76
f 36/130/77 65/119/78 16/15/79 40/16/80 37/17/81
f 39/151/82 74/152/83 5/153/84 35/154/85 38/155/86
f 40/128/87 75/124/88 8/18/89 44/19/90 41/20/91
f 43/156/92 66/157/93 15/158/94 39/159/95 42/160/96
f 44/129/97 67/120/98 18/21/99 45/22/100
f 17/161/101 7/162/102 43/163/103 46/164/104
s 10
f 55/77/105 56/78/106 35/79/107 34/80/108
s 9
f 47/72/34 2/75/109 20/76/110 48/73/35
s 5
f 49/49/19 48/48/18 20/51/111 21/52/112
s 4
f 51/43/15 50/42/14 24/45/113 25/46/114
s 6
f 53/55/23 52/54/22 28/57/115 29/58/116
s 2
f 55/31/7 54/30/6 32/33/117 33/34/118
s 10
f 36/81/119 56/78/106 55/77/105 33/82/120
s 7
f 57/61/27 56/60/26 36/63/121 37/64/122
s 3
f 59/37/11 58/36/10 40/39/123 41/40/124
s 8
f 61/67/31 60/66/30 44/69/125 45/70/126
s 1
f 63/25/3 62/24/2 18/27/127 4/28/128
s 11
f 59/83/129 60/84/130 43/85/131 42/86/132
f 44/87/133 60/84/130 59/83/129 41/88/134
s 12
f 57/89/135 58/90/136 39/91/137 38/92/138
f 40/93/139 58/90/136 57/89/135 37/94/140
s 13
f 61/95/141 62/96/142 17/97/143 46/98/144
f 18/99/145 62/96/142 61/95/141 45/100/146
s 14
f 53/101/147 54/102/148 31/103/149 30/104/150
f 32/105/151 54/102/148 53/101/147 29/106/152
s 15
f 51/107/153 52/108/154 27/109/155 26/110/156
f 28/111/157 52/108/154 51/107/153 25/112/158
s 16
f 49/113/159 50/114/160 23/115/161 22/116/162
f 24/117/163 50/114/160 49/113/159 21/118/164
