# This file uses centimeters as units for non-parametric coordinates.

mtllib InnerCorner.mtl
g default
v 0.000000 8.000000 -2.000000
v 0.000000 0.000000 -2.000000
v 0.000000 0.621185 -2.000000
v -0.140568 0.098227 -2.000000
v -0.140568 0.543745 -2.000000
v 0.000000 2.393654 -2.000000
v 0.000000 1.803414 -2.000000
v -0.140568 2.326864 -2.000000
v -0.140568 1.906153 -2.000000
v 0.000000 8.000000 0.000000
v 0.000000 2.393654 0.000000
v -0.140567 2.326864 -0.140567
v -0.140567 1.906153 -0.140567
v 0.000000 1.803414 0.000000
v 0.000000 0.621185 0.000000
v -0.140567 0.543745 -0.140567
v -0.140567 0.098227 -0.140567
v 0.000000 0.000000 0.000000
v -2.000000 8.000000 0.000000
v -2.000000 2.393654 0.000000
v -2.000000 2.326864 -0.140568
v -2.000000 1.906153 -0.140568
v -2.000000 1.803414 0.000000
v -2.000000 0.621185 0.000000
v -2.000000 0.543745 -0.140568
v -2.000000 0.098227 -0.140568
v -2.000000 0.000000 0.000000
vt 0.687842 0.500626
vt 0.687842 0.155794
vt 0.810875 0.155794
vt 0.810875 0.500626
vt 0.810875 0.125662
vt 0.810875 0.151538
vt 0.687842 0.151538
vt 0.687842 0.125662
vt 0.810875 0.046774
vt 0.810875 0.119490
vt 0.687842 0.119490
vt 0.687842 0.046774
vt 0.687842 0.014461
vt 0.810875 0.014461
vt 0.810875 0.041863
vt 0.687842 0.041863
vt 0.687842 0.008567
vt 0.810875 0.008567
vt 0.811234 0.500626
vt 0.811234 0.155794
vt 0.934266 0.155794
vt 0.934266 0.500626
vt 0.934266 0.151538
vt 0.811234 0.151538
vt 0.934266 0.125662
vt 0.811234 0.125662
vt 0.811234 0.119490
vt 0.934266 0.119490
vt 0.934266 0.046774
vt 0.811234 0.046774
vt 0.934266 0.041863
vt 0.811234 0.041863
vt 0.811234 0.014461
vt 0.934266 0.014461
vt 0.811234 0.008567
vt 0.934266 0.008567
vn -1.000000 0.000000 0.000000
vn -1.000000 0.000000 0.000000
vn -1.000000 0.000000 0.000000
vn -1.000000 0.000000 0.000000
vn -0.429161 0.903228 0.000000
vn -0.429161 0.903228 0.000000
vn -0.429161 0.903228 0.000000
vn -0.429161 0.903228 0.000000
vn -1.000000 0.000000 0.000000
vn -1.000000 0.000000 0.000000
vn -1.000000 0.000000 0.000000
vn -1.000000 0.000000 0.000000
vn -0.590081 -0.807344 0.000000
vn -0.590081 -0.807344 0.000000
vn -0.590081 -0.807344 0.000000
vn -0.590081 -0.807344 0.000000
vn -1.000000 0.000000 0.000000
vn -1.000000 0.000000 0.000000
vn -1.000000 0.000000 0.000000
vn -1.000000 0.000000 0.000000
vn -0.482529 0.875880 0.000000
vn -0.482529 0.875880 0.000000
vn -0.482529 0.875880 0.000000
vn -0.482529 0.875880 0.000000
vn -1.000000 0.000000 0.000000
vn -1.000000 0.000000 0.000000
vn -1.000000 0.000000 0.000000
vn -1.000000 0.000000 0.000000
vn -0.572796 -0.819698 0.000000
vn -0.572796 -0.819698 0.000000
vn -0.572796 -0.819698 0.000000
vn -0.572796 -0.819698 0.000000
vn 0.000000 0.000000 -1.000000
vn 0.000000 0.000000 -1.000000
vn 0.000000 0.000000 -1.000000
vn 0.000000 0.000000 -1.000000
vn 0.000000 0.903229 -0.429160
vn 0.000000 0.903229 -0.429160
vn 0.000000 0.903229 -0.429160
vn 0.000000 0.903229 -0.429160
vn 0.000000 0.000000 -1.000000
vn 0.000000 0.000000 -1.000000
vn 0.000000 0.000000 -1.000000
vn 0.000000 0.000000 -1.000000
vn 0.000000 -0.807344 -0.590081
vn 0.000000 -0.807344 -0.590081
vn 0.000000 -0.807344 -0.590081
vn 0.000000 -0.807344 -0.590081
vn 0.000000 0.000000 -1.000000
vn 0.000000 0.000000 -1.000000
vn 0.000000 0.000000 -1.000000
vn 0.000000 0.000000 -1.000000
vn 0.000000 0.875880 -0.482529
vn 0.000000 0.875880 -0.482529
vn 0.000000 0.875880 -0.482529
vn 0.000000 0.875880 -0.482529
vn 0.000000 0.000000 -1.000000
vn 0.000000 0.000000 -1.000000
vn 0.000000 0.000000 -1.000000
vn 0.000000 0.000000 -1.000000
vn 0.000000 -0.819698 -0.572796
vn 0.000000 -0.819698 -0.572796
vn 0.000000 -0.819698 -0.572796
vn 0.000000 -0.819698 -0.572796
s off
g InnerCorner_LP
usemtl initialShadingGroup
f 1/1/1 6/2/2 11/3/3 10/4/4
f 12/6/5 11/3/6 6/2/7 8/7/8
f 13/5/9 12/6/10 8/7/11 9/8/12
f 7/11/13 14/10/14 13/5/15 9/8/16
f 15/9/17 14/10/18 7/11/19 3/12/20
f 16/15/21 15/9/22 3/12/23 5/16/24
f 4/13/25 17/14/26 16/15/27 5/16/28
f 2/17/29 18/18/30 17/14/31 4/13/32
f 10/19/33 11/20/34 20/21/35 19/22/36
f 21/23/37 20/21/38 11/20/39 12/24/40
f 22/25/41 21/23/42 12/24/43 13/26/44
f 14/27/45 23/28/46 22/25/47 13/26/48
f 24/29/49 23/28/50 14/27/51 15/30/52
f 25/31/53 24/29/54 15/30/55 16/32/56
f 17/33/57 26/34/58 25/31/59 16/32/60
f 18/35/61 27/36/62 26/34/63 17/33/64
