# This file uses centimeters as units for non-parametric coordinates.

mtllib OuterCorner_LP.mtl
g default
v 0.000000 8.000000 0.000000
v 0.000000 0.000000 0.000000
v 0.000000 0.621185 0.000000
v -0.140568 0.098227 -0.140568
v -0.140568 0.543745 -0.140568
v 0.000000 2.393654 0.000000
v 0.000000 1.803414 0.000000
v -0.140568 2.326864 -0.140568
v -0.140568 1.906153 -0.140568
v 0.000000 8.000000 2.000000
v 0.000000 2.393654 2.000000
v -0.140568 2.326864 2.000000
v -0.140568 1.906153 2.000000
v 0.000000 1.803414 2.000000
v 0.000000 0.621185 2.000000
v -0.140568 0.543745 2.000000
v -0.140568 0.098227 2.000000
v 0.000000 0.000000 2.000000
v 2.000000 8.000000 0.000000
v 2.000000 0.000000 0.000000
v 2.000000 0.621185 0.000000
v 2.000000 0.098227 -0.140568
v 2.000000 0.543745 -0.140568
v 2.000000 2.393654 0.000000
v 2.000000 1.803414 0.000000
v 2.000000 2.326864 -0.140568
v 2.000000 1.906153 -0.140568
vt 0.438484 0.500626
vt 0.438484 0.155794
vt 0.561516 0.155794
vt 0.561516 0.500626
vt 0.561516 0.125662
vt 0.561516 0.151538
vt 0.438484 0.151538
vt 0.438484 0.125662
vt 0.561516 0.046774
vt 0.561516 0.119490
vt 0.438484 0.119490
vt 0.438484 0.046774
vt 0.438484 0.014461
vt 0.561516 0.014461
vt 0.561516 0.041863
vt 0.438484 0.041863
vt 0.438484 0.008567
vt 0.561516 0.008567
vt 0.563375 0.500626
vt 0.563375 0.155794
vt 0.686407 0.155794
vt 0.686407 0.500626
vt 0.686407 0.151538
vt 0.563375 0.151538
vt 0.686407 0.125662
vt 0.563375 0.125662
vt 0.563375 0.119490
vt 0.686407 0.119490
vt 0.686407 0.046774
vt 0.563375 0.046774
vt 0.686407 0.041863
vt 0.563375 0.041863
vt 0.563375 0.014461
vt 0.686407 0.014461
vt 0.563375 0.008567
vt 0.686407 0.008567
vn -1.000000 0.000000 0.000000
vn -1.000000 0.000000 0.000000
vn -1.000000 0.000000 0.000000
vn -1.000000 0.000000 0.000000
vn -0.429160 0.903228 0.000000
vn -0.429160 0.903228 0.000000
vn -0.429160 0.903228 0.000000
vn -0.429160 0.903228 0.000000
vn -1.000000 0.000000 0.000000
vn -1.000000 0.000000 0.000000
vn -1.000000 0.000000 0.000000
vn -1.000000 0.000000 0.000000
vn -0.590080 -0.807345 0.000000
vn -0.590080 -0.807345 0.000000
vn -0.590080 -0.807345 0.000000
vn -0.590080 -0.807345 0.000000
vn -1.000000 0.000000 0.000000
vn -1.000000 0.000000 0.000000
vn -1.000000 0.000000 0.000000
vn -1.000000 0.000000 0.000000
vn -0.482529 0.875880 0.000000
vn -0.482529 0.875880 0.000000
vn -0.482529 0.875880 0.000000
vn -0.482529 0.875880 0.000000
vn -1.000000 0.000000 0.000000
vn -1.000000 0.000000 0.000000
vn -1.000000 0.000000 0.000000
vn -1.000000 0.000000 0.000000
vn -0.572795 -0.819699 0.000000
vn -0.572795 -0.819699 0.000000
vn -0.572795 -0.819699 0.000000
vn -0.572795 -0.819699 0.000000
vn 0.000000 0.000000 -1.000000
vn 0.000000 0.000000 -1.000000
vn 0.000000 0.000000 -1.000000
vn 0.000000 0.000000 -1.000000
vn 0.000000 0.903229 -0.429159
vn 0.000000 0.903229 -0.429159
vn 0.000000 0.903229 -0.429159
vn 0.000000 0.903229 -0.429159
vn 0.000000 0.000000 -1.000000
vn 0.000000 0.000000 -1.000000
vn 0.000000 0.000000 -1.000000
vn 0.000000 0.000000 -1.000000
vn 0.000000 -0.807345 -0.590080
vn 0.000000 -0.807345 -0.590080
vn 0.000000 -0.807345 -0.590080
vn 0.000000 -0.807345 -0.590080
vn 0.000000 0.000000 -1.000000
vn 0.000000 0.000000 -1.000000
vn 0.000000 0.000000 -1.000000
vn 0.000000 0.000000 -1.000000
vn 0.000000 0.875880 -0.482529
vn 0.000000 0.875880 -0.482529
vn 0.000000 0.875880 -0.482529
vn 0.000000 0.875880 -0.482529
vn 0.000000 0.000000 -1.000000
vn 0.000000 0.000000 -1.000000
vn 0.000000 0.000000 -1.000000
vn 0.000000 0.000000 -1.000000
vn 0.000000 -0.819699 -0.572795
vn 0.000000 -0.819699 -0.572795
vn 0.000000 -0.819699 -0.572795
vn 0.000000 -0.819699 -0.572795
s off
g OuterCorner_LP
usemtl initialShadingGroup
f 1/1/1 6/2/2 11/3/3 10/4/4
f 12/6/5 11/3/6 6/2/7 8/7/8
f 13/5/9 12/6/10 8/7/11 9/8/12
f 7/11/13 14/10/14 13/5/15 9/8/16
f 15/9/17 14/10/18 7/11/19 3/12/20
f 16/15/21 15/9/22 3/12/23 5/16/24
f 4/13/25 17/14/26 16/15/27 5/16/28
f 2/17/29 18/18/30 17/14/31 4/13/32
f 19/19/33 24/20/34 6/21/35 1/22/36
f 8/23/37 6/21/38 24/20/39 26/24/40
f 9/25/41 8/23/42 26/24/43 27/26/44
f 25/27/45 7/28/46 9/25/47 27/26/48
f 3/29/49 7/28/50 25/27/51 21/30/52
f 5/31/53 3/29/54 21/30/55 23/32/56
f 22/33/57 4/34/58 5/31/59 23/32/60
f 20/35/61 2/36/62 4/34/63 22/33/64
