# This file uses centimeters as units for non-parametric coordinates.

mtllib SingleDoorway.mtl
g default
v 0.000000 0.000000 4.000000
v 0.000000 8.000000 4.000000
v 0.000000 8.000000 0.000000
v 0.000000 0.000000 0.000000
v 0.000000 0.621185 4.000000
v 0.000000 0.621185 0.000000
v -0.140567 0.098227 4.000000
v -0.140567 0.098227 0.000000
v -0.140567 0.543745 4.000000
v -0.140567 0.543745 0.000000
v 0.000000 2.393654 4.000000
v 0.000000 2.393654 0.000000
v 0.000000 1.803414 4.000000
v 0.000000 1.803414 0.000000
v -0.140567 2.326864 4.000000
v -0.140567 2.326864 0.000000
v -0.140567 1.906153 0.000000
v -0.140567 1.906153 4.000000
v 0.000000 8.000000 2.000000
v 0.000000 8.000000 3.033333
v 0.000000 2.393654 3.033333
v 0.000000 2.326864 3.033333
v 0.000000 1.906153 3.033333
v 0.000000 1.803414 3.033333
v 0.000000 0.621185 3.033333
v 0.000000 0.543745 3.033333
v 0.000000 0.098227 3.033333
v 0.000000 0.000000 3.033333
v 0.000000 0.000000 0.966667
v 0.000000 0.098227 0.966667
v 0.000000 0.543745 0.966667
v 0.000000 0.621185 0.966667
v 0.000000 1.803414 0.966667
v 0.000000 1.906153 0.966667
v 0.000000 2.326864 0.966667
v 0.000000 2.393654 0.966667
v 0.000000 8.000000 0.966667
v 0.000000 0.000000 0.649032
v -0.140567 0.098227 0.649032
v -0.140567 0.543745 0.649032
v 0.000000 0.621185 0.649032
v 0.000000 1.803414 0.649032
v -0.140567 1.906153 0.649032
v -0.140567 2.326864 0.649032
v 0.000000 2.393654 0.649032
v 0.000000 8.000000 0.649032
v 0.000000 8.000000 3.350968
v 0.000000 2.393654 3.350968
v -0.140567 2.326864 3.350968
v -0.140567 1.906153 3.350968
v 0.000000 1.803414 3.350968
v 0.000000 0.621185 3.350968
v -0.140567 0.543745 3.350968
v -0.140567 0.098227 3.350968
v 0.000000 0.000000 3.350968
v 0.000269 4.730309 0.000000
v 0.000269 4.730309 0.649032
v 0.000269 4.730309 0.966667
v 0.000000 4.945214 2.000000
v 0.000269 4.730309 3.033333
v 0.000269 4.730309 3.350968
v 0.000269 4.730309 4.000000
v 0.000269 5.025576 0.000000
v 0.000269 5.025576 0.649032
v 0.000269 5.025577 0.966667
v 0.000000 5.240480 2.000000
v 0.000269 5.025575 3.033333
v 0.000269 5.025575 3.350968
v 0.000269 5.025575 4.000000
v 0.000000 8.000000 1.517204
v 0.000029 5.217162 1.517204
v 0.000029 4.921895 1.517204
v 0.000029 4.921895 2.482796
v 0.000029 5.217161 2.482796
v 0.000000 8.000000 2.482796
v -0.296900 -0.000371 0.649032
v -0.437468 0.097856 0.649032
v -0.296900 -0.000371 0.966667
v -0.437468 0.097856 0.966667
v -0.437468 0.543374 0.649032
v -0.437468 0.543374 0.966667
v -0.296900 0.620814 0.966667
v -0.296900 0.620814 0.649032
v -0.296900 1.803042 0.966667
v -0.296900 1.803042 0.649032
v -0.437468 1.905782 0.649032
v -0.437468 1.905782 0.966667
v -0.437468 2.326493 0.966667
v -0.437468 2.326493 0.649032
v -0.296900 2.393282 0.966667
v -0.296900 2.393282 0.649032
v -0.296900 2.393282 3.350968
v -0.437468 2.326493 3.350968
v -0.296900 2.393282 3.033333
v -0.437468 2.326493 3.033333
v -0.437468 1.905782 3.350968
v -0.437468 1.905782 3.033333
v -0.296900 1.803042 3.033333
v -0.296900 1.803042 3.350968
v -0.296900 0.620814 3.350968
v -0.296900 0.620814 3.033333
v -0.437468 0.543374 3.350968
v -0.437468 0.543374 3.033333
v -0.437468 0.097856 3.033333
v -0.437468 0.097856 3.350968
v -0.296900 -0.000371 3.033333
v -0.296900 -0.000371 3.350968
v -0.296631 4.729937 0.649032
v -0.296631 4.729937 0.966667
v -0.296631 4.729937 3.033333
v -0.296631 4.729937 3.350968
v -0.296631 5.025204 0.649032
v -0.296631 5.025205 0.966667
v -0.296871 5.216791 1.517204
v -0.296900 5.240109 2.000000
v -0.296871 4.921524 1.517204
v -0.296900 4.944843 2.000000
v -0.296871 4.921524 2.482796
v -0.296871 5.216790 2.482796
v -0.296631 5.025204 3.033333
v -0.296631 5.025203 3.350968
v -0.423634 5.216632 1.517204
v -0.423663 5.239950 2.000000
v -0.423634 4.921365 1.517204
v -0.423663 4.944684 2.000000
v -0.423634 4.921365 2.482796
v -0.423634 5.216631 2.482796
vt 0.725336 0.669480
vt 0.725563 0.669480
vt 0.725336 0.669480
vt 0.725563 0.669480
vt 0.725336 0.669480
vt 0.725563 0.669480
vt 0.725336 0.669480
vt 0.725563 0.669480
vt 0.801337 0.611567
vt 0.762026 0.611567
vt 0.762026 0.538854
vt 0.801337 0.538854
vt 0.762025 0.992685
vt 0.762023 0.809744
vt 0.801334 0.809744
vt 0.801336 0.992685
vt 0.742786 0.992685
vt 0.742784 0.809744
vt 0.709441 0.992685
vt 0.709441 0.821528
vt 0.680198 0.992685
vt 0.680199 0.822962
vt 0.650956 0.992685
vt 0.650956 0.821528
vt 0.617610 0.992685
vt 0.617608 0.809744
vt 0.598372 0.992685
vt 0.598369 0.809744
vt 0.559060 0.992685
vt 0.559058 0.809744
vt 0.598372 0.538854
vt 0.598372 0.611567
vt 0.559061 0.611567
vt 0.559061 0.538854
vt 0.620784 0.538832
vt 0.620784 0.611544
vt 0.601545 0.611544
vt 0.601545 0.538832
vt 0.765199 0.538832
vt 0.765199 0.611544
vt 0.745960 0.611544
vt 0.745960 0.538832
vt 0.598369 0.791584
vt 0.559058 0.791584
vt 0.559061 0.647869
vt 0.598372 0.647869
vt 0.620781 0.791561
vt 0.601542 0.791561
vt 0.601545 0.647846
vt 0.620784 0.647846
vt 0.765196 0.791561
vt 0.745957 0.791561
vt 0.745960 0.647846
vt 0.765199 0.647846
vt 0.801334 0.791584
vt 0.762023 0.791584
vt 0.762026 0.647869
vt 0.801337 0.647869
vt 0.763528 0.534091
vt 0.763528 0.506690
vt 0.802839 0.506690
vt 0.802840 0.534091
vt 0.802839 0.643761
vt 0.763528 0.643761
vt 0.763528 0.617886
vt 0.802839 0.617886
vt 0.599875 0.617886
vt 0.599874 0.643761
vt 0.560563 0.643761
vt 0.560563 0.617886
vt 0.560564 0.506690
vt 0.599875 0.506690
vt 0.599875 0.534091
vt 0.560563 0.534091
vt 0.603048 0.534069
vt 0.603048 0.506667
vt 0.622286 0.506667
vt 0.622286 0.534069
vt 0.622286 0.617863
vt 0.622286 0.643739
vt 0.603047 0.643739
vt 0.603047 0.617863
vt 0.766701 0.617863
vt 0.766701 0.643739
vt 0.747462 0.643739
vt 0.747462 0.617863
vt 0.747462 0.534069
vt 0.747463 0.506667
vt 0.766701 0.506667
vt 0.766701 0.534069
vt 0.620781 0.809722
vt 0.601542 0.809722
vt 0.654129 0.803345
vt 0.654129 0.821505
vt 0.684726 0.822930
vt 0.655483 0.821496
vt 0.655484 0.803335
vt 0.684727 0.804770
vt 0.713969 0.803335
vt 0.713969 0.821495
vt 0.765196 0.809722
vt 0.745957 0.809722
vt 0.712614 0.821505
vt 0.712614 0.803345
vt 0.730160 0.762747
vt 0.743916 0.762857
vt 0.743916 0.775555
vt 0.730160 0.775446
vt 0.706718 0.761195
vt 0.706718 0.773893
vt 0.685857 0.760863
vt 0.685857 0.773561
vt 0.706718 0.779315
vt 0.685857 0.778983
vt 0.664899 0.760863
vt 0.664899 0.773561
vt 0.664899 0.778983
vt 0.640655 0.762037
vt 0.640655 0.774735
vt 0.626899 0.761928
vt 0.626899 0.774626
vt 0.672129 0.744348
vt 0.689542 0.744313
vt 0.689542 0.755057
vt 0.672129 0.755091
vt 0.707035 0.744313
vt 0.707035 0.755057
vt 0.689542 0.759643
vt 0.672129 0.759678
vt 0.652562 0.744507
vt 0.652562 0.755250
vt 0.727271 0.744434
vt 0.727271 0.755177
vt 0.707035 0.759643
vt 0.650869 0.732553
vt 0.663831 0.732553
vt 0.663838 0.737326
vt 0.650876 0.737326
vt 0.698029 0.733281
vt 0.710991 0.733281
vt 0.710984 0.738746
vt 0.698023 0.738746
vt 0.762026 0.500649
vt 0.801337 0.500649
vt 0.559061 0.500649
vt 0.598373 0.500649
vt 0.601546 0.500626
vt 0.620784 0.500626
vt 0.745960 0.500626
vt 0.765199 0.500626
vt 0.705072 0.511081
vt 0.699780 0.506769
vt 0.710958 0.506752
vt 0.716251 0.511065
vt 0.705072 0.530638
vt 0.716251 0.530622
vt 0.699780 0.534038
vt 0.710958 0.534021
vt 0.699780 0.585935
vt 0.710958 0.585919
vt 0.705072 0.590445
vt 0.716251 0.590429
vt 0.705072 0.608914
vt 0.716251 0.608897
vt 0.699780 0.611846
vt 0.710958 0.611829
vt 0.699770 0.714420
vt 0.710948 0.714404
vt 0.699770 0.727382
vt 0.710948 0.727366
vt 0.681600 0.531376
vt 0.675525 0.535667
vt 0.662725 0.535607
vt 0.668800 0.531316
vt 0.675459 0.555224
vt 0.662659 0.555165
vt 0.681508 0.558644
vt 0.668707 0.558585
vt 0.681332 0.610542
vt 0.668531 0.610482
vt 0.675256 0.615031
vt 0.662456 0.614971
vt 0.675193 0.633499
vt 0.662393 0.633440
vt 0.681244 0.636452
vt 0.668443 0.636392
vt 0.680907 0.739026
vt 0.668107 0.738966
vt 0.657094 0.608914
vt 0.663155 0.611846
vt 0.650354 0.611829
vt 0.644294 0.608897
vt 0.663166 0.714420
vt 0.650366 0.714404
vt 0.657094 0.590445
vt 0.644294 0.590429
vt 0.663166 0.727382
vt 0.650366 0.727365
vt 0.663155 0.585935
vt 0.650354 0.585919
vt 0.663155 0.534038
vt 0.650354 0.534021
vt 0.657094 0.530638
vt 0.644294 0.530622
vt 0.657094 0.511081
vt 0.644294 0.511064
vt 0.663155 0.506769
vt 0.650354 0.506752
vt 0.681687 0.636420
vt 0.686979 0.633488
vt 0.698157 0.633472
vt 0.692865 0.636404
vt 0.686979 0.615019
vt 0.698157 0.615003
vt 0.681676 0.738995
vt 0.692855 0.738978
vt 0.681686 0.610509
vt 0.692865 0.610493
vt 0.681687 0.558612
vt 0.692865 0.558595
vt 0.686979 0.555212
vt 0.698157 0.555196
vt 0.686979 0.535655
vt 0.698157 0.535639
vt 0.681687 0.531343
vt 0.692865 0.531327
vn -1.000000 0.000000 0.000000
vn -1.000000 0.000000 0.000000
vn -1.000000 0.000000 0.000000
vn -1.000000 0.000000 0.000000
vn -1.000000 0.000000 0.000000
vn -1.000000 0.000000 0.000000
vn -1.000000 0.000000 0.000000
vn -1.000000 0.000000 0.000000
vn -0.572797 -0.819697 0.000000
vn -0.572797 -0.819697 0.000000
vn -0.572797 -0.819697 0.000000
vn -0.572797 -0.819697 0.000000
vn -0.482531 0.875879 0.000000
vn -0.482531 0.875879 0.000000
vn -0.482531 0.875879 0.000000
vn -0.482531 0.875879 0.000000
vn -1.000000 -0.000090 -0.000000
vn -1.000000 -0.000085 -0.000000
vn -1.000000 -0.000082 0.000000
vn -1.000000 -0.000090 0.000000
vn -1.000000 0.000000 0.000000
vn -1.000000 0.000000 0.000000
vn -1.000000 0.000000 0.000000
vn -1.000000 0.000000 0.000000
vn -0.429162 0.903228 0.000000
vn -0.429162 0.903228 0.000000
vn -0.429162 0.903228 0.000000
vn -0.429162 0.903228 0.000000
vn -0.590082 -0.807343 0.000000
vn -0.590082 -0.807343 0.000000
vn -0.590082 -0.807343 0.000000
vn -0.590082 -0.807343 0.000000
vn -1.000000 -0.000090 0.000000
vn -1.000000 -0.000082 0.000000
vn -1.000000 -0.000085 0.000000
vn -1.000000 -0.000090 0.000000
vn -0.429162 0.903228 0.000000
vn -0.429162 0.903228 0.000000
vn -0.429162 0.903228 0.000000
vn -0.429162 0.903228 0.000000
vn -1.000000 0.000000 0.000000
vn -1.000000 0.000000 0.000000
vn -1.000000 0.000000 0.000000
vn -1.000000 0.000000 0.000000
vn -0.590082 -0.807343 0.000000
vn -0.590082 -0.807343 0.000000
vn -0.590082 -0.807343 0.000000
vn -0.590082 -0.807343 0.000000
vn -1.000000 0.000000 0.000000
vn -1.000000 0.000000 0.000000
vn -1.000000 0.000000 0.000000
vn -1.000000 0.000000 0.000000
vn -0.482530 0.875879 0.000000
vn -0.482530 0.875879 0.000000
vn -0.482530 0.875879 0.000000
vn -0.482530 0.875879 0.000000
vn -1.000000 0.000000 0.000000
vn -1.000000 0.000000 0.000000
vn -1.000000 0.000000 0.000000
vn -1.000000 0.000000 0.000000
vn -0.572797 -0.819697 0.000000
vn -0.572797 -0.819697 0.000000
vn -0.572797 -0.819697 0.000000
vn -0.572797 -0.819697 0.000000
vn -1.000000 -0.000005 -0.000000
vn -1.000000 -0.000005 0.000000
vn -1.000000 -0.000033 0.000137
vn -1.000000 -0.000030 0.000127
vn -1.000000 -0.000030 -0.000127
vn -1.000000 -0.000033 -0.000137
vn -0.572795 -0.819699 0.000000
vn -0.572795 -0.819699 0.000000
vn -0.572795 -0.819699 0.000000
vn -0.572795 -0.819699 0.000000
vn -1.000000 0.000000 0.000000
vn -1.000000 0.000000 0.000000
vn -1.000000 0.000000 0.000000
vn -1.000000 0.000000 0.000000
vn -0.482529 0.875880 0.000000
vn -0.482529 0.875880 0.000000
vn -0.482529 0.875880 0.000000
vn -0.482529 0.875880 0.000000
vn -1.000000 0.000000 0.000000
vn -1.000000 0.000000 0.000000
vn -1.000000 0.000000 0.000000
vn -1.000000 0.000000 0.000000
vn -0.590079 -0.807346 0.000000
vn -0.590079 -0.807346 0.000000
vn -0.590079 -0.807346 0.000000
vn -0.590079 -0.807346 0.000000
vn -1.000000 0.000000 0.000000
vn -1.000000 0.000000 0.000000
vn -1.000000 0.000000 0.000000
vn -1.000000 0.000000 0.000000
vn -0.429160 0.903228 0.000000
vn -0.429160 0.903228 0.000000
vn -0.429160 0.903228 0.000000
vn -0.429160 0.903228 0.000000
vn -1.000000 -0.000068 -0.000119
vn -1.000000 -0.000066 -0.000131
vn -1.000000 -0.000066 0.000131
vn -1.000000 -0.000068 0.000119
vn -0.429160 0.903228 0.000000
vn -0.429160 0.903228 0.000000
vn -0.429160 0.903228 0.000000
vn -0.429160 0.903228 0.000000
vn -1.000000 0.000000 0.000000
vn -1.000000 0.000000 0.000000
vn -1.000000 0.000000 0.000000
vn -1.000000 0.000000 0.000000
vn -0.590079 -0.807346 0.000000
vn -0.590079 -0.807346 0.000000
vn -0.590079 -0.807346 0.000000
vn -0.590079 -0.807346 0.000000
vn -1.000000 0.000000 0.000000
vn -1.000000 0.000000 0.000000
vn -1.000000 0.000000 0.000000
vn -1.000000 0.000000 0.000000
vn -0.482529 0.875880 0.000000
vn -0.482529 0.875880 0.000000
vn -0.482529 0.875880 0.000000
vn -0.482529 0.875880 0.000000
vn -1.000000 0.000000 0.000000
vn -1.000000 0.000000 0.000000
vn -1.000000 0.000000 0.000000
vn -1.000000 0.000000 0.000000
vn -0.572795 -0.819699 0.000000
vn -0.572795 -0.819699 0.000000
vn -0.572795 -0.819699 0.000000
vn -0.572795 -0.819699 0.000000
vn -1.000000 0.000102 0.000000
vn -1.000000 0.000102 0.000000
vn -1.000000 0.000115 0.000000
vn -1.000000 0.000115 0.000000
vn -1.000000 0.000089 -0.000058
vn -1.000000 0.000102 0.000000
vn -1.000000 0.000115 0.000000
vn -1.000000 0.000115 0.000000
vn -1.000000 0.000102 0.000000
vn -1.000000 0.000089 0.000058
vn -1.000000 0.000115 0.000000
vn -1.000000 0.000115 0.000000
vn -1.000000 0.000102 0.000000
vn -1.000000 0.000102 0.000000
vn -1.000000 0.000115 0.000000
vn -1.000000 0.000115 0.000000
vn -1.000000 0.000000 -0.000295
vn -1.000000 0.000000 0.000000
vn -1.000000 0.000000 -0.000000
vn -1.000000 0.000000 -0.000060
vn -1.000000 0.000000 -0.000060
vn -1.000000 0.000000 -0.000000
vn -1.000000 0.000000 0.000060
vn -1.000000 0.000000 0.000060
vn -1.000000 0.000000 0.000000
vn -1.000000 0.000000 0.000295
vn -1.000000 0.000000 -0.000435
vn -1.000000 0.000000 -0.000435
vn -1.000000 0.000000 0.000435
vn -1.000000 0.000000 0.000435
vn -0.000004 0.000000 -1.000000
vn -0.000004 0.000000 -1.000000
vn -0.000004 0.000000 -1.000000
vn -0.000004 0.000000 -1.000000
vn 0.001251 -0.999999 0.000000
vn 0.001251 -0.999999 0.000000
vn 0.001251 -0.999999 0.000000
vn 0.001251 -0.999999 0.000000
vn -0.000000 0.000000 1.000000
vn -0.000000 0.000000 1.000000
vn -0.000000 0.000000 1.000000
vn -0.000000 0.000000 1.000000
vn -0.000001 0.000000 -1.000000
vn -0.000001 0.000000 -1.000000
vn -0.000001 0.000000 -1.000000
vn -0.000001 0.000000 -1.000000
vn 0.000001 0.000000 1.000000
vn 0.000001 0.000000 1.000000
vn 0.000001 0.000000 1.000000
vn 0.000001 0.000000 1.000000
vn -0.000001 0.000000 1.000000
vn -0.000001 0.000000 1.000000
vn -0.000001 0.000000 1.000000
vn -0.000001 0.000000 1.000000
vn -0.000000 0.000000 -1.000000
vn -0.000000 0.000000 -1.000000
vn -0.000000 0.000000 -1.000000
vn -0.000000 0.000000 -1.000000
vn 0.000001 0.000000 1.000000
vn 0.000001 0.000000 1.000000
vn 0.000001 0.000000 1.000000
vn 0.000001 0.000000 1.000000
vn -0.000000 0.000000 -1.000000
vn -0.000000 0.000000 -1.000000
vn -0.000000 0.000000 -1.000000
vn -0.000000 0.000000 -1.000000
vn -0.000000 0.000000 -1.000000
vn -0.000000 0.000000 -1.000000
vn -0.000000 0.000000 -1.000000
vn -0.000000 0.000000 -1.000000
vn -0.000001 0.000000 1.000000
vn -0.000001 0.000000 1.000000
vn -0.000001 0.000000 1.000000
vn -0.000001 0.000000 1.000000
vn -0.000001 0.000000 1.000000
vn -0.000001 0.000000 1.000000
vn -0.000001 0.000000 1.000000
vn -0.000001 0.000000 1.000000
vn -0.000002 0.000000 -1.000000
vn -0.000002 0.000000 -1.000000
vn -0.000002 0.000000 -1.000000
vn -0.000002 0.000000 -1.000000
vn -0.000001 0.000000 1.000000
vn -0.000001 0.000000 1.000000
vn -0.000001 0.000000 1.000000
vn -0.000001 0.000000 1.000000
vn -0.000001 0.000000 -1.000000
vn -0.000001 0.000000 -1.000000
vn -0.000001 0.000000 -1.000000
vn -0.000001 0.000000 -1.000000
vn -0.000001 0.000000 1.000000
vn -0.000001 0.000000 1.000000
vn -0.000001 0.000000 1.000000
vn -0.000001 0.000000 1.000000
vn 0.000001 0.000000 -1.000000
vn 0.000001 0.000000 -1.000000
vn 0.000001 0.000000 -1.000000
vn 0.000001 0.000000 -1.000000
vn -0.000003 0.000000 1.000000
vn -0.000003 0.000000 1.000000
vn -0.000003 0.000000 1.000000
vn -0.000003 0.000000 1.000000
vn -0.000003 0.000000 -1.000000
vn -0.000003 0.000000 -1.000000
vn -0.000003 0.000000 -1.000000
vn -0.000003 0.000000 -1.000000
vn 0.000001 0.000000 -1.000000
vn 0.000001 0.000000 -1.000000
vn 0.000001 0.000000 -1.000000
vn 0.000001 0.000000 -1.000000
vn 0.000000 0.000000 1.000000
vn 0.000000 0.000000 1.000000
vn 0.000000 0.000000 1.000000
vn 0.000000 0.000000 1.000000
vn 0.000000 0.000000 1.000000
vn 0.000000 0.000000 1.000000
vn 0.000000 0.000000 1.000000
vn 0.000000 0.000000 1.000000
vn -0.000001 0.000000 -1.000000
vn -0.000001 0.000000 -1.000000
vn -0.000001 0.000000 -1.000000
vn -0.000001 0.000000 -1.000000
vn 0.000000 0.000000 1.000000
vn 0.000000 0.000000 1.000000
vn 0.000000 0.000000 1.000000
vn 0.000000 0.000000 1.000000
vn 0.000001 0.000000 -1.000000
vn 0.000001 0.000000 -1.000000
vn 0.000001 0.000000 -1.000000
vn 0.000001 0.000000 -1.000000
vn -0.000001 0.000000 -1.000000
vn -0.000001 0.000000 -1.000000
vn -0.000001 0.000000 -1.000000
vn -0.000001 0.000000 -1.000000
vn 0.000001 0.000000 1.000000
vn 0.000001 0.000000 1.000000
vn 0.000001 0.000000 1.000000
vn 0.000001 0.000000 1.000000
vn 0.000001 0.000000 -1.000000
vn 0.000001 0.000000 -1.000000
vn 0.000001 0.000000 -1.000000
vn 0.000001 0.000000 -1.000000
vn 0.001251 -0.999999 0.000000
vn 0.001251 -0.999999 0.000000
vn 0.001251 -0.999999 0.000000
vn 0.001251 -0.999999 0.000000
vn -0.000003 0.000000 1.000000
vn -0.000003 0.000000 1.000000
vn -0.000003 0.000000 1.000000
vn -0.000003 0.000000 1.000000
vn 0.000000 0.000000 -1.000000
vn 0.000000 0.000000 -1.000000
vn 0.000000 0.000000 -1.000000
vn 0.000000 0.000000 -1.000000
vn 0.000002 0.000000 1.000000
vn 0.000002 0.000000 1.000000
vn 0.000002 0.000000 1.000000
vn 0.000002 0.000000 1.000000
vn 0.000002 0.000000 -1.000000
vn 0.000002 0.000000 -1.000000
vn 0.000002 0.000000 -1.000000
vn 0.000002 0.000000 -1.000000
vn -0.000001 0.000000 1.000000
vn -0.000001 0.000000 1.000000
vn -0.000001 0.000000 1.000000
vn -0.000001 0.000000 1.000000
vn -0.001251 0.999999 -0.000003
vn -0.001251 0.999999 -0.000003
vn -0.001251 0.999999 -0.000003
vn -0.001251 0.999999 -0.000003
vn -0.000001 0.000000 -1.000000
vn -0.000001 0.000000 -1.000000
vn -0.000001 0.000000 -1.000000
vn -0.000001 0.000000 -1.000000
vn -0.001250 0.998835 -0.048242
vn -0.001250 0.998835 -0.048242
vn -0.001250 0.998835 -0.048242
vn -0.001250 0.998835 -0.048242
vn 0.001250 -0.998835 0.048245
vn 0.001250 -0.998835 0.048245
vn 0.001250 -0.998835 0.048245
vn 0.001250 -0.998835 0.048245
vn -0.001250 0.998835 0.048245
vn -0.001250 0.998835 0.048245
vn -0.001250 0.998835 0.048245
vn -0.001250 0.998835 0.048245
vn 0.001250 -0.998835 -0.048245
vn 0.001250 -0.998835 -0.048245
vn 0.001250 -0.998835 -0.048245
vn 0.001250 -0.998835 -0.048245
vn -0.001251 0.999999 0.000003
vn -0.001251 0.999999 0.000003
vn -0.001251 0.999999 0.000003
vn -0.001251 0.999999 0.000003
vn 0.000001 0.000000 1.000000
vn 0.000001 0.000000 1.000000
vn 0.000001 0.000000 1.000000
vn 0.000001 0.000000 1.000000
vn -0.001182 0.944446 -0.328665
vn -0.001182 0.944446 -0.328665
vn -0.001182 0.944446 -0.328665
vn -0.001182 0.944446 -0.328666
vn 0.001182 -0.944445 0.328666
vn 0.001182 -0.944445 0.328666
vn 0.001182 -0.944445 0.328666
vn 0.001182 -0.944445 0.328666
vn -0.001182 0.944446 0.328665
vn -0.001182 0.944446 0.328665
vn -0.001182 0.944446 0.328665
vn -0.001182 0.944446 0.328665
vn 0.001182 -0.944445 -0.328666
vn 0.001182 -0.944445 -0.328666
vn 0.001182 -0.944445 -0.328666
vn 0.001182 -0.944445 -0.328666
vn -0.001251 0.998835 -0.048243
vn -0.001251 0.998835 -0.048243
vn -0.001251 0.998835 -0.048243
vn -0.001251 0.998835 -0.048243
vn -0.000003 0.000000 -1.000000
vn -0.000003 0.000000 -1.000000
vn -0.000003 0.000000 -1.000000
vn -0.000003 0.000000 -1.000000
vn 0.001251 -0.998835 0.048244
vn 0.001251 -0.998835 0.048244
vn 0.001251 -0.998835 0.048244
vn 0.001251 -0.998835 0.048244
vn 0.000003 0.000000 1.000000
vn 0.000003 0.000000 1.000000
vn 0.000003 0.000000 1.000000
vn 0.000003 0.000000 1.000000
vn -0.001251 0.998835 0.048245
vn -0.001251 0.998835 0.048245
vn -0.001251 0.998835 0.048245
vn -0.001251 0.998835 0.048245
vn 0.001251 -0.998835 -0.048244
vn 0.001251 -0.998835 -0.048244
vn 0.001251 -0.998835 -0.048244
vn 0.001251 -0.998835 -0.048244
s off
g SingleDoorway_LP
usemtl initialShadingGroup
f 13/9/1 51/10/2 52/11/3 5/12/4
f 53/59/5 54/60/6 7/61/7 9/62/8
f 54/60/9 55/143/10 1/144/11 7/61/12
f 5/12/13 52/11/14 53/59/15 9/62/16
s 1
f 47/13/17 68/14/18 69/15/19 2/16/20
s off
f 15/63/21 49/64/22 50/65/23 18/66/24
f 11/58/25 48/57/26 49/64/27 15/63/28
f 50/65/29 51/10/30 13/9/31 18/66/32
s 1
f 3/29/33 63/30/34 64/28/35 46/27/36
s off
f 44/68/37 45/46/38 12/45/39 16/69/40
f 43/67/41 44/68/42 16/69/43 17/70/44
f 14/33/45 42/32/46 43/67/47 17/70/48
f 41/31/49 42/32/50 14/33/51 6/34/52
f 40/73/53 41/31/54 6/34/55 10/74/56
f 8/71/57 39/72/58 40/73/59 10/74/60
f 4/145/61 38/146/62 39/72/63 8/71/64
s 1
f 19/21/65 66/22/66 74/20/67 75/19/68
f 70/23/69 71/24/70 66/22/66 19/21/65
s off
f 77/76/71 76/147/72 78/148/73 79/77/74
f 80/75/75 77/76/76 79/77/77 81/78/78
f 81/78/79 82/35/80 83/38/81 80/75/82
f 82/35/83 84/36/84 85/37/85 83/38/86
f 86/82/87 85/37/88 84/36/89 87/79/90
f 87/79/91 88/80/92 89/81/93 86/82/94
f 88/80/95 90/50/96 91/49/97 89/81/98
s 1
f 46/27/36 64/28/35 65/26/99 37/25/100
f 20/17/101 67/18/102 68/14/18 47/13/17
s off
f 93/84/103 92/54/104 94/53/105 95/85/106
f 96/83/107 93/84/108 95/85/109 97/86/110
f 97/86/111 98/41/112 99/40/113 96/83/114
f 100/39/115 99/40/116 98/41/117 101/42/118
f 102/90/119 100/39/120 101/42/121 103/87/122
f 103/87/123 104/88/124 105/89/125 102/90/126
f 104/88/127 106/149/128 107/150/129 105/89/130
s 1
f 57/43/131 56/44/132 12/45/133 45/46/134
s 4
f 109/47/135 108/48/136 91/49/137 90/50/138
s 5
f 111/51/139 110/52/140 94/53/141 92/54/142
s 1
f 62/55/143 61/56/144 48/57/145 11/58/146
f 64/28/35 63/30/34 56/44/132 57/43/131
s 4
f 113/91/147 112/92/148 108/48/136 109/47/135
s 6
f 123/95/149 122/96/150 124/97/151 125/98/152
f 126/99/153 127/100/154 123/95/149 125/98/152
s 5
f 121/101/155 120/102/156 110/52/140 111/51/139
s 1
f 69/15/19 68/14/18 61/56/144 62/55/143
f 37/25/100 65/26/99 71/24/70 70/23/69
s 4
f 116/93/157 114/94/158 113/91/147 109/47/135
s 5
f 120/102/156 119/103/159 118/104/160 110/52/140
s 1
f 75/19/68 74/20/67 67/18/102 20/17/101
s off
f 39/151/161 38/152/162 76/153/163 77/154/164
f 38/3/165 29/2/166 78/6/167 76/5/168
f 29/171/169 30/172/170 79/173/171 78/174/172
f 40/155/173 39/151/174 77/154/175 80/156/176
f 30/172/177 31/175/178 81/176/179 79/173/180
f 31/175/181 32/177/182 82/178/183 81/176/184
f 41/157/185 40/155/186 80/156/187 83/158/188
f 32/177/189 33/179/190 84/180/191 82/178/192
f 42/159/193 41/157/194 83/158/195 85/160/196
f 43/161/197 42/159/198 85/160/199 86/162/200
f 33/179/201 34/181/202 87/182/203 84/180/204
f 34/181/205 35/183/206 88/184/207 87/182/208
f 44/163/209 43/161/210 86/162/211 89/164/212
f 35/183/213 36/185/214 90/186/215 88/184/216
f 45/165/217 44/163/218 89/164/219 91/166/220
f 49/189/221 48/190/222 92/191/223 93/192/224
f 21/209/225 22/210/226 95/211/227 94/212/228
f 50/195/229 49/189/230 93/192/231 96/196/232
f 22/210/233 23/213/234 97/214/235 95/211/236
f 23/213/237 24/217/238 98/218/239 97/214/240
f 51/199/241 50/195/242 96/196/243 99/200/244
f 52/201/245 51/199/246 99/200/247 100/202/248
f 24/217/249 25/219/250 101/220/251 98/218/252
f 53/203/253 52/201/254 100/202/255 102/204/256
f 25/219/257 26/221/258 103/222/259 101/220/260
f 26/221/261 27/223/262 104/224/263 103/222/264
f 54/205/265 53/203/266 102/204/267 105/206/268
f 27/223/269 28/225/270 106/226/271 104/224/272
f 28/1/273 55/4/274 107/8/275 106/7/276
f 55/207/277 54/205/278 105/206/279 107/208/280
f 57/167/281 45/165/282 91/166/283 108/168/284
f 36/185/285 58/187/286 109/188/287 90/186/288
f 60/215/289 21/209/290 94/212/291 110/216/292
f 48/190/293 61/193/294 111/194/295 92/191/296
f 65/105/297 64/106/298 112/107/299 113/108/300
f 64/169/301 57/167/302 108/168/303 112/170/304
f 66/111/305 71/109/306 114/110/307 115/112/308
f 72/122/309 59/123/310 117/124/311 116/125/312
f 74/115/313 66/111/314 115/112/315 119/116/316
f 59/123/317 73/126/318 118/127/319 117/124/320
f 68/120/321 67/118/322 120/119/323 121/121/324
f 61/193/325 68/197/326 121/198/327 111/194/328
f 71/109/329 65/105/330 113/108/331 114/110/332
f 58/130/333 72/122/334 116/125/335 109/131/336
f 67/118/337 74/115/338 119/116/339 120/119/340
f 73/126/341 60/132/342 110/133/343 118/127/344
f 115/112/345 114/110/346 122/113/347 123/114/348
f 114/135/349 116/136/350 124/137/351 122/138/352
f 116/125/353 117/124/354 125/128/355 124/129/356
f 118/139/357 119/140/358 127/141/359 126/142/360
f 119/116/361 115/112/362 123/114/363 127/117/364
f 117/124/365 118/127/366 126/134/367 125/128/368
