# This file uses centimeters as units for non-parametric coordinates.

mtllib SmallWall_LP.mtl
g default
v 0.000000 8.000000 0.000000
v 0.000000 0.000000 0.000000
v 0.000000 0.621185 0.000000
v -0.140567 0.098227 0.000000
v -0.140567 0.543745 0.000000
v 0.000000 2.393654 0.000000
v 0.000000 1.803414 0.000000
v -0.140567 2.326864 0.000000
v -0.140567 1.906153 0.000000
v 0.000000 8.000000 2.000000
v 0.000000 2.393654 2.000000
v -0.140567 2.326864 2.000000
v -0.140567 1.906153 2.000000
v 0.000000 1.803414 2.000000
v 0.000000 0.621185 2.000000
v -0.140567 0.543745 2.000000
v -0.140567 0.098227 2.000000
v 0.000000 0.000000 2.000000
vt 0.025146 0.971631
vt 0.025146 0.028369
vt 0.361644 0.028369
vt 0.361644 0.971631
vt 0.661982 0.028369
vt 0.732766 0.028369
vt 0.732766 0.364867
vt 0.661982 0.364867
vt 0.370099 0.028369
vt 0.569007 0.028369
vt 0.569007 0.364867
vt 0.370099 0.364867
vt 0.578587 0.364867
vt 0.578587 0.028369
vt 0.653545 0.028369
vt 0.653545 0.364867
vt 0.836353 0.028369
vt 0.861238 0.028369
vt 0.861238 0.382435
vt 0.836353 0.382435
vt 0.802237 0.028369
vt 0.827508 0.028369
vt 0.827508 0.387919
vt 0.802237 0.387919
vt 0.741586 0.466421
vt 0.741586 0.028369
vt 0.764089 0.028369
vt 0.764089 0.466421
vt 0.771912 0.472982
vt 0.771912 0.028369
vt 0.793748 0.028369
vt 0.793748 0.472982
vn -1.000000 0.000000 0.000000
vn -1.000000 0.000000 0.000000
vn -1.000000 0.000000 0.000000
vn -1.000000 0.000000 0.000000
vn -0.429161 0.903228 0.000000
vn -0.429161 0.903228 0.000000
vn -0.429161 0.903228 0.000000
vn -0.429161 0.903228 0.000000
vn -1.000000 0.000000 0.000000
vn -1.000000 0.000000 0.000000
vn -1.000000 0.000000 0.000000
vn -1.000000 0.000000 0.000000
vn -0.590081 -0.807344 0.000000
vn -0.590081 -0.807344 0.000000
vn -0.590081 -0.807344 0.000000
vn -0.590081 -0.807344 0.000000
vn -1.000000 -0.000000 0.000000
vn -1.000000 -0.000000 0.000000
vn -1.000000 -0.000000 0.000000
vn -1.000000 -0.000000 0.000000
vn -0.482530 0.875880 0.000000
vn -0.482530 0.875880 0.000000
vn -0.482530 0.875880 0.000000
vn -0.482530 0.875880 0.000000
vn -1.000000 0.000000 0.000000
vn -1.000000 0.000000 0.000000
vn -1.000000 0.000000 0.000000
vn -1.000000 0.000000 0.000000
vn -0.572796 -0.819698 0.000000
vn -0.572796 -0.819698 0.000000
vn -0.572796 -0.819698 0.000000
vn -0.572796 -0.819698 0.000000
s off
g SmallWall_LP
usemtl initialShadingGroup
f 1/1/1 6/2/2 11/3/3 10/4/4
f 12/17/5 11/18/6 6/19/7 8/20/8
f 13/5/9 12/6/10 8/7/11 9/8/12
f 7/25/13 14/26/14 13/27/15 9/28/16
f 15/9/17 14/10/18 7/11/19 3/12/20
f 16/21/21 15/22/22 3/23/23 5/24/24
f 4/13/25 17/14/26 16/15/27 5/16/28
f 2/29/29 18/30/30 17/31/31 4/32/32
