# This file uses centimeters as units for non-parametric coordinates.

mtllib Wall_LP.mtl
g default
v 0.000000 0.000000 4.000000
v 0.000000 8.000000 4.000000
v 0.000000 8.000000 0.000000
v 0.000000 0.000000 0.000000
v 0.000000 0.621185 4.000000
v 0.000000 0.621185 0.000000
v -0.140567 0.098227 4.000000
v -0.140567 0.098227 0.000000
v -0.140567 0.543745 4.000000
v -0.140567 0.543745 0.000000
v 0.000000 2.393654 4.000000
v 0.000000 2.393654 0.000000
v 0.000000 1.803414 4.000000
v 0.000000 1.803414 0.000000
v -0.140567 2.326864 4.000000
v -0.140567 2.326864 0.000000
v -0.140567 1.906153 0.000000
v -0.140567 1.906153 4.000000
vt 0.311904 0.119490
vt 0.065875 0.119490
vt 0.065875 0.046774
vt 0.311904 0.046774
vt 0.065875 0.014608
vt 0.311904 0.014608
vt 0.311904 0.042011
vt 0.065875 0.042011
vt 0.065875 0.008567
vt 0.311904 0.008567
vt 0.065875 0.500626
vt 0.065875 0.155794
vt 0.311904 0.155794
vt 0.311904 0.500626
vt 0.311904 0.151686
vt 0.065875 0.151686
vt 0.065875 0.125809
vt 0.311904 0.125809
vt 0.311904 0.155794
vt 0.065875 0.155794
vt 0.311904 0.119490
vt 0.065875 0.119490
vt 0.311904 0.046774
vt 0.065875 0.046774
vn -1.000000 -0.000000 0.000000
vn -1.000000 -0.000000 0.000000
vn -1.000000 -0.000000 0.000000
vn -1.000000 -0.000000 0.000000
vn -1.000000 0.000000 0.000000
vn -1.000000 0.000000 0.000000
vn -1.000000 0.000000 0.000000
vn -1.000000 0.000000 0.000000
vn -0.572796 -0.819698 0.000000
vn -0.572796 -0.819698 0.000000
vn -0.572796 -0.819698 0.000000
vn -0.572796 -0.819698 0.000000
vn -0.482530 0.875880 0.000000
vn -0.482530 0.875880 0.000000
vn -0.482530 0.875880 0.000000
vn -0.482530 0.875880 0.000000
vn -1.000000 0.000000 0.000000
vn -1.000000 0.000000 0.000000
vn -1.000000 0.000000 0.000000
vn -1.000000 0.000000 0.000000
vn -1.000000 0.000000 0.000000
vn -1.000000 0.000000 0.000000
vn -1.000000 0.000000 0.000000
vn -1.000000 0.000000 0.000000
vn -0.429161 0.903228 0.000000
vn -0.429161 0.903228 0.000000
vn -0.429161 0.903228 0.000000
vn -0.429161 0.903228 0.000000
vn -0.590081 -0.807344 0.000000
vn -0.590081 -0.807344 0.000000
vn -0.590081 -0.807344 0.000000
vn -0.590081 -0.807344 0.000000
s off
g Wall_LP
usemtl initialShadingGroup
f 13/1/1 14/22/2 6/3/3 5/23/4
f 8/5/5 7/6/6 9/7/7 10/8/8
f 4/9/9 1/10/10 7/6/11 8/5/12
f 5/4/13 6/24/14 10/8/15 9/7/16
f 3/11/17 12/12/18 11/19/19 2/14/20
f 15/15/21 16/16/22 17/17/23 18/18/24
f 11/13/25 12/20/26 16/16/27 15/15/28
f 14/2/29 13/21/30 18/18/31 17/17/32
