# This file uses centimeters as units for non-parametric coordinates.

mtllib CornerRoofTrim_LP.mtl
g default
v 0.000000 -0.005453 0.000000
v 3.661051 -0.005453 0.000000
v 3.661051 0.061993 -0.000368
v 3.830525 0.061200 -0.000368
v 4.000000 0.232786 4.000000
v 4.000000 0.232786 -0.001314
v 3.830525 0.232786 -0.001314
v 3.830525 0.232786 4.000000
v 0.000000 -0.005453 3.662995
v 3.661051 -0.005453 3.662811
v 3.661051 0.061993 3.662899
v 3.830525 0.061993 3.662899
v 3.830525 0.232786 3.662811
v 4.000000 0.232786 3.662811
v 3.661051 0.061993 3.830522
v 3.830526 0.061993 3.830522
v 3.830525 0.232786 3.830526
v 4.000000 0.232786 3.830526
v 0.000000 0.060409 3.830531
v 0.000000 0.060409 3.662724
v 3.661050 0.232786 4.000000
v 3.661050 0.232786 3.830527
v 0.000000 0.232786 3.830526
v 0.000000 0.232786 4.000000
vt 0.720724 0.783641
vt 0.010063 0.783641
vt 0.010063 0.750797
vt 0.720724 0.750797
vt 0.753411 0.750797
vt 0.753411 0.783641
vt 0.785251 0.783641
vt 0.785251 0.750797
vt 0.753411 0.717954
vt 0.785251 0.717954
vt 0.753411 0.008453
vt 0.785251 0.008453
vt 0.094672 0.831593
vt 0.094672 0.798750
vt 0.805333 0.798750
vt 0.805333 0.831593
vt 0.838020 0.798750
vt 0.838020 0.831593
vt 0.838020 0.089249
vt 0.805333 0.089249
vt 0.883359 0.041297
vt 0.883666 0.750798
vt 0.850107 0.750798
vt 0.850107 0.041297
vt 0.883359 0.008453
vt 0.850107 0.008453
vt 0.931707 0.751801
vt 0.898455 0.751801
vt 0.898455 0.041140
vt 0.931707 0.041140
vt 0.898455 0.008453
vt 0.931707 0.008453
vt 0.989937 0.008453
vt 0.989937 0.717954
vt 0.977327 0.717954
vt 0.977020 0.008453
vt 0.959720 0.719117
vt 0.946802 0.719117
vt 0.946802 0.008453
vt 0.959720 0.008453
vt 0.719563 0.719114
vt 0.010063 0.719114
vt 0.010063 0.008453
vt 0.719563 0.008453
vn -0.000000 1.000000 -0.000000
vn -0.000000 1.000000 -0.000000
vn -0.000000 1.000000 -0.000000
vn -0.000000 1.000000 -0.000000
vn 0.002339 0.999997 -0.000108
vn 0.002339 0.999997 -0.000108
vn 0.002237 0.999998 -0.000103
vn 0.002237 0.999998 -0.000103
vn -1.000000 0.000000 -0.000000
vn -1.000000 0.000000 -0.000000
vn -1.000000 0.000000 -0.000000
vn -1.000000 0.000000 -0.000000
vn 0.000000 1.000000 -0.000000
vn 0.000000 1.000000 0.000000
vn 0.000000 1.000000 0.000000
vn 0.000000 1.000000 -0.000000
vn -1.000000 -0.000002 -0.000000
vn -1.000000 -0.000002 -0.000000
vn -1.000000 -0.000001 0.000000
vn -1.000000 -0.000001 0.000000
vn -0.000433 1.000000 -0.000000
vn -0.000433 1.000000 -0.000000
vn -0.000433 1.000000 -0.000000
vn -0.000433 1.000000 -0.000000
vn -0.000000 1.000000 -0.000000
vn -0.000000 1.000000 -0.000000
vn -1.000000 0.000000 0.000001
vn -1.000000 0.000000 0.000001
vn 0.000000 1.000000 -0.000000
vn 0.000000 1.000000 -0.000000
vn 0.000000 1.000000 0.000000
vn 0.000000 1.000000 0.000000
vn 0.000000 1.000000 0.000000
vn 0.000000 1.000000 0.000000
vn 0.000000 1.000000 0.000000
vn 0.000000 1.000000 0.000000
vn 0.000000 1.000000 0.000000
vn 0.000000 1.000000 0.000000
vn 0.000000 1.000000 0.000000
vn 0.000000 1.000000 0.000000
vn -0.000001 -0.001377 -0.999999
vn -0.000001 -0.001377 -0.999999
vn -0.000001 -0.001377 -0.999999
vn -0.000001 -0.001377 -0.999999
vn -0.000001 -0.000000 -1.000000
vn -0.000001 -0.000000 -1.000000
vn -0.000001 -0.000000 -1.000000
vn -0.000001 -0.000000 -1.000000
vn -0.000002 0.000026 -1.000000
vn -0.000002 0.000026 -1.000000
vn -0.000002 0.000026 -1.000000
vn -0.000002 0.000026 -1.000000
s off
g CornerRoofTrim_LP
usemtl initialShadingGroup
f 2/41/1 1/42/2 9/43/3 10/44/4
s 1
f 4/13/5 3/14/6 11/15/7 12/16/8
s off
f 3/37/9 2/38/10 10/39/11 11/40/12
s 2
f 14/1/13 6/2/14 7/3/15 13/4/16
s 3
f 7/27/17 4/28/18 12/29/19 13/30/20
s off
f 19/19/21 15/17/22 11/15/23 20/20/24
s 1
f 15/17/25 16/18/26 12/16/8 11/15/7
s 3
f 13/30/20 12/29/19 16/31/27 17/32/28
s 2
f 17/5/29 18/6/30 14/1/13 13/4/16
s off
f 21/10/31 22/9/32 23/11/33 24/12/34
f 8/8/35 17/5/36 22/9/37 21/10/38
s 2
f 5/7/39 18/6/30 17/5/29 8/8/40
s off
f 10/33/41 9/34/42 20/35/43 11/36/44
f 15/21/45 19/22/46 23/23/47 22/24/48
f 16/25/49 15/21/50 22/24/51 17/26/52
