# This file uses centimeters as units for non-parametric coordinates.

mtllib FullCornerRoofTrim_LP.mtl
g default
v 0.336098 0.000000 0.000000
v 0.336098 -0.067248 0.000000
v 0.167009 -0.067248 0.000000
v 0.000000 -0.238239 3.999907
v -0.000000 -0.238239 0.000000
v 0.167009 -0.238239 0.000000
v 0.171940 -0.238239 3.999907
v 0.336098 0.000000 3.678702
v 0.336098 -0.067248 3.670598
v 0.167009 -0.067248 3.670598
v 0.167009 -0.238239 3.670598
v -0.000000 -0.238239 3.670598
v 0.341800 -0.067248 3.848573
v 0.167009 -0.067248 3.848573
v 0.167009 -0.238239 3.840469
v -0.000000 -0.238239 3.840469
v 0.341801 -0.238239 3.999907
v 0.341800 -0.238239 3.840469
v 4.000000 -0.238239 3.840469
v 4.000000 -0.238239 3.999907
v 3.662813 0.000000 0.000000
v 3.661387 0.000000 3.678701
v 3.664615 -0.067248 3.670598
v 3.660338 -0.066457 3.848573
v 3.657487 -0.238239 3.840469
v 3.657487 -0.238239 3.999907
v 3.828060 -0.238239 3.999907
v 3.832991 -0.238239 3.840469
v 3.830526 -0.066060 3.848573
v 3.830525 -0.066060 3.670598
v 3.830525 -0.066654 -0.000000
v 3.830525 -0.238239 3.670598
v 3.830525 -0.238239 0.000000
v 4.000000 -0.238239 0.000000
v 4.000000 -0.238239 3.670598
v 3.663189 -0.066654 -0.000000
vt 0.494976 0.526225
vt 0.494976 0.547990
vt 0.021765 0.547990
vt 0.021765 0.526225
vt 0.000000 0.548763
vt 0.000000 0.526225
vt 0.021765 0.978428
vt 0.000000 0.977848
vt 0.021765 1.000000
vt 0.000000 1.000000
vt 0.494976 0.978235
vt 0.494976 1.000000
vt 0.042193 0.000000
vt 0.515403 0.000000
vt 0.515403 0.021201
vt 0.042193 0.021201
vt 0.020428 0.021201
vt 0.020428 0.000000
vt 0.000000 0.000000
vt 0.000000 0.021870
vt 0.020428 0.043739
vt 0.000000 0.043739
vt 0.020428 0.472437
vt 0.000000 0.472437
vt 0.020428 0.495309
vt 0.000000 0.494641
vt 0.020428 0.516176
vt 0.000000 0.516176
vt 0.042193 0.494975
vt 0.042193 0.516176
vt 0.515403 0.494975
vt 0.515403 0.516176
vt 0.054694 0.031403
vt 0.483777 0.031301
vt 0.483391 0.053469
vt 0.054694 0.053469
vt 0.505929 0.031250
vt 0.506263 0.053469
vt 0.032156 0.031403
vt 0.032156 0.053469
vt 0.032156 0.612301
vt 0.032156 0.590235
vt 0.505366 0.590235
vt 0.505366 0.612301
vt 0.527131 0.590235
vt 0.527131 0.612301
vt 0.975646 0.580257
vt 0.502436 0.580181
vt 0.502436 0.558038
vt 0.975646 0.558038
vt 0.997411 0.580257
vt 0.997411 0.558038
vt 0.032156 0.100972
vt 0.462205 0.100972
vt 0.462591 0.109650
vt 0.032156 0.109650
vt 0.032156 0.090923
vt 0.032156 0.082245
vt 0.505363 0.082245
vt 0.505363 0.090923
vt 0.517542 0.072197
vt 0.044214 0.072197
vt 0.044214 0.063593
vt 0.517542 0.063517
vt 0.526553 0.000000
vt 0.956796 0.000000
vt 0.956603 0.473210
vt 0.526553 0.473210
vn 0.000000 -1.000000 0.000000
vn 0.000000 -1.000000 0.000000
vn 0.000000 -1.000000 0.000000
vn 0.000000 -1.000000 0.000000
vn 0.000000 -1.000000 -0.000000
vn 0.000000 -1.000000 -0.000000
vn 0.000000 -1.000000 -0.000000
vn 0.000000 -1.000000 -0.000000
vn 1.000000 0.000000 -0.000000
vn 1.000000 0.000000 -0.000000
vn 1.000000 0.000000 -0.000000
vn 1.000000 0.000000 -0.000000
vn 0.000000 -1.000000 0.000000
vn 0.000000 -1.000000 0.000000
vn 0.000000 -1.000000 0.000000
vn 0.000000 -1.000000 0.000000
vn 1.000000 0.000000 0.000000
vn 1.000000 0.000000 0.000000
vn 1.000000 0.000000 0.000000
vn 1.000000 0.000000 0.000000
vn 0.000347 -0.999997 0.002226
vn 0.000334 -0.999998 0.002226
vn 0.000119 -0.999998 0.002223
vn 0.000119 -0.999998 0.002223
vn 0.000000 -1.000000 0.000000
vn 0.000000 -1.000000 0.000000
vn 1.000000 0.000000 0.000000
vn 1.000000 0.000000 0.000000
vn 0.000000 -1.000000 0.000000
vn 0.000000 -1.000000 0.000000
vn 0.000000 -1.000000 0.000000
vn 0.000000 -1.000000 0.000000
vn 0.000000 -1.000000 0.000000
vn 0.000000 -1.000000 0.000000
vn 0.000000 -1.000000 0.000000
vn 0.000000 -1.000000 0.000000
vn 0.000000 -1.000000 0.000000
vn 0.000000 -1.000000 0.000000
vn 0.000000 -1.000000 0.000000
vn 0.000000 -1.000000 0.000000
vn -0.000000 0.119638 -0.992818
vn -0.000000 0.119638 -0.992818
vn -0.000000 0.119638 -0.992818
vn -0.000000 0.119638 -0.992818
vn -0.000006 0.047231 -0.998884
vn -0.000008 0.047223 -0.998884
vn -0.000008 0.047223 -0.998884
vn -0.000006 0.047231 -0.998884
vn 0.000000 0.047340 -0.998879
vn 0.000000 0.047340 -0.998879
vn 0.000000 0.047340 -0.998879
vn 0.000000 0.047340 -0.998879
vn 0.000000 -1.000000 -0.000000
vn 0.000000 -1.000000 -0.000000
vn 0.000000 -1.000000 -0.000000
vn 0.000000 -1.000000 -0.000000
vn 0.000000 -1.000000 -0.000000
vn 0.000000 -1.000000 -0.000000
vn 0.000000 -1.000000 -0.000000
vn 0.000000 -1.000000 -0.000000
vn 0.000000 -1.000000 0.000000
vn 0.000000 -1.000000 0.000000
vn 0.000000 -1.000000 0.000000
vn 0.000000 -1.000000 0.000000
vn -0.698400 0.028813 -0.715127
vn -0.725445 0.027333 -0.687737
vn 0.004713 -0.999986 0.002280
vn 0.004713 -0.999986 0.002280
vn 0.003564 -0.999994 -0.000001
vn 0.003564 -0.999994 -0.000001
vn 0.003564 -0.999994 -0.000001
vn 0.003564 -0.999994 -0.000001
vn -1.000000 0.000000 0.000000
vn -1.000000 0.000000 0.000000
vn -1.000000 0.000000 0.000000
vn -1.000000 0.000000 0.000000
vn -0.999638 -0.026898 -0.000002
vn -0.999638 -0.026898 -0.000002
vn -0.999638 -0.026898 -0.000002
vn -0.999638 -0.026898 -0.000002
vn -0.999948 -0.007327 0.007088
vn -0.999948 -0.007327 0.007088
s off
g FullCornerRoofTrim_LP
usemtl initialShadingGroup
f 1/65/1 21/66/2 22/67/3 8/68/4
s 1
f 3/1/5 2/2/6 9/3/7 10/4/8
s off
f 2/57/9 1/58/10 8/59/11 9/60/12
s 2
f 12/13/13 5/14/14 6/15/15 11/16/16
s 3
f 6/41/17 3/42/18 10/43/19 11/44/20
s 4
f 23/7/21 24/8/22 13/5/23 9/3/24
s 1
f 13/5/25 14/6/26 10/4/8 9/3/7
s 3
f 11/44/20 10/43/19 14/45/27 15/46/28
s 2
f 15/17/29 16/18/30 12/13/13 11/16/16
s 5
f 17/22/31 18/21/32 25/23/33 26/24/34
s off
f 7/20/35 15/17/36 18/21/37 17/22/38
s 2
f 4/19/39 16/18/30 15/17/29 7/20/40
s off
f 8/53/41 22/54/42 23/55/43 9/56/44
s 6
f 13/33/45 24/34/46 25/35/47 18/36/48
s off
f 14/39/49 13/33/50 18/36/51 15/40/52
f 32/29/53 33/31/54 34/32/55 35/30/56
f 19/27/57 28/25/58 32/29/59 35/30/60
s 5
f 27/26/61 28/25/62 19/27/63 20/28/64
f 26/24/34 25/23/33 28/25/62 27/26/61
s 6
f 25/35/47 24/34/46 29/37/65 28/38/66
s 4
f 30/9/67 29/10/68 24/8/22 23/7/21
s off
f 23/7/69 36/11/70 31/12/71 30/9/72
f 30/47/73 31/48/74 33/49/75 32/50/76
f 22/61/77 21/62/78 36/63/79 23/64/80
s 6
f 29/51/65 30/47/81 32/50/82 28/52/66
