# This file uses centimeters as units for non-parametric coordinates.

mtllib HallwayRoofTrim_LP.mtl
g default
v 3.666161 0.000917 0.000029
v 3.660606 0.000932 4.002277
v 3.660798 -0.065722 4.002645
v 3.665976 -0.066330 0.000026
v 3.835067 -0.066796 0.000032
v 3.828134 -0.066183 4.002877
v 4.001607 -0.238245 0.000025
v 3.997133 -0.238232 4.004058
v 3.827659 -0.237765 4.003823
v 3.834597 -0.237784 0.000031
v 0.339459 0.010095 -0.008672
v 0.333908 0.010110 4.000006
v 0.171570 -0.056096 -0.010198
v 0.164633 -0.056670 4.000004
v 0.171103 -0.227677 -0.011144
v 0.164160 -0.227658 4.000004
v -0.002849 -0.227197 4.000000
v 0.001634 -0.227210 -0.012314
v 0.339278 -0.056558 -0.009041
v 0.333721 -0.057137 4.000009
vt 0.894077 0.008090
vt 0.894077 0.795815
vt 0.861722 0.795815
vt 0.861722 0.008090
vt 0.802866 0.008090
vt 0.802866 0.795813
vt 0.769650 0.795813
vt 0.769650 0.008090
vt 0.940112 0.008090
vt 0.940112 0.795815
vt 0.907758 0.795815
vt 0.907758 0.008090
vt 0.666649 0.008090
vt 0.666649 0.795816
vt 0.010063 0.795816
vt 0.010063 0.008090
vt 0.848902 0.008090
vt 0.848902 0.795813
vt 0.815686 0.795813
vt 0.815686 0.008090
vt 0.989937 0.008090
vt 0.989937 0.795822
vt 0.976811 0.795822
vt 0.976811 0.008090
vt 0.757406 0.008090
vt 0.757406 0.795816
vt 0.723615 0.795816
vt 0.723615 0.008090
vt 0.711370 0.008090
vt 0.711370 0.795815
vt 0.677580 0.795815
vt 0.677579 0.008090
vt 0.966919 0.008090
vt 0.966919 0.795813
vt 0.953793 0.795813
vt 0.953793 0.008090
vn -0.002759 -0.999996 0.000000
vn -0.002759 -0.999996 0.000000
vn -0.002759 -0.999996 0.000000
vn -0.002759 -0.999996 0.000000
vn -0.002759 -0.999996 0.000148
vn -0.002759 -0.999996 0.000148
vn -0.002759 -0.999996 0.000148
vn -0.002759 -0.999996 0.000148
vn -0.999999 -0.000057 -0.001341
vn -0.999999 -0.000057 -0.001341
vn -0.999999 -0.000057 -0.001341
vn -0.999999 -0.000057 -0.001341
vn -0.002759 -0.999996 0.000000
vn -0.002759 -0.999996 0.000000
vn -0.002759 -0.999996 0.000000
vn -0.002759 -0.999996 0.000000
vn -0.999995 0.002755 -0.001733
vn -0.999995 0.002755 -0.001733
vn -0.999995 0.002755 -0.001733
vn -0.999995 0.002755 -0.001733
vn -0.002759 -0.999996 -0.000000
vn -0.002759 -0.999996 -0.000000
vn -0.002759 -0.999996 -0.000000
vn -0.002759 -0.999996 -0.000000
vn -0.002758 -0.999996 -0.000148
vn -0.002758 -0.999996 -0.000148
vn -0.002758 -0.999996 -0.000148
vn -0.002758 -0.999996 -0.000148
vn 0.999995 -0.002747 0.001730
vn 0.999995 -0.002747 0.001730
vn 0.999995 -0.002747 0.001730
vn 0.999995 -0.002747 0.001730
vn 0.999995 -0.002753 0.001385
vn 0.999995 -0.002753 0.001385
vn 0.999995 -0.002753 0.001385
vn 0.999995 -0.002753 0.001385
s off
g HallwayRoofTrim_LP
usemtl initialShadingGroup
f 15/1/1 16/2/2 17/3/3 18/4/4
f 5/5/5 6/6/6 3/7/7 4/8/8
f 2/21/9 1/22/10 4/23/11 3/24/12
f 7/9/13 8/10/14 9/11/15 10/12/16
f 6/25/17 5/26/18 10/27/19 9/28/20
f 1/13/21 2/14/22 12/15/23 11/16/24
f 19/17/25 20/18/26 14/19/27 13/20/28
f 13/29/29 14/30/30 16/31/31 15/32/32
f 11/33/33 12/34/34 20/35/35 19/36/36
