# This file uses centimeters as units for non-parametric coordinates.

mtllib InnerCornerRoofTrim_LP.mtl
g default
v 3.662812 -0.028931 4.000000
v 3.662812 -0.095585 4.000000
v 3.830526 -0.095585 3.999999
v 4.000000 -0.267170 4.000000
v 3.830526 -0.267170 4.000000
v 3.662812 -0.028931 8.000000
v 3.662812 -0.095585 8.000000
v 3.830526 -0.095585 8.000000
v 3.830526 -0.267170 8.000000
v 4.000000 -0.267170 8.000000
v 0.000000 -0.028931 4.000000
v 0.000000 -0.028931 8.000000
v 8.000000 -0.028931 3.661051
v 8.000000 -0.095585 3.661051
v 8.000000 -0.095585 3.830525
v 8.000000 -0.267170 4.000000
v 8.000000 -0.267170 3.830525
v 4.000000 -0.028931 3.661051
v 4.000000 -0.095585 3.661051
v 4.000000 -0.095585 3.830525
v 4.000000 -0.267170 3.830525
v 8.000000 -0.028931 0.000000
v 4.000000 -0.028931 0.000000
v 0.000000 -0.028931 0.000000
v 3.662814 -0.028931 3.661051
v 3.662812 -0.095585 3.661051
v 3.830524 -0.095585 3.830526
v 3.830524 -0.267170 3.830525
vt 0.461121 0.477185
vt 0.461121 0.925961
vt 0.442197 0.925961
vt 0.442197 0.477185
vt 0.442197 0.439157
vt 0.461120 0.458171
vt 0.479553 0.439157
vt 0.479553 0.458170
vt 0.928329 0.458170
vt 0.928329 0.439157
vt 0.493068 0.490701
vt 0.493068 0.939475
vt 0.474636 0.939475
vt 0.474636 0.490701
vt 0.474635 0.471687
vt 0.493068 0.471687
vt 0.941842 0.490701
vt 0.941842 0.471687
vt 0.426511 0.463669
vt 0.426511 0.912441
vt 0.015094 0.912441
vt 0.015094 0.463669
vt 0.015094 0.014897
vt 0.463867 0.014897
vt 0.463867 0.425641
vt 0.426511 0.425641
vt 0.912639 0.425641
vt 0.912639 0.014897
vt 0.955802 0.014897
vt 0.963280 0.014897
vt 0.963280 0.463668
vt 0.955802 0.463668
vt 0.963280 0.501695
vt 0.955802 0.501695
vt 0.507074 0.504217
vt 0.526324 0.504217
vt 0.526324 0.952990
vt 0.507074 0.952989
vt 0.526324 0.972003
vt 0.507074 0.972003
vt 0.984906 0.463668
vt 0.977427 0.463668
vt 0.977427 0.014897
vt 0.984906 0.014897
vt 0.984906 0.501024
vt 0.977427 0.501023
vt 0.558763 0.952987
vt 0.539512 0.952987
vt 0.539512 0.504217
vt 0.558763 0.504217
vt 0.558763 0.971419
vt 0.539512 0.971419
vn -1.000000 0.000000 0.000000
vn -1.000000 0.000000 0.000000
vn -1.000000 0.000000 0.000000
vn -1.000000 0.000000 0.000000
vn 0.000000 -1.000000 0.000000
vn 0.000000 -1.000000 0.000000
vn 0.000000 -1.000000 0.000000
vn 0.000000 -1.000000 0.000000
vn -1.000000 0.000001 0.000000
vn -1.000000 0.000001 0.000000
vn -1.000000 0.000001 0.000000
vn -1.000000 0.000001 0.000000
vn 0.000000 -1.000000 0.000000
vn 0.000000 -1.000000 0.000000
vn 0.000000 -1.000000 0.000000
vn 0.000000 -1.000000 0.000000
vn 0.000000 -1.000000 0.000000
vn 0.000000 -1.000000 0.000000
vn 0.000000 -1.000000 0.000000
vn 0.000000 -1.000000 0.000000
vn 0.000000 0.000000 -1.000000
vn 0.000000 0.000000 -1.000000
vn 0.000000 0.000000 -1.000000
vn 0.000000 0.000000 -1.000000
vn 0.000000 -1.000000 0.000000
vn 0.000000 -1.000000 0.000000
vn 0.000000 -1.000000 0.000000
vn 0.000000 -1.000000 0.000000
vn 0.000000 -0.000001 -1.000000
vn 0.000000 -0.000001 -1.000000
vn 0.000000 -0.000001 -1.000000
vn 0.000000 -0.000001 -1.000000
vn 0.000000 -1.000000 0.000000
vn 0.000000 -1.000000 0.000000
vn 0.000000 -1.000000 0.000000
vn 0.000000 -1.000000 0.000000
vn 0.000000 -1.000000 0.000000
vn 0.000000 -1.000000 0.000000
vn 0.000000 -1.000000 0.000000
vn 0.000000 -1.000000 0.000000
vn 0.000000 -1.000000 0.000000
vn 0.000000 -1.000000 0.000000
vn 0.000000 -1.000000 0.000000
vn -1.000000 0.000002 0.000011
vn -1.000000 0.000002 0.000011
vn -0.707109 0.000002 -0.707104
vn -0.707108 0.000002 -0.707105
vn 0.000000 -1.000000 -0.000000
vn 0.000000 -1.000000 -0.000000
vn 0.000000 -1.000000 -0.000000
vn 0.000000 -1.000000 -0.000000
vn -1.000000 0.000016 -0.000004
vn -1.000000 0.000016 -0.000004
vn -0.708940 0.000011 -0.705269
vn -0.708953 0.000011 -0.705256
vn 0.000000 -1.000000 0.000000
vn 0.000000 -1.000000 0.000000
vn 0.000000 -1.000000 0.000000
vn 0.000000 -1.000000 0.000000
vn 0.000000 -1.000000 0.000000
vn 0.000000 -1.000000 0.000000
vn 0.000000 0.000000 -1.000000
vn 0.000000 0.000000 -1.000000
vn 0.000000 -1.000000 0.000000
vn 0.000000 -1.000000 0.000000
vn -0.000002 0.000001 -1.000000
vn -0.000002 0.000001 -1.000000
vn 0.000000 -1.000000 0.000000
s off
g InnerCornerRoofTrim_LP
usemtl initialShadingGroup
f 7/29/1 6/30/2 1/31/3 2/32/4
f 3/1/5 8/2/6 7/3/7 2/4/8
f 9/35/9 8/36/10 3/37/11 5/38/12
f 4/11/13 10/12/14 9/13/15 5/14/16
f 1/19/17 6/20/18 12/21/19 11/22/20
f 19/41/21 18/42/22 13/43/23 14/44/24
f 15/9/25 20/8/26 19/7/27 14/10/28
f 21/47/29 20/48/30 15/49/31 17/50/32
f 16/17/33 4/11/34 21/16/35 17/18/36
f 13/27/37 18/25/38 23/24/39 22/28/40
s 1
f 4/11/41 5/14/42 28/15/43
s 2
f 5/38/44 3/37/45 27/39/46 28/40/47
s 3
f 3/1/48 2/4/49 26/5/50 27/6/51
s 4
f 2/32/52 1/31/53 25/33/54 26/34/55
s off
f 1/19/56 11/22/57 24/23/58 23/24/59 18/25/60 25/26/61
s 4
f 26/45/55 25/46/54 18/42/62 19/41/63
s 3
f 27/6/51 26/5/50 19/7/64 20/8/65
s 2
f 28/51/47 27/52/46 20/48/66 21/47/67
s 1
f 4/11/41 28/15/43 21/16/68
