# This file uses centimeters as units for non-parametric coordinates.

mtllib BlackboardFrame_LP.mtl
g default
v -4.031904 3.475862 -0.029851
v -4.031904 7.337845 -0.000000
v 4.020517 3.475862 -0.029851
v 4.020517 7.337845 0.000000
v -4.329568 3.267626 0.023092
v 4.329568 3.267626 0.023092
v -4.329568 7.554218 0.135964
v 4.329568 7.554218 0.135964
v -4.329568 7.558406 -0.023093
v 4.329568 7.558406 -0.023093
v -4.329568 3.271814 -0.135964
v 4.329568 3.271814 -0.135964
v 4.031904 3.267626 0.023092
v 4.031904 7.554218 0.135964
v 4.031904 7.558406 -0.023093
v 4.031904 3.271814 -0.135964
v -4.031904 3.267626 0.023092
v -4.031904 7.554218 0.135964
v -4.031904 7.558406 -0.023093
v -4.031904 3.271814 -0.135964
v -4.329568 7.301726 -0.029851
v -4.329568 7.297538 0.129205
v -4.031904 7.297538 0.129205
v 4.031904 7.297538 0.129205
v 4.329568 7.297538 0.129205
v 4.329568 7.301726 -0.029851
v 4.031904 7.301726 -0.029851
v -4.031904 7.301726 -0.029851
v -4.329568 3.524305 0.029851
v -4.329568 3.528493 -0.129206
v -4.031904 3.528493 -0.129206
v 4.031904 3.528493 -0.129206
v 4.329568 3.528493 -0.129206
v 4.329568 3.524305 0.029851
v 4.031904 3.524305 0.029851
v -4.031904 3.524305 0.029851
v 3.041945 3.524305 0.029851
v 3.041945 3.267626 0.023092
v 3.041945 3.271814 -0.135964
v 3.041945 3.528493 -0.129206
v -3.041945 3.267626 0.023092
v -3.041945 3.524305 0.029851
v -3.041945 3.528493 -0.129206
v -3.041945 3.271814 -0.135964
v -4.329568 3.395965 0.026472
v -4.329568 3.400153 -0.132585
v -4.031904 3.400153 -0.132585
v -3.041945 3.400153 -0.132585
v 3.041945 3.400153 -0.132585
v 4.031904 3.400153 -0.132585
v 4.329568 3.400153 -0.132585
v 4.329568 3.395965 0.026472
v 4.031904 3.395965 0.026472
v 3.041945 3.395965 0.026472
v -3.041945 3.395965 0.026472
v -4.031904 3.395965 0.026472
v -3.041945 3.279492 -0.427568
v 3.041945 3.279492 -0.427568
v -3.041945 3.407831 -0.424188
v 3.041945 3.407831 -0.424188
v -3.041945 3.277572 -0.354667
v 3.041945 3.277572 -0.354667
v 3.041945 3.405912 -0.351287
v -3.041945 3.405912 -0.351287
v -3.041945 3.273733 -0.208865
v 3.041945 3.273733 -0.208865
v 3.041945 3.402073 -0.205486
v -3.041945 3.402073 -0.205486
v 3.041945 3.433233 -0.350568
v -3.041945 3.433233 -0.350568
v 3.041945 3.435152 -0.423469
v -3.041945 3.435152 -0.423469
vt 0.636147 0.015820
vt 0.903181 0.015870
vt 0.903076 0.571859
vt 0.636043 0.571809
vt 0.020969 0.614547
vt 0.020973 0.593966
vt 0.029850 0.593967
vt 0.029846 0.614549
vt 0.956122 0.614548
vt 0.956119 0.593967
vt 0.967121 0.593965
vt 0.967123 0.614547
vt 0.616228 0.614549
vt 0.616225 0.593967
vt 0.625102 0.593966
vt 0.625105 0.614547
vt 0.934748 0.614549
vt 0.934744 0.593968
vt 0.945746 0.593966
vt 0.945749 0.614548
vt 0.350711 0.624989
vt 0.350712 0.635991
vt 0.341835 0.635991
vt 0.341834 0.624990
vt 0.565393 0.046803
vt 0.576394 0.046802
vt 0.576396 0.055679
vt 0.565394 0.055680
vt 0.029953 0.015821
vt 0.029950 0.036403
vt 0.021073 0.036401
vt 0.021076 0.015820
vt 0.967052 0.036401
vt 0.956051 0.036403
vt 0.956048 0.015821
vt 0.967050 0.015820
vt 0.625005 0.036401
vt 0.616128 0.036403
vt 0.616124 0.015821
vt 0.625001 0.015820
vt 0.945648 0.036401
vt 0.934647 0.036403
vt 0.934643 0.015822
vt 0.945645 0.015820
vt 0.020985 0.525516
vt 0.029862 0.525518
vt 0.616213 0.525517
vt 0.625090 0.525516
vt 0.934732 0.525518
vt 0.945734 0.525516
vt 0.565429 0.325544
vt 0.576430 0.325543
vt 0.576433 0.343296
vt 0.565431 0.343298
vt 0.328610 0.614599
vt 0.328606 0.594017
vt 0.346360 0.594014
vt 0.346364 0.614596
vt 0.346264 0.036450
vt 0.328510 0.036453
vt 0.346260 0.015868
vt 0.328506 0.015871
vt 0.071970 0.625001
vt 0.071971 0.636002
vt 0.054217 0.636003
vt 0.054216 0.625002
vt 0.317568 0.036455
vt 0.299814 0.036451
vt 0.299817 0.015870
vt 0.317571 0.015873
vt 0.317468 0.594019
vt 0.299714 0.594016
vt 0.299710 0.614597
vt 0.317464 0.614601
vt 0.565395 0.064557
vt 0.576397 0.064556
vt 0.607347 0.593969
vt 0.607351 0.614550
vt 0.607247 0.015823
vt 0.607251 0.036404
vt 0.332958 0.624990
vt 0.332958 0.635992
vt 0.038827 0.036404
vt 0.038830 0.015823
vt 0.038723 0.614551
vt 0.038727 0.593969
vt 0.075044 0.307793
vt 0.074996 0.046806
vt 0.085997 0.046804
vt 0.086045 0.307791
vt 0.976909 0.015820
vt 0.987911 0.015821
vt 0.987829 0.573386
vt 0.976828 0.573384
vt 0.636043 0.593204
vt 0.636045 0.582202
vt 0.897032 0.582250
vt 0.897030 0.593252
vt 0.430198 0.627414
vt 0.430331 0.638414
vt 0.361886 0.639238
vt 0.361753 0.628237
vt 0.029937 0.104853
vt 0.021060 0.104851
vt 0.919279 0.621531
vt 0.919411 0.632532
vt 0.850966 0.633355
vt 0.850834 0.622354
vt 0.625017 0.104851
vt 0.616140 0.104853
vt 0.945660 0.104851
vt 0.934659 0.104853
vt 0.596939 0.046799
vt 0.596949 0.467464
vt 0.588072 0.467464
vt 0.588062 0.046799
vt 0.607336 0.525519
vt 0.607263 0.104854
vt 0.038814 0.104854
vt 0.038739 0.525519
vt 0.929690 0.525519
vt 0.929616 0.104854
vt 0.108248 0.046809
vt 0.117125 0.046811
vt 0.117124 0.051854
vt 0.108247 0.051851
vt 0.050060 0.467464
vt 0.050095 0.046800
vt 0.055137 0.046800
vt 0.055103 0.467465
vt 0.519910 0.056208
vt 0.519678 0.047335
vt 0.524719 0.047203
vt 0.524950 0.056077
vt 0.919531 0.104856
vt 0.919605 0.525521
vt 0.914563 0.525522
vt 0.914489 0.104857
vt 0.535032 0.055813
vt 0.534800 0.046939
vt 0.539841 0.046808
vt 0.540072 0.055682
vt 0.548769 0.467471
vt 0.548838 0.046806
vt 0.553881 0.046807
vt 0.553812 0.467472
vt 0.108244 0.061936
vt 0.117121 0.061939
vt 0.117120 0.066981
vt 0.108243 0.066979
vt 0.065188 0.467465
vt 0.065222 0.046801
vt 0.095796 0.467472
vt 0.095775 0.046807
vt 0.097665 0.046807
vt 0.097686 0.467472
vt 0.540122 0.057571
vt 0.535081 0.057703
vt 0.586183 0.467464
vt 0.586172 0.046799
vt 0.119011 0.061939
vt 0.119010 0.066981
vn 0.000000 0.007729 -0.999970
vn 0.000000 0.007729 -0.999970
vn 0.000000 0.007729 -0.999970
vn 0.000000 0.007729 -0.999970
vn 0.000000 -0.026322 0.999654
vn 0.000000 -0.026322 0.999654
vn 0.000000 -0.026322 0.999654
vn 0.000000 -0.026322 0.999654
vn 0.000000 0.999654 0.026318
vn 0.000000 0.999654 0.026321
vn 0.000000 0.999654 0.026321
vn 0.000000 0.999654 0.026318
vn 0.000000 0.026322 -0.999654
vn 0.000000 0.026322 -0.999654
vn 0.000000 0.026322 -0.999654
vn 0.000000 0.026322 -0.999654
vn 0.000000 -0.999654 -0.026321
vn 0.000000 -0.999654 -0.026321
vn 0.000000 -0.999654 -0.026321
vn 0.000000 -0.999654 -0.026321
vn 1.000000 0.000001 0.000000
vn 1.000000 0.000001 0.000000
vn 1.000000 0.000001 0.000000
vn 1.000000 0.000001 0.000000
vn -1.000000 -0.000001 0.000000
vn -1.000000 -0.000001 0.000000
vn -1.000000 -0.000001 0.000000
vn -1.000000 -0.000001 0.000000
vn 0.000000 -0.026322 0.999654
vn 0.000000 -0.026322 0.999654
vn 0.000000 -0.026322 0.999654
vn 0.000000 -0.026322 0.999654
vn 0.000000 0.999654 0.026321
vn 0.000000 0.999654 0.026321
vn 0.000000 0.999654 0.026318
vn 0.000000 0.999654 0.026318
vn 0.000000 0.026322 -0.999654
vn 0.000000 0.026322 -0.999654
vn 0.000000 0.026322 -0.999654
vn 0.000000 0.026322 -0.999654
vn 0.000000 -0.999654 -0.026321
vn 0.000000 -0.999654 -0.026321
vn 0.000000 -0.999654 -0.026321
vn 0.000000 -0.999654 -0.026321
vn 0.000000 -0.026322 0.999654
vn 0.000000 -0.026322 0.999654
vn 0.000000 0.026322 -0.999654
vn 0.000000 0.026322 -0.999654
vn 0.000000 -0.999654 -0.026322
vn 0.000000 -0.999654 -0.026322
vn -1.000000 0.000000 0.000000
vn -1.000000 0.000000 0.000000
vn -1.000000 0.000001 0.000000
vn -1.000000 0.000001 0.000000
vn 0.000000 0.026322 -0.999654
vn 0.000000 0.026322 -0.999654
vn 0.000000 0.026322 -0.999654
vn 0.000000 0.026322 -0.999654
vn 0.000000 0.026322 -0.999654
vn 0.000000 0.026322 -0.999654
vn 0.000000 0.026322 -0.999654
vn 0.000000 0.026322 -0.999654
vn 1.000000 0.000000 0.000000
vn 1.000000 0.000000 0.000000
vn 1.000000 0.000001 0.000000
vn 1.000000 0.000001 0.000000
vn 0.000000 -0.026322 0.999654
vn 0.000000 -0.026322 0.999654
vn 0.000000 -0.026322 0.999654
vn 0.000000 -0.026322 0.999654
vn 0.000000 -0.026322 0.999654
vn 0.000000 -0.026322 0.999654
vn 0.000000 -0.026322 0.999654
vn 0.000000 -0.026322 0.999654
vn -1.000000 0.000000 0.000000
vn -1.000000 0.000000 0.000000
vn 0.000000 0.026322 -0.999654
vn 0.000000 0.026322 -0.999654
vn 0.000000 0.026322 -0.999654
vn 0.000000 0.026322 -0.999654
vn 1.000000 0.000000 0.000000
vn 1.000000 0.000000 0.000000
vn 0.000000 -0.026322 0.999654
vn 0.000000 -0.026322 0.999654
vn 0.000000 -0.026322 0.999654
vn 0.000000 -0.026322 0.999654
vn 1.000000 -0.000000 0.000000
vn 1.000000 -0.000000 0.000000
vn 1.000000 -0.000000 0.000000
vn 1.000000 -0.000000 0.000000
vn 0.000000 -0.999654 -0.026321
vn 0.000000 -0.999654 -0.026321
vn 0.000000 -0.999654 -0.026321
vn 0.000000 -0.999654 -0.026321
vn -1.000000 0.000000 0.000000
vn -1.000000 0.000000 0.000000
vn -1.000000 0.000000 0.000000
vn -1.000000 0.000000 0.000000
vn 0.000000 0.999653 0.026324
vn 0.000000 0.999653 0.026324
vn 0.000000 0.999653 0.026325
vn 0.000000 0.999653 0.026325
vn 0.000000 -0.026322 0.999654
vn 0.000000 -0.026322 0.999654
vn 0.000000 0.999653 0.026325
vn 0.000000 0.999653 0.026325
vn 0.000000 0.999653 0.026324
vn 0.000000 0.999653 0.026324
vn 0.000000 0.026322 -0.999654
vn 0.000000 0.026322 -0.999654
vn 0.000000 -0.999654 -0.026322
vn 0.000000 -0.999654 -0.026322
vn 0.000000 0.026322 -0.999654
vn 0.000000 0.026322 -0.999654
vn 0.000000 0.026322 -0.999654
vn 0.000000 0.026322 -0.999654
vn 0.000000 0.026322 -0.999654
vn 0.000000 0.026322 -0.999654
vn 0.000000 -0.026322 0.999654
vn 0.000000 -0.026322 0.999654
vn 0.000000 -0.999654 -0.026323
vn 0.000000 -0.999654 -0.026323
vn 0.000000 -0.999654 -0.026323
vn 0.000000 -0.999654 -0.026323
vn -1.000000 0.000000 0.000000
vn -1.000000 0.000000 0.000000
vn -1.000000 -0.000000 0.000000
vn -1.000000 -0.000000 0.000000
vn 0.000000 0.999654 0.026323
vn 0.000000 0.999654 0.026323
vn 0.000000 0.999654 0.026321
vn 0.000000 0.999654 0.026321
vn 1.000000 0.000000 0.000000
vn 1.000000 0.000000 0.000000
vn 1.000000 -0.000000 0.000000
vn 1.000000 -0.000000 0.000000
vn 0.000000 -0.999654 -0.026323
vn 0.000000 -0.999654 -0.026323
vn 0.000000 -0.999654 -0.026323
vn 0.000000 -0.999654 -0.026323
vn 1.000000 -0.000000 0.000000
vn 1.000000 -0.000000 0.000000
vn 1.000000 0.000000 0.000000
vn 1.000000 0.000000 0.000000
vn 0.000000 0.999654 0.026318
vn 0.000000 0.999654 0.026318
vn 0.000000 0.999654 0.026318
vn 0.000000 0.999654 0.026318
vn -1.000000 -0.000000 0.000000
vn -1.000000 -0.000000 0.000000
vn -1.000000 0.000000 0.000000
vn -1.000000 0.000000 0.000000
vn 0.000000 0.999654 0.026321
vn 0.000000 0.999654 0.026321
vn 0.000000 -0.026324 0.999654
vn 0.000000 -0.026324 0.999654
vn 0.000000 -0.026324 0.999654
vn 0.000000 -0.026324 0.999654
vn 1.000000 0.000001 0.000000
vn 1.000000 0.000001 0.000000
vn 1.000000 0.000001 0.000000
vn 1.000000 0.000001 0.000000
vn 0.000000 0.026324 -0.999654
vn 0.000000 0.026324 -0.999654
vn 0.000000 0.026324 -0.999654
vn 0.000000 0.026324 -0.999654
vn -1.000000 -0.000001 0.000000
vn -1.000000 -0.000001 0.000000
vn -1.000000 -0.000001 0.000000
vn -1.000000 -0.000001 0.000000
s off
g BlackboardW_Frame_LP
usemtl initialShadingGroup
f 1/1/1 2/2/2 4/3/3 3/4/4
s 1
f 5/5/5 17/6/6 56/7/7 45/8/8
s 2
f 7/9/9 18/10/10 19/11/11 9/12/12
s 3
f 46/13/13 47/14/14 20/15/15 11/16/16
s 4
f 11/17/17 20/18/18 17/19/19 5/20/20
s 5
f 6/21/21 12/22/22 51/23/23 52/24/24
s 6
f 11/25/25 5/26/26 45/27/27 46/28/28
s 1
f 52/29/29 53/30/30 13/31/31 6/32/32
s 2
f 15/33/33 14/34/34 8/35/35 10/36/36
s 3
f 16/37/37 50/38/38 51/39/39 12/40/40
s 4
f 13/41/41 16/42/42 12/43/43 6/44/44
s 1
f 41/45/45 55/46/46 56/7/7 17/6/6
s 2
f 15/33/33 19/11/11 18/10/10 14/34/34
s 3
f 47/14/14 48/47/47 44/48/48 20/15/15
s 4
f 44/49/49 41/50/50 17/19/19 20/18/18
s 6
f 21/51/51 22/52/52 7/53/53 9/54/54
s 3
f 9/55/55 19/56/56 28/57/57 21/58/58
f 27/59/59 28/57/57 19/56/56 15/60/60
f 26/61/61 27/59/59 15/60/60 10/62/62
s 5
f 25/63/63 26/64/64 10/65/65 8/66/66
s 1
f 14/67/67 24/68/68 25/69/69 8/70/70
f 14/67/67 18/71/71 23/72/72 24/68/68
f 22/73/73 23/72/72 18/71/71 7/74/74
s 6
f 30/75/75 29/76/76 22/52/52 21/51/51
s 3
f 31/77/77 30/78/78 21/58/58 28/57/57
f 33/79/79 32/80/80 27/59/59 26/61/61
s 5
f 25/63/63 34/81/81 33/82/82 26/64/64
s 1
f 24/68/68 35/83/83 34/84/84 25/69/69
f 22/73/73 29/85/85 36/86/86 23/72/72
s off
f 23/87/87 36/88/88 31/89/89 28/90/90
f 27/91/91 24/92/92 23/93/93 28/94/94
f 24/95/95 27/96/96 32/97/97 35/98/98
s 14
f 42/99/99 43/100/100 31/101/101 36/102/102
s 1
f 53/30/30 54/103/103 38/104/104 13/31/31
s 14
f 35/105/105 32/106/106 40/107/107 37/108/108
s 3
f 16/37/37 39/109/109 49/110/110 50/38/38
s 4
f 13/41/41 38/111/111 39/112/112 16/42/42
s 1
f 54/103/103 55/46/46 41/45/45 38/104/104
s 14
f 40/107/107 43/100/100 42/99/99 37/108/108
s off
f 58/113/113 57/114/114 59/115/115 60/116/116
s 4
f 38/111/111 41/50/50 44/49/49 39/112/112
s 6
f 46/28/28 45/27/27 29/76/76 30/75/75
s 3
f 30/78/78 31/77/77 47/14/14 46/13/13
f 43/117/117 48/47/47 47/14/14 31/77/77
f 48/47/47 43/117/117 40/118/118 49/110/110
f 50/38/38 49/110/110 40/118/118 32/80/80
f 51/39/39 50/38/38 32/80/80 33/79/79
s 5
f 52/24/24 51/23/23 33/82/82 34/81/81
s 1
f 34/84/84 35/83/83 53/30/30 52/29/29
f 35/83/83 37/119/119 54/103/103 53/30/30
f 42/120/120 55/46/46 54/103/103 37/119/119
f 56/7/7 55/46/46 42/120/120 36/86/86
f 45/8/8 56/7/7 36/86/86 29/85/85
s 15
f 39/112/121 44/49/122 65/121/123 66/122/124
s 16
f 44/123/125 48/124/126 68/125/127 65/126/128
s 17
f 48/127/129 49/128/130 67/129/131 68/130/132
s 18
f 49/131/133 39/132/134 66/133/135 67/134/136
s 15
f 62/135/137 61/136/138 57/137/139 58/138/140
s 18
f 63/139/141 62/140/142 58/141/143 60/142/144
s off
f 70/143/145 69/144/146 71/145/147 72/146/148
s 16
f 61/147/149 64/148/150 59/149/151 57/150/152
s 15
f 62/135/137 66/122/124 65/121/123 61/136/138
s 18
f 63/139/141 67/134/136 66/133/135 62/140/142
s 17
f 64/151/153 68/130/132 67/129/131 63/152/154
s 16
f 61/147/149 65/126/128 68/125/127 64/148/150
s off
f 64/153/155 63/154/156 69/155/157 70/156/158
f 63/139/159 60/142/160 71/157/161 69/158/162
f 60/116/163 59/115/164 72/159/165 71/160/166
f 59/149/167 64/148/168 70/161/169 72/162/170
