# This file uses centimeters as units for non-parametric coordinates.

mtllib DoubleDeskLegs_LP.mtl
g default
v 2.000002 1.541198 -1.409990
v 1.900000 1.541198 -1.409990
v 2.000002 1.541198 -1.526664
v 1.900000 1.541198 -1.526664
v 2.000002 0.000000 -1.409990
v 1.900000 0.000000 -1.409990
v 1.900000 0.000000 -1.526664
v 2.000002 0.000000 -1.526664
v -2.000000 1.541198 -1.524405
v -1.900000 1.541198 -1.528923
v -1.900000 1.541198 -1.409990
v -2.000000 1.541198 -1.409990
v -2.000000 0.000000 -1.524405
v -1.900000 0.000000 -1.528923
v -1.900000 0.000000 -1.409990
v -2.000000 0.000000 -1.409990
v 2.000002 0.154120 -1.409990
v 2.000002 0.154120 -1.526664
v 1.900000 0.154120 -1.526664
v 1.900000 0.154120 -1.409990
v -2.000000 0.154120 -1.524405
v -2.000000 0.154120 -1.409990
v -1.900000 0.154120 -1.409990
v -1.900000 0.154120 -1.528923
v 1.900000 0.154120 0.000000
v 2.000002 0.154120 0.000000
v 1.900000 0.000000 0.000000
v 2.000002 0.000000 0.000000
v -2.000000 0.154120 0.000000
v -1.900000 0.154120 -0.000000
v -2.000000 0.000000 0.000000
v -1.900000 0.000000 -0.000000
v -2.000000 0.154120 -0.140999
v -1.900000 0.154120 -0.140999
v -1.900000 0.000000 -0.140999
v -2.000000 0.000000 -0.140999
v 1.900000 0.154120 -0.140999
v 2.000002 0.154120 -0.140999
v 2.000002 0.000000 -0.140999
v 1.900000 0.000000 -0.140999
vt 0.709477 0.385124
vt 0.199882 0.934351
vt 0.505405 0.027120
vt 0.469210 0.198503
vt 0.135870 0.121957
vt 0.472120 0.229007
vt 0.647983 0.027126
vt 0.025297 0.972854
vt 0.410400 0.972869
vt 0.675179 0.385120
vt 0.135868 0.062928
vt 0.135869 0.086157
vt 0.383299 0.949638
vt 0.647992 0.062926
vt 0.138780 0.191265
vt 0.061097 0.972855
vt 0.558314 0.919125
vt 0.496778 0.129218
vt 0.235673 0.935153
vt 0.236194 0.911906
vt 0.585412 0.941743
vt 0.541205 0.027120
vt 0.682954 0.027119
vt 0.564434 0.027119
vt 0.463392 0.086147
vt 0.093849 0.909821
vt 0.129649 0.909827
vt 0.144601 0.252293
vt 0.093990 0.027130
vt 0.564439 0.354642
vt 0.600239 0.354642
vt 0.607246 0.027124
vt 0.061097 0.909816
vt 0.430640 0.086148
vt 0.640152 0.909810
vt 0.177353 0.252288
vt 0.564439 0.321890
vt 0.061237 0.027124
vt 0.600239 0.321889
vt 0.025437 0.027119
vt 0.430638 0.027119
vt 0.025297 0.909810
vt 0.505410 0.321891
vt 0.174443 0.221783
vt 0.144597 0.229064
vt 0.541211 0.390443
vt 0.430641 0.121948
vt 0.499192 0.086146
vt 0.463393 0.121947
vt 0.174439 0.198554
vt 0.564440 0.390442
vt 0.141687 0.198560
vt 0.469214 0.221732
vt 0.682900 0.385119
vt 0.472124 0.252236
vt 0.675084 0.027119
vt 0.907001 0.911194
vt 0.907529 0.934416
vt 0.174577 0.129258
vt 0.496840 0.221727
vt 0.138777 0.129262
vt 0.709482 0.349323
vt 0.495787 0.198498
vt 0.200403 0.911104
vt 0.732601 0.949652
vt 0.732601 0.972881
vt 0.061098 0.949626
vt 0.499221 0.229002
vt 0.025298 0.949625
vt 0.460981 0.191228
vt 0.499225 0.252231
vt 0.496781 0.191224
vt 0.584884 0.918520
vt 0.496781 0.156844
vt 0.557793 0.942371
vt 0.709532 0.027123
vt 0.383298 0.972868
vt 0.648077 0.385127
vt 0.410401 0.949640
vt 0.138777 0.164164
vt 0.177349 0.229058
vt 0.499192 0.062917
vt 0.607399 0.909816
vt 0.430639 0.062919
vt 0.463392 0.062918
vt 0.639998 0.027119
vt 0.141691 0.221788
vt 0.129790 0.027135
vt 0.541210 0.321890
vt 0.541211 0.354643
vt 0.174581 0.156884
vt 0.138781 0.156889
vt 0.682905 0.349319
vt 0.600234 0.027119
vt 0.675094 0.062919
vt 0.135867 0.027128
vt 0.460978 0.164126
vt 0.496778 0.164122
vn 0.000000 -1.000000 0.000000
vn 0.000000 -1.000000 0.000000
vn 0.000000 -1.000000 0.000000
vn 0.000000 -1.000000 0.000000
vn 0.000000 -1.000000 0.000000
vn 0.000000 -1.000000 0.000000
vn 0.000000 -1.000000 0.000000
vn 0.000000 -1.000000 0.000000
vn 0.000000 0.000000 1.000000
vn 0.000000 0.000000 1.000000
vn 0.000000 0.000000 1.000000
vn 0.000000 0.000000 1.000000
vn -1.000000 0.000000 0.000000
vn -1.000000 0.000000 0.000000
vn -1.000000 0.000000 0.000000
vn -1.000000 0.000000 0.000000
vn 0.000000 0.000000 -1.000000
vn 0.000000 0.000000 -1.000000
vn 0.000000 0.000000 -1.000000
vn 0.000000 0.000000 -1.000000
vn 1.000000 0.000000 0.000000
vn 1.000000 0.000000 0.000000
vn 1.000000 0.000000 0.000000
vn 1.000000 0.000000 0.000000
vn -0.045132 0.000000 -0.998981
vn -0.045132 0.000000 -0.998981
vn -0.045132 0.000000 -0.998981
vn -0.045132 0.000000 -0.998981
vn 1.000000 0.000000 0.000000
vn 1.000000 0.000000 0.000000
vn 1.000000 0.000000 0.000000
vn 1.000000 0.000000 0.000000
vn 0.000001 0.000000 1.000000
vn 0.000001 0.000000 1.000000
vn 0.000001 0.000000 1.000000
vn 0.000001 0.000000 1.000000
vn -1.000000 0.000000 0.000000
vn -1.000000 0.000000 0.000000
vn -1.000000 0.000000 0.000000
vn -1.000000 0.000000 0.000000
vn 1.000000 0.000000 0.000000
vn 1.000000 0.000000 0.000000
vn 0.000000 0.000000 -1.000000
vn 0.000000 0.000000 -1.000000
vn -1.000000 0.000000 0.000000
vn -1.000000 0.000000 0.000000
vn 0.000000 0.000000 1.000000
vn 0.000000 0.000000 1.000000
vn 0.000000 0.000000 1.000000
vn 0.000000 0.000000 1.000000
vn -1.000000 0.000000 0.000000
vn -1.000000 0.000000 0.000000
vn 0.000001 0.000000 1.000000
vn 0.000001 0.000000 1.000000
vn 0.000001 0.000000 1.000000
vn 0.000001 0.000000 1.000000
vn 1.000000 0.000000 0.000000
vn 1.000000 0.000000 0.000000
vn -0.045131 0.000000 -0.998981
vn -0.045131 0.000000 -0.998981
vn 0.000000 1.000000 0.000000
vn 0.000000 1.000000 0.000000
vn 0.000000 1.000000 0.000000
vn 0.000000 1.000000 0.000000
vn -1.000000 0.000000 0.000000
vn -1.000000 0.000000 0.000000
vn -1.000000 0.000000 0.000000
vn -1.000000 0.000000 0.000000
vn 0.000000 -1.000000 0.000000
vn 0.000000 -1.000000 0.000000
vn 0.000000 -1.000000 0.000000
vn 0.000000 -1.000000 0.000000
vn 1.000000 0.000000 0.000000
vn 1.000000 0.000000 0.000000
vn 1.000000 0.000000 0.000000
vn 1.000000 0.000000 0.000000
vn 0.000000 1.000000 0.000000
vn 0.000000 1.000000 0.000000
vn 0.000000 1.000000 0.000000
vn 0.000000 1.000000 0.000000
vn -1.000000 0.000000 0.000000
vn -1.000000 0.000000 0.000000
vn -1.000000 0.000000 0.000000
vn -1.000000 0.000000 0.000000
vn 0.000000 -1.000000 0.000000
vn 0.000000 -1.000000 0.000000
vn 0.000000 -1.000000 0.000000
vn 0.000000 -1.000000 0.000000
vn 1.000000 0.000000 0.000000
vn 1.000000 0.000000 0.000000
vn 1.000000 0.000000 0.000000
vn 1.000000 0.000000 0.000000
vn 0.000000 1.000000 0.000000
vn 0.000000 1.000000 0.000000
vn 0.000000 -1.000000 0.000000
vn 0.000000 -1.000000 0.000000
vn -1.000000 0.000000 0.000000
vn -1.000000 0.000000 0.000000
vn 0.000000 1.000000 0.000000
vn 0.000000 1.000000 0.000000
vn 1.000000 0.000000 0.000000
vn 1.000000 0.000000 0.000000
vn 0.000000 -1.000000 0.000000
vn 0.000000 -1.000000 0.000000
vn -0.000000 0.000000 1.000000
vn -0.000000 0.000000 1.000000
vn -0.000000 0.000000 1.000000
vn -0.000000 0.000000 1.000000
vn 0.000000 1.000000 0.000000
vn 0.000000 1.000000 0.000000
vn 0.000000 1.000000 0.000000
vn 0.000000 1.000000 0.000000
vn 0.000000 0.000000 -1.000000
vn 0.000000 0.000000 -1.000000
vn 0.000000 0.000000 -1.000000
vn 0.000000 0.000000 -1.000000
vn 0.000000 -1.000000 0.000000
vn 0.000000 -1.000000 0.000000
vn 0.000000 -1.000000 0.000000
vn 0.000000 -1.000000 0.000000
vn 0.000000 1.000000 0.000000
vn 0.000000 1.000000 0.000000
vn 0.000000 1.000000 0.000000
vn 0.000000 1.000000 0.000000
vn 0.000000 1.000000 0.000000
vn 0.000000 1.000000 0.000000
vn 0.000000 1.000000 0.000000
vn 0.000000 1.000000 0.000000
s off
g DoubleDeskLegs_LP
usemtl initialShadingGroup
f 13/63/1 14/60/2 15/53/3 16/4/4
f 5/55/5 6/6/6 7/68/7 8/71/8
f 1/9/9 2/79/10 20/65/11 17/66/12
s 1
f 2/10/13 4/78/14 19/14/15 20/95/16
s 2
f 4/13/17 3/77/18 18/16/19 19/67/20
s 3
f 3/15/21 1/80/22 17/97/23 18/70/24
s 4
f 9/17/25 10/75/26 24/19/27 21/20/28
s 5
f 10/18/29 11/74/30 23/91/31 24/59/32
s off
f 11/21/33 12/73/34 22/57/35 23/58/36
s 6
f 12/23/37 9/76/38 21/62/39 22/93/40
s 3
f 18/70/24 17/97/23 5/98/41 8/72/42
s 2
f 19/67/20 18/16/19 8/8/43 7/69/44
s 1
f 20/95/16 19/14/15 7/7/45 6/56/46
s off
f 26/25/47 25/85/48 27/82/49 28/48/50
s 6
f 22/93/40 21/62/39 13/1/51 16/54/52
s off
f 30/90/53 29/30/54 31/51/55 32/46/56
s 5
f 24/59/32 23/91/31 15/92/57 14/61/58
s 4
f 21/20/28 24/19/27 14/2/59 13/64/60
s 7
f 17/12/61 20/11/62 37/84/63 38/34/64
s off
f 20/11/65 6/96/66 40/41/67 37/84/68
s 8
f 6/6/69 5/55/70 39/36/71 40/81/72
s 9
f 5/5/73 17/12/74 38/34/75 39/47/76
s 10
f 23/22/77 22/24/78 33/37/79 34/89/80
s 11
f 22/24/81 16/94/82 36/39/83 33/37/84
s 12
f 16/4/85 15/53/86 35/44/87 36/50/88
s off
f 15/3/89 23/22/90 34/89/91 35/43/92
s 10
f 34/89/80 33/37/79 29/30/93 30/90/94
s 12
f 36/50/88 35/44/87 32/87/95 31/52/96
s 11
f 33/37/84 36/39/83 31/31/97 29/30/98
s 7
f 38/34/64 37/84/63 25/85/99 26/25/100
s 9
f 39/47/76 38/34/75 26/25/101 28/49/102
s 8
f 40/81/72 39/36/71 28/28/103 27/45/104
s off
f 27/27/105 25/26/106 30/29/107 32/88/108
f 25/26/109 37/33/110 34/38/111 30/29/112
f 37/33/113 40/42/114 35/40/115 34/38/116
f 40/35/117 27/83/118 32/32/119 35/86/120
f 12/73/121 11/21/122 10/75/123 9/17/124
f 4/13/125 2/79/126 1/9/127 3/77/128
