# This file uses centimeters as units for non-parametric coordinates.

mtllib MainShelfPart_LP.mtl
g default
v -2.000000 0.000000 0.524058
v 2.000000 0.000000 0.524058
v -2.000000 1.528558 0.524058
v 2.000000 1.528558 0.524058
v -2.000000 1.528558 -0.475942
v 2.000000 1.528558 -0.475942
v -2.000000 0.000000 -0.475942
v 2.000000 0.000000 -0.475942
v 0.000000 0.000000 0.524058
v 0.000000 1.528558 0.524058
v 0.000000 1.528558 -0.475942
v 0.000000 0.000000 -0.475942
v -1.890984 0.000000 0.524058
v -1.890984 1.528558 0.524058
v -1.890984 1.528558 -0.475942
v -1.890984 0.000000 -0.475942
v 1.887507 0.000000 0.524058
v 1.887507 1.528558 0.524058
v 1.887507 1.528558 -0.475942
v 1.887507 0.000000 -0.475942
v -2.000000 0.764279 0.524058
v -2.000000 0.764279 -0.475942
v -1.890984 0.764279 -0.475942
v 0.000000 0.764279 -0.475942
v 1.887507 0.764279 -0.475942
v 2.000000 0.764279 -0.475942
v 2.000000 0.764279 0.524058
v 1.887507 0.764279 0.524058
v 0.000000 0.764279 0.524058
v -1.890984 0.764279 0.524058
v -2.000000 1.413916 -0.475942
v -2.000000 1.413916 0.524058
v -1.890984 1.413916 0.524058
v 0.000000 1.413916 0.524058
v 1.887507 1.413916 0.524058
v 2.000000 1.413916 0.524058
v 2.000000 1.413916 -0.475942
v 1.887507 1.413916 -0.475942
v 0.000000 1.413916 -0.475942
v -1.890984 1.413916 -0.475942
v -2.000000 0.649637 0.524058
v -2.000000 0.649637 -0.475942
v -1.890984 0.649637 -0.475942
v 0.000000 0.649637 -0.475942
v 1.887507 0.649637 -0.475942
v 2.000000 0.649637 -0.475942
v 2.000000 0.649637 0.524058
v 1.887507 0.649637 0.524058
v 0.000000 0.649637 0.524058
v -1.890984 0.649637 0.524058
v -1.890984 1.413916 -0.279521
v 0.000000 1.413916 -0.279521
v -1.890984 0.764279 -0.279521
v 0.000000 0.764279 -0.279521
v 1.887507 1.413916 -0.279521
v 1.887507 0.764279 -0.279521
v 1.887507 0.649637 -0.279521
v 0.000000 0.649637 -0.279521
v 0.000000 0.000000 -0.279521
v 1.887507 0.000000 -0.279521
v -1.890984 0.649637 -0.279521
v -1.890984 0.000000 -0.279521
v -2.000000 0.007398 0.524058
v -2.000000 0.007398 -0.475942
v -1.890984 0.007398 -0.475942
v 0.000000 0.007398 -0.475942
v 1.887507 0.007398 -0.475942
v 2.000000 0.007398 -0.475942
v 2.000000 0.007398 0.524058
v 1.887507 0.007398 0.524058
v 1.887507 0.007398 -0.279521
v 0.000000 0.007398 -0.279521
v -1.890984 0.007398 -0.279521
v -1.890984 0.007398 0.524058
vt 0.558088 0.200875
vt 0.756376 0.015853
vt 0.756362 0.094502
vt 0.636737 0.200888
vt 0.743145 0.200907
vt 0.756343 0.200909
vt 0.201620 0.015862
vt 0.743124 0.321973
vt 0.743105 0.428381
vt 0.095212 0.015871
vt 0.016563 0.015878
vt 0.743091 0.507030
vt 0.532356 0.507032
vt 0.347252 0.200937
vt 0.425902 0.200925
vt 0.532344 0.428383
vt 0.029014 0.941109
vt 0.028989 0.712596
vt 0.107638 0.712587
vt 0.764748 0.015854
vt 0.201640 0.244796
vt 0.322706 0.244786
vt 0.322725 0.473299
vt 0.545928 0.200907
vt 0.016583 0.244812
vt 0.095232 0.244805
vt 0.545912 0.094499
vt 0.545900 0.015850
vt 0.764769 0.551951
vt 0.872306 0.483633
vt 0.862037 0.094499
vt 0.969508 0.941099
vt 0.532328 0.321975
vt 0.532309 0.200909
vt 0.743121 0.335853
vt 0.743147 0.187028
vt 0.756319 0.335855
vt 0.187760 0.244797
vt 0.187780 0.473311
vt 0.532307 0.187030
vt 0.518448 0.321978
vt 0.198553 0.517370
vt 0.427066 0.517367
vt 0.656001 0.517365
vt 0.650595 0.321957
vt 0.650616 0.200891
vt 0.969558 0.015861
vt 0.526598 0.703674
vt 0.656001 0.614651
vt 0.872271 0.015850
vt 0.872246 0.244785
vt 0.755112 0.703632
vt 0.119904 0.614656
vt 0.119904 0.517370
vt 0.532342 0.414504
vt 0.532295 0.108381
vt 0.109131 0.473318
vt 0.109111 0.244804
vt 0.756306 0.414504
vt 0.969533 0.244795
vt 0.862046 0.323013
vt 0.969550 0.712586
vt 0.743177 0.016746
vt 0.743091 0.506135
vt 0.017459 0.015877
vt 0.017478 0.244812
vt 0.545900 0.016746
vt 0.348148 0.200937
vt 0.532356 0.506137
vt 0.862034 0.016746
vt 0.106768 0.941101
vt 0.106743 0.712587
vt 0.764772 0.629705
vt 0.756375 0.016748
vt 0.862058 0.629701
vt 0.558984 0.200875
vt 0.106717 0.483653
vt 0.764748 0.016750
vt 0.545975 0.506135
vt 0.348167 0.322003
vt 0.532281 0.016748
vt 0.017498 0.473325
vt 0.756289 0.506137
vt 0.558962 0.321941
vt 0.028964 0.483661
vt 0.764751 0.094503
vt 0.425920 0.321992
vt 0.532281 0.015852
vt 0.558067 0.321941
vt 0.743164 0.094499
vt 0.764760 0.323017
vt 0.872222 0.473298
vt 0.755097 0.624983
vt 0.198554 0.614656
vt 0.526583 0.625025
vt 0.427067 0.614654
vt 0.734651 0.614651
vt 0.297649 0.625068
vt 0.297664 0.703717
vt 0.439799 0.321990
vt 0.532293 0.094501
vt 0.636716 0.321955
vt 0.743161 0.108379
vt 0.518430 0.200911
vt 0.439781 0.200923
vt 0.532330 0.335855
vt 0.729266 0.200905
vt 0.729244 0.321971
vt 0.743107 0.414502
vt 0.347271 0.322004
vt 0.743177 0.015850
vt 0.983412 0.244797
vt 0.862055 0.551947
vt 0.336585 0.244785
vt 0.336605 0.473298
vt 0.983437 0.015862
vt 0.983387 0.473310
vt 0.545963 0.428381
vt 0.016602 0.473325
vt 0.756289 0.507033
vt 0.756359 0.108381
vt 0.734650 0.517365
vt 0.545961 0.414502
vt 0.969508 0.473309
vt 0.095251 0.473319
vt 0.756303 0.428383
vt 0.187741 0.015863
vt 0.109092 0.015870
vt 0.545926 0.187028
vt 0.545914 0.108379
vt 0.545949 0.335853
vt 0.545947 0.321973
vt 0.756346 0.187030
vt 0.336566 0.015850
vt 0.322686 0.015851
vt 0.201659 0.473310
vt 0.545975 0.507030
vt 0.756322 0.321976
vt 0.862058 0.630596
vt 0.764772 0.630600
vt 0.107613 0.483653
vt 0.872264 0.712568
vt 0.969592 0.483651
vt 0.872222 0.941081
vt 0.107663 0.941101
vt 0.862034 0.015850
vn 0.000000 0.000008 1.000000
vn 0.000000 0.000008 1.000000
vn 0.000000 0.000000 1.000000
vn 0.000000 0.000000 1.000000
vn 0.000000 1.000000 0.000000
vn 0.000000 1.000000 0.000000
vn 0.000000 1.000000 0.000000
vn 0.000000 1.000000 0.000000
vn 0.000000 0.000000 -1.000000
vn 0.000000 0.000000 -1.000000
vn 0.000000 0.000000 -1.000000
vn 0.000000 0.000000 -1.000000
vn 1.000000 0.000000 0.000000
vn 1.000000 0.000000 0.000000
vn 1.000000 0.000000 0.000000
vn 1.000000 0.000000 0.000000
vn -1.000000 0.000000 0.000000
vn -1.000000 0.000000 0.000000
vn -1.000000 0.000000 0.000000
vn -1.000000 0.000000 0.000000
vn 0.000000 0.000000 1.000000
vn 0.000000 0.000000 1.000000
vn 0.000000 0.000000 1.000000
vn 0.000000 0.000000 1.000000
vn 0.000000 1.000000 0.000000
vn 0.000000 1.000000 0.000000
vn 0.000000 1.000000 0.000000
vn 0.000000 1.000000 0.000000
vn 0.000000 0.000000 -1.000000
vn 0.000000 0.000000 -1.000000
vn 0.000000 0.000000 -1.000000
vn 0.000000 0.000000 -1.000000
vn 0.000000 0.000000 1.000000
vn 0.000000 0.000000 1.000000
vn 0.000000 -0.000000 1.000000
vn 0.000000 -0.000000 1.000000
vn 0.000000 0.000008 1.000000
vn 0.000000 0.000008 1.000000
vn 0.000000 1.000000 0.000000
vn 0.000000 1.000000 0.000000
vn 0.000000 0.000000 -1.000000
vn 0.000000 0.000000 -1.000000
vn -1.000000 0.000000 0.000000
vn -1.000000 0.000000 0.000000
vn -1.000000 0.000000 0.000000
vn -1.000000 0.000000 0.000000
vn 0.000000 0.000000 -1.000000
vn 0.000000 0.000000 -1.000000
vn 0.000000 0.000000 -1.000000
vn 0.000000 0.000000 -1.000000
vn 0.000000 0.000000 -1.000000
vn 0.000000 0.000000 -1.000000
vn 0.000000 0.000000 -1.000000
vn 0.000000 0.000000 -1.000000
vn 0.000000 0.000000 -1.000000
vn 0.000000 0.000000 -1.000000
vn 1.000000 0.000000 0.000000
vn 1.000000 0.000000 0.000000
vn 1.000000 0.000000 0.000000
vn 1.000000 0.000000 0.000000
vn 0.000000 0.000000 1.000000
vn 0.000000 0.000000 1.000000
vn 0.000000 0.000000 1.000000
vn 0.000000 0.000000 1.000000
vn 0.000000 0.000000 1.000000
vn 0.000000 0.000000 1.000000
vn 0.000000 0.000000 1.000000
vn 0.000000 0.000000 1.000000
vn 0.000000 0.000000 1.000000
vn 0.000000 0.000000 1.000000
vn -1.000000 0.000000 0.000000
vn -1.000000 0.000000 0.000000
vn 0.000000 0.000000 1.000000
vn 0.000000 0.000000 1.000000
vn 0.000000 0.000000 1.000000
vn 0.000000 0.000000 1.000000
vn 0.000000 0.000000 1.000000
vn 0.000000 0.000000 1.000000
vn 0.000000 0.000000 1.000000
vn 0.000000 0.000000 1.000000
vn 0.000000 0.000000 1.000000
vn 0.000000 0.000000 1.000000
vn 1.000000 0.000000 0.000000
vn 1.000000 0.000000 0.000000
vn 0.000000 0.000000 -1.000000
vn 0.000000 0.000000 -1.000000
vn 0.000000 0.000000 -1.000000
vn 0.000000 0.000000 -1.000000
vn 0.000000 0.000000 -1.000000
vn -1.000000 0.000000 0.000000
vn -1.000000 0.000000 0.000000
vn 0.000000 0.000000 -1.000000
vn 0.000000 0.000000 -1.000000
vn 0.000000 0.000000 -1.000000
vn 0.000000 0.000000 -1.000000
vn 0.000000 0.000000 -1.000000
vn 1.000000 0.000000 0.000000
vn 1.000000 0.000000 0.000000
vn 0.000000 -0.000000 1.000000
vn 0.000000 -0.000000 1.000000
vn 0.000000 0.000000 1.000000
vn 0.000000 0.000000 1.000000
vn 0.000000 -0.000000 1.000000
vn 0.000000 -0.000000 1.000000
vn 0.000000 -1.000000 0.000000
vn 0.000000 -1.000000 0.000000
vn 0.000000 -1.000000 0.000000
vn 0.000000 -1.000000 0.000000
vn 1.000000 0.000000 0.000000
vn 1.000000 0.000000 0.000000
vn 1.000000 0.000000 0.000000
vn 1.000000 0.000000 0.000000
vn 0.000000 1.000000 0.000000
vn 0.000000 1.000000 0.000000
vn 0.000000 1.000000 0.000000
vn 0.000000 1.000000 0.000000
vn 0.000000 -1.000000 0.000000
vn 0.000000 -1.000000 0.000000
vn 0.000000 -1.000000 0.000000
vn 0.000000 -1.000000 0.000000
vn 0.000000 1.000000 0.000000
vn 0.000000 1.000000 0.000000
vn 0.000000 1.000000 0.000000
vn 0.000000 1.000000 0.000000
vn -1.000000 0.000000 0.000000
vn -1.000000 0.000000 0.000000
vn -1.000000 0.000000 0.000000
vn -1.000000 0.000000 0.000000
vn 0.000000 -1.000000 0.000000
vn 0.000000 -1.000000 0.000000
vn 0.000000 -1.000000 0.000000
vn 0.000000 -1.000000 0.000000
vn 0.000000 1.000000 0.000000
vn 0.000000 1.000000 0.000000
vn 0.000000 1.000000 0.000000
vn 0.000000 1.000000 0.000000
vn -1.000000 0.000000 0.000000
vn -1.000000 0.000000 0.000000
vn -1.000000 0.000000 0.000000
vn -1.000000 0.000000 0.000000
vn 0.000000 -1.000000 0.000000
vn 0.000000 -1.000000 0.000000
vn 0.000000 -1.000000 0.000000
vn 0.000000 -1.000000 0.000000
vn 1.000000 0.000000 0.000000
vn 1.000000 0.000000 0.000000
vn 1.000000 0.000000 0.000000
vn 1.000000 0.000000 0.000000
vn 0.000000 1.000000 0.000000
vn 0.000000 1.000000 0.000000
vn 0.000000 1.000000 0.000000
vn 0.000000 1.000000 0.000000
vn -1.000000 0.000000 0.000000
vn -1.000000 0.000000 0.000000
vn 0.000000 0.000000 1.000000
vn 0.000000 0.000000 1.000000
vn 0.000000 0.000000 1.000000
vn 1.000000 0.000000 0.000000
vn 1.000000 0.000000 0.000000
s 1
g MainShelfPart_LP
usemtl initialShadingGroup
f 1/111/1 13/2/2 74/74/3 63/63/4
s 2
f 3/5/5 14/6/6 15/138/7 5/8/8
s 3
f 64/64/9 65/83/10 16/120/11 7/12/12
s 4
f 2/110/13 8/14/14 68/68/15 69/80/16
s 5
f 7/89/17 1/1/18 63/76/19 64/84/20
s 6
f 71/71/21 72/72/22 59/19/23 60/145/24
s 2
f 11/21/25 10/22/26 18/23/27 19/136/28
s 3
f 12/25/29 66/66/30 67/82/31 20/119/32
s 6
f 72/72/22 73/77/33 62/141/34 59/19/23
s 2
f 15/7/7 14/135/6 10/22/26 11/21/25
s 3
f 16/11/11 65/65/10 66/66/30 12/25/29
s 1
f 69/69/35 70/79/36 17/137/37 2/13/38
s 2
f 19/24/28 18/132/27 4/33/39 6/34/40
s 3
f 20/28/32 67/67/31 68/81/41 8/88/42
s 5
f 31/108/43 32/107/44 3/5/45 5/8/46
s 3
f 5/8/47 15/138/48 40/37/49 31/35/50
f 39/38/51 40/127/49 15/7/48 11/21/52
f 38/39/53 39/38/51 11/21/52 19/136/54
f 37/40/55 38/129/53 19/24/54 6/34/56
s 4
f 36/41/57 37/104/58 6/34/59 4/33/60
s 1
f 18/132/61 35/131/62 36/106/63 4/33/64
f 10/22/65 34/114/66 35/115/62 18/23/61
f 14/135/67 33/134/68 34/114/66 10/22/65
f 32/36/69 33/133/68 14/6/67 3/5/70
s 5
f 22/45/71 21/46/72 32/107/44 31/108/43
s 1
f 21/103/73 30/121/74 33/133/68 32/36/69
s 12
f 52/48/75 51/99/76 53/98/77 54/95/78
f 55/52/79 52/48/75 54/95/78 56/93/80
s 1
f 36/106/63 35/131/62 28/123/81 27/55/82
s 4
f 27/100/83 26/105/84 37/104/58 36/41/57
s 3
f 26/56/85 25/130/86 38/129/53 37/40/55
f 25/57/86 24/58/87 39/38/51 38/39/53
f 24/58/87 23/128/88 40/127/49 39/38/51
f 31/35/50 40/37/49 23/59/88 22/109/89
s 5
f 42/102/90 41/4/91 21/46/72 22/45/71
s 3
f 22/109/89 23/59/88 43/126/92 42/9/93
f 44/26/94 43/10/92 23/128/88 24/58/87
f 45/125/95 44/26/94 24/58/87 25/57/86
f 46/101/96 45/27/95 25/130/86 26/56/85
s 4
f 47/87/97 46/15/98 26/105/84 27/100/83
s 1
f 27/55/82 28/123/81 48/118/99 47/16/100
f 28/124/81 29/60/101 49/112/102 48/117/99
f 29/60/101 30/47/74 50/116/103 49/112/102
f 41/90/104 50/3/103 30/121/74 21/103/73
s off
f 34/43/105 33/44/106 51/49/107 52/96/108
f 33/44/109 30/122/110 53/97/111 51/49/112
f 30/47/113 29/60/114 54/51/115 53/50/116
f 35/42/117 34/43/118 52/96/119 55/94/120
f 29/60/121 28/124/122 56/92/123 54/51/124
f 28/54/125 35/42/126 55/94/127 56/53/128
f 48/31/129 49/61/130 58/91/131 57/86/132
f 9/62/133 17/32/134 60/144/135 59/142/136
s 13
f 17/146/137 70/70/138 71/78/139 60/20/140
s off
f 49/61/141 50/113/142 61/29/143 58/91/144
s 14
f 73/73/145 74/75/146 13/139/147 62/140/148
s off
f 13/143/149 9/62/150 59/142/151 62/30/152
s 5
f 64/84/20 63/76/19 41/4/91 42/102/90
s 3
f 42/9/93 43/126/92 65/83/10 64/64/9
f 66/66/30 65/65/10 43/10/92 44/26/94
f 67/82/31 66/66/30 44/26/94 45/125/95
f 68/81/41 67/67/31 45/27/95 46/101/96
s 4
f 69/80/16 68/68/15 46/15/98 47/87/97
s 1
f 47/16/100 48/118/99 70/79/36 69/69/35
s 13
f 71/78/139 70/70/138 48/31/153 57/86/154
s 6
f 57/17/155 58/18/156 72/72/22 71/71/21
f 58/18/156 61/85/157 73/77/33 72/72/22
s 14
f 50/113/158 74/75/146 73/73/145 61/29/159
s 1
f 63/63/4 74/74/3 50/3/103 41/90/104
