# This file uses centimeters as units for non-parametric coordinates.

mtllib SingleDesk_LP.mtl
g default
v -1.999997 0.000000 1.689586
v -1.999997 0.669713 2.101906
v -2.000000 0.835909 -0.018271
v 0.000002 0.835909 -0.018270
v -2.000000 0.000000 0.000000
v 0.000001 0.669713 2.101906
v -0.999998 0.669713 2.101906
v -0.999999 0.835909 -0.018271
v -1.899997 0.669713 2.101906
v -1.900000 0.835909 -0.018271
v -0.099999 0.669713 2.101906
v -0.099998 0.835909 -0.018271
v -1.999999 0.770398 0.844793
v -1.999999 0.000000 0.844793
v -0.099998 0.770398 0.844793
v -1.899998 0.770398 0.844793
v -1.999997 0.678023 1.995897
v -1.999997 0.000000 1.605107
v -0.099999 0.678023 1.995897
v -0.999998 0.678023 1.995897
v -1.899997 0.678023 1.995897
v -2.000000 0.000000 0.087738
v -2.000000 0.827600 0.084479
v -1.900000 0.827600 0.087738
v -0.999999 0.827600 0.087738
v -0.099998 0.827600 0.087738
v 0.000002 0.827600 0.087738
v -1.900000 0.241555 0.104182
v -0.999999 0.241555 0.104182
v -1.899998 0.049984 1.605107
v -0.999999 0.049984 1.605107
v -0.099998 0.241555 0.104182
v -0.099999 0.049984 1.605107
v -0.099998 0.145770 0.854644
v -0.999999 0.145770 0.854644
v -1.899999 0.145770 0.854644
v 0.000002 0.937618 0.087738
v 0.000002 0.945928 -0.018270
v -0.099998 0.937618 0.087738
v -0.099998 0.945928 -0.018271
v -0.999999 0.937618 0.087738
v -0.999999 0.945928 -0.018271
v -1.900000 0.937618 0.087738
v -1.900000 0.945928 -0.018271
v -2.000000 0.937618 0.087738
v -2.000000 0.945928 -0.018271
v 0.000001 0.804879 0.378566
v 0.000002 0.914898 0.378566
v -0.099998 0.804879 0.378566
v -0.099998 0.914898 0.378566
v -0.999999 0.804879 0.378566
v -0.999999 0.914898 0.378566
v -1.900000 0.804879 0.378566
v -1.900000 0.914898 0.378566
v -2.000000 0.804879 0.378566
v -2.000000 0.914898 0.378566
v 0.044488 0.827600 0.087738
v 0.044489 0.835909 -0.018271
v 0.044489 0.945928 -0.018271
v 0.044488 0.937618 0.087738
v 0.044488 0.914898 0.378566
v 0.044488 0.804879 0.378566
v -2.044487 0.827600 0.087738
v -2.044487 0.835909 -0.018271
v -2.044487 0.937618 0.087738
v -2.044487 0.945928 -0.018271
v -2.044487 0.804879 0.378566
v -2.044487 0.914898 0.378566
v 0.000002 0.843311 -0.123315
v 0.000002 0.953330 -0.123315
v -0.099998 0.843311 -0.123315
v -0.099998 0.953330 -0.123315
v -0.999999 0.843311 -0.123315
v -0.999999 0.953330 -0.123315
v -1.900000 0.843311 -0.123315
v -1.900000 0.953330 -0.123315
v -2.000000 0.843311 -0.123315
v -2.000000 0.953330 -0.123315
v 0.044489 0.953330 -0.123315
v 0.044489 0.843311 -0.123315
v -2.044487 0.843311 -0.123315
v -2.044487 0.953330 -0.123315
v -1.900000 0.000000 1.689586
v -1.900000 0.000000 1.605107
v -1.900000 0.000000 0.844793
v -1.900000 0.000000 0.084479
v -1.900000 0.000000 0.000000
v -0.999999 0.000000 0.000000
v -0.999999 0.000000 0.084479
v -0.999999 0.000000 0.844793
v -1.000000 0.000000 1.605107
v -1.000000 0.000000 1.689586
v -0.099999 0.000000 1.689586
v -0.099999 0.000000 1.605107
v -0.099998 0.000000 0.844793
v -0.099998 0.000000 0.084479
v -0.099998 0.000000 -0.000000
v 0.000002 0.000000 -0.000000
v 0.000002 0.000000 0.084479
v 0.000002 0.000000 0.844793
v 0.000002 0.000000 1.605107
v 0.000002 0.000000 1.689586
v 0.000001 0.678023 1.995897
v 0.000001 0.770398 0.844793
v -1.999999 0.000000 0.385805
v -1.900000 0.000000 0.385081
v -0.999999 0.000000 0.378566
v -0.099998 0.000000 0.372052
v 0.000002 0.000000 0.371327
v -1.900000 0.204585 0.378566
v -0.999999 0.205583 0.378566
v -0.099998 0.206581 0.378566
vt 0.931390 0.858316
vt 0.158594 0.679416
vt 0.034036 0.049321
vt 0.931390 0.841479
vt 0.318402 0.764071
vt 0.318404 0.777447
vt 0.945996 0.601393
vt 0.176541 0.049319
vt 0.158580 0.536911
vt 0.158565 0.394405
vt 0.318380 0.509919
vt 0.318381 0.523811
vt 0.919050 0.890692
vt 0.903806 0.891080
vt 0.853098 0.589724
vt 0.836300 0.589608
vt 0.836185 0.573844
vt 0.852886 0.574002
vt 0.853311 0.732180
vt 0.836510 0.731810
vt 0.852717 0.874381
vt 0.835827 0.874070
vt 0.835540 0.889722
vt 0.852312 0.889987
vt 0.196407 0.643694
vt 0.318392 0.643683
vt 0.216601 0.368047
vt 0.190941 0.569872
vt 0.318385 0.571007
vt 0.479817 0.152797
vt 0.217826 0.268713
vt 0.098962 0.268696
vt 0.176542 0.166442
vt 0.741796 0.268602
vt 0.319048 0.166441
vt 0.911233 0.174993
vt 0.911252 0.317498
vt 0.336691 0.273098
vt 0.479810 0.273106
vt 0.622924 0.366344
vt 0.622930 0.273113
vt 0.945966 0.784244
vt 0.479812 0.229099
vt 0.666390 0.271792
vt 0.336693 0.229071
vt 0.669053 0.366897
vt 0.290558 0.366877
vt 0.920376 0.566014
vt 0.903912 0.565340
vt 0.903920 0.548167
vt 0.836030 0.566451
vt 0.886417 0.573896
vt 0.886132 0.589096
vt 0.869711 0.589410
vt 0.869410 0.573754
vt 0.772982 0.731584
vt 0.790224 0.589781
vt 0.790376 0.731700
vt 0.887339 0.731903
vt 0.869956 0.732052
vt 0.789512 0.873836
vt 0.886897 0.874603
vt 0.869450 0.874504
vt 0.886547 0.890484
vt 0.869014 0.890125
vt 0.903861 0.898158
vt 0.919379 0.897974
vt 0.918791 0.914967
vt 0.852200 0.897016
vt 0.790158 0.566639
vt 0.965085 0.565588
vt 0.790271 0.574028
vt 0.789896 0.889800
vt 0.772652 0.897336
vt 0.790065 0.896836
vt 0.766102 0.523772
vt 0.767416 0.506986
vt 0.885981 0.548582
vt 0.886095 0.565153
vt 0.762508 0.569822
vt 0.885801 0.897539
vt 0.868733 0.897058
vt 0.619213 0.377503
vt 0.476708 0.377516
vt 0.334202 0.377528
vt 0.334237 0.777446
vt 0.334236 0.764069
vt 0.476742 0.764057
vt 0.034052 0.536924
vt 0.334225 0.643682
vt 0.476731 0.643669
vt 0.334219 0.570891
vt 0.476725 0.569847
vt 0.334215 0.523294
vt 0.334214 0.509917
vt 0.476719 0.509905
vt 0.476720 0.523281
vt 0.619226 0.523269
vt 0.619225 0.509892
vt 0.635059 0.509891
vt 0.635060 0.523267
vt 0.619237 0.643656
vt 0.619230 0.568803
vt 0.635064 0.568687
vt 0.635071 0.643655
vt 0.619247 0.764044
vt 0.635081 0.764043
vt 0.034037 0.394418
vt 0.635082 0.777419
vt 0.741130 0.842696
vt 0.742444 0.825911
vt 0.757055 0.643644
vt 0.961830 0.601396
vt 0.961800 0.784247
vt 0.961787 0.858271
vt 0.772907 0.573940
vt 0.158564 0.378571
vt 0.961833 0.584559
vt 0.957403 0.032481
vt 0.772825 0.589687
vt 0.034036 0.378584
vt 0.903558 0.573491
vt 0.635047 0.377502
vt 0.619248 0.777421
vt 0.476743 0.777433
vt 0.034066 0.679429
vt 0.965763 0.890528
vt 0.931395 0.584605
vt 0.772141 0.874572
vt 0.772095 0.873557
vt 0.957442 0.317492
vt 0.187339 0.523307
vt 0.957423 0.174986
vt 0.336686 0.366328
vt 0.911214 0.032487
vt 0.920111 0.573813
vt 0.479805 0.366336
vt 0.186022 0.507038
vt 0.318368 0.377530
vt 0.211050 0.825958
vt 0.931394 0.658629
vt 0.903760 0.588957
vt 0.319046 0.032481
vt 0.903553 0.874540
vt 0.903983 0.731770
vt 0.915556 0.858316
vt 0.176541 0.032482
vt 0.158595 0.695250
vt 0.212368 0.842743
vt 0.034067 0.695262
vt 0.925578 0.366830
vt 0.034036 0.366782
vt 0.915560 0.658628
vt 0.743011 0.367936
vt 0.915561 0.584605
vt 0.945953 0.858268
vt 0.622944 0.032498
vt 0.479824 0.032489
vt 0.034037 0.166443
vt 0.945999 0.584556
vt 0.319047 0.049318
vt 0.034036 0.032484
vt 0.915556 0.841479
vt 0.622932 0.229127
vt 0.293240 0.271455
vt 0.336698 0.152789
vt 0.622936 0.152806
vt 0.860663 0.268737
vt 0.336705 0.032481
vt 0.965260 0.897763
vt 0.772505 0.890288
vt 0.772933 0.566533
vt 0.965452 0.573739
vt 0.903840 0.915442
vt 0.852635 0.565908
vt 0.835594 0.896745
vt 0.965548 0.914702
vt 0.919934 0.548069
vt 0.965330 0.548636
vt 0.885591 0.915084
vt 0.868904 0.565625
vn 0.000000 0.996942 0.078149
vn 0.000000 0.996942 0.078149
vn 0.000000 0.996866 0.079108
vn 0.000000 0.996808 0.079837
vn -1.000000 -0.000001 0.000001
vn -1.000000 -0.000001 0.000001
vn -1.000000 0.000000 0.000000
vn -1.000000 0.000000 0.000000
vn -0.000000 0.996942 0.078147
vn -0.000000 0.996942 0.078148
vn -0.000000 0.996942 0.078148
vn -0.000000 0.996942 0.078147
vn -1.000000 -0.000000 0.000001
vn -1.000000 -0.000000 0.000001
vn -1.000000 -0.000000 0.000001
vn -1.000000 -0.000000 0.000001
vn -0.000000 0.996942 0.078148
vn -0.000000 0.996942 0.078148
vn -0.000000 0.996942 0.078148
vn -0.000000 0.996942 0.078148
vn 0.000000 0.996942 0.078148
vn 0.000000 0.996942 0.078148
vn 0.000000 0.996942 0.078149
vn 0.000000 0.996942 0.078149
vn 0.000000 0.996942 0.078148
vn 0.000000 0.996942 0.078148
vn -1.000000 -0.000000 0.000002
vn -1.000000 -0.000001 0.000002
vn 0.000000 0.996938 0.078195
vn 0.000000 0.996938 0.078195
vn -1.000000 -0.000000 0.000002
vn -1.000000 -0.000000 0.000002
vn -0.000214 0.992049 0.125852
vn -0.000214 0.992099 0.125454
vn 0.000000 0.991953 0.126608
vn 0.000000 0.991953 0.126608
vn -0.000213 0.991999 0.126249
vn 0.000000 0.991953 0.126608
vn 0.000000 0.028047 0.999607
vn 0.000000 0.028047 0.999607
vn 0.000000 0.028047 0.999607
vn 0.000000 0.028047 0.999607
vn 1.000000 -0.000001 -0.000001
vn 1.000000 -0.000001 -0.000001
vn 1.000000 -0.000001 -0.000001
vn 1.000000 -0.000001 -0.000001
vn 0.000000 0.028047 0.999607
vn 0.000000 0.028047 0.999607
vn 0.000000 0.028047 0.999607
vn 0.000000 0.028047 0.999607
vn 0.000000 0.528312 -0.849051
vn 0.000000 0.528312 -0.849050
vn 0.000000 0.528312 -0.849050
vn 0.000000 0.528312 -0.849050
vn 0.000000 0.528312 -0.849051
vn 0.000000 0.528312 -0.849051
vn 0.000000 0.528312 -0.849051
vn 0.000000 0.528312 -0.849051
vn -1.000000 0.000000 -0.000000
vn -1.000000 0.000000 -0.000000
vn -1.000000 0.000000 -0.000000
vn -1.000000 0.000000 -0.000000
vn -0.000550 0.991746 0.128215
vn -0.000550 0.991515 0.129988
vn -0.000550 0.991953 0.126608
vn -0.000550 0.991953 0.126608
vn -0.000550 0.991281 0.131761
vn -0.000550 0.991953 0.126608
vn -1.000000 0.000000 0.000000
vn -1.000000 0.000000 0.000000
vn -1.000000 0.000000 0.000000
vn -1.000000 0.000000 0.000000
vn 1.000000 -0.000000 -0.000001
vn 1.000000 -0.000000 -0.000001
vn 1.000000 0.000000 0.000000
vn 1.000000 0.000000 0.000000
vn 1.000000 0.000000 0.000002
vn 1.000000 0.000000 0.000002
vn 1.000000 0.000000 0.000002
vn 1.000000 0.000000 0.000002
vn 0.000000 0.000000 -1.000000
vn 0.000000 0.000000 -1.000000
vn 0.000000 0.000000 -1.000000
vn 0.000000 0.000000 -1.000000
vn 0.000000 0.000000 1.000000
vn 0.000000 0.000000 1.000000
vn 0.000000 0.000000 1.000000
vn 0.000000 0.000000 1.000000
vn 0.000000 0.000000 -1.000000
vn 0.000000 0.000000 -1.000000
vn 0.000000 0.000000 -1.000000
vn 0.000000 0.000000 -1.000000
vn 0.000000 0.000000 1.000000
vn 0.000000 0.000000 1.000000
vn 0.000000 0.000000 1.000000
vn 0.000000 0.000000 1.000000
vn 0.000000 0.000000 -1.000000
vn 0.000000 0.000000 -1.000000
vn 0.000000 0.000000 -1.000000
vn 0.000000 0.000000 -1.000000
vn 0.000000 0.000000 -1.000000
vn 0.000000 0.000000 -1.000000
vn 0.000000 0.000000 -1.000000
vn 0.000000 0.000000 -1.000000
vn -1.000000 0.000000 0.000000
vn -1.000000 0.000000 0.000000
vn -1.000000 0.000000 0.000000
vn -1.000000 0.000000 0.000000
vn 1.000000 -0.000001 0.000000
vn 1.000000 -0.000001 0.000000
vn 1.000000 -0.000001 0.000000
vn 1.000000 -0.000001 0.000000
vn 0.000000 0.996962 0.077886
vn 0.000000 0.996962 0.077886
vn 0.000000 0.996962 0.077886
vn 0.000000 0.996962 0.077886
vn 0.000000 -0.996962 -0.077887
vn 0.000000 -0.996962 -0.077887
vn 0.000000 -0.996962 -0.077887
vn 0.000000 -0.996962 -0.077887
vn 0.000000 0.996962 0.077887
vn 0.000000 0.996962 0.077887
vn 0.000000 0.996962 0.077887
vn 0.000000 0.996962 0.077887
vn 0.000000 -0.996962 -0.077886
vn 0.000000 -0.996962 -0.077886
vn 0.000000 -0.996962 -0.077886
vn 0.000000 -0.996962 -0.077886
vn 0.000000 0.996962 0.077886
vn 0.000000 0.996962 0.077886
vn 0.000000 0.996962 0.077886
vn 0.000000 0.996962 0.077886
vn 0.000000 0.996962 0.077886
vn 0.000000 0.996962 0.077886
vn 0.000000 0.996962 0.077886
vn 0.000000 0.996962 0.077886
vn -1.000000 -0.000004 0.000001
vn -1.000000 -0.000004 0.000001
vn -1.000000 -0.000004 0.000001
vn -1.000000 -0.000004 0.000001
vn 0.000000 0.997276 0.073757
vn 0.000000 0.997276 0.073757
vn 0.000000 0.000000 1.000000
vn 0.000000 0.000000 1.000000
vn 0.000000 0.000000 1.000000
vn 0.000000 0.000000 1.000000
vn -0.000000 -0.996942 -0.078149
vn -0.000000 -0.996942 -0.078149
vn -0.000000 -0.996942 -0.078149
vn -0.000000 -0.996942 -0.078149
vn 0.000000 0.000000 -1.000000
vn 0.000000 0.000000 -1.000000
vn 0.000000 0.000000 -1.000000
vn 0.000000 0.000000 -1.000000
vn 0.000000 0.996942 0.078149
vn 0.000000 0.996942 0.078149
vn 0.000000 0.996942 0.078149
vn 0.000000 0.996942 0.078149
vn 0.000000 0.996962 0.077886
vn 0.000000 0.996962 0.077886
vn 0.000000 0.996962 0.077886
vn 0.000000 0.996962 0.077886
vn 0.000000 0.000000 1.000000
vn 0.000000 0.000000 1.000000
vn 0.000000 0.000000 1.000000
vn 0.000000 0.000000 1.000000
vn 0.000000 -0.996962 -0.077887
vn 0.000000 -0.996962 -0.077887
vn 0.000000 -0.996962 -0.077887
vn 0.000000 -0.996962 -0.077887
vn -0.002907 -0.996842 -0.079360
vn -0.002907 -0.996842 -0.079360
vn -0.002907 -0.996842 -0.079360
vn -0.002907 -0.996842 -0.079360
vn 0.000000 0.996942 0.078148
vn 0.000000 0.996942 0.078148
vn 0.000000 0.996942 0.078148
vn 0.000000 0.996942 0.078148
vn 0.000000 0.000000 -1.000000
vn 0.000000 0.000000 -1.000000
vn 0.000000 0.000000 -1.000000
vn 0.000000 0.000000 -1.000000
vn -0.002837 -0.996992 -0.077455
vn -0.002837 -0.996992 -0.077455
vn -0.002837 -0.996992 -0.077455
vn -0.002837 -0.996992 -0.077455
vn 0.000000 0.000000 1.000000
vn 0.000000 0.000000 1.000000
vn 0.000000 0.000000 1.000000
vn 0.000000 0.000000 1.000000
vn 0.000000 0.996962 0.077886
vn 0.000000 0.996962 0.077886
vn 0.000000 0.996962 0.077886
vn 0.000000 0.996962 0.077886
vn 0.000000 -0.997527 -0.070290
vn 0.000000 -0.997527 -0.070290
vn 0.000000 -0.997527 -0.070290
vn 0.000000 -0.997527 -0.070290
vn -0.000000 0.997527 0.070291
vn -0.000000 0.997527 0.070291
vn -0.000000 0.997527 0.070291
vn -0.000000 0.997527 0.070291
vn 0.000000 -0.997527 -0.070291
vn 0.000000 -0.997527 -0.070291
vn 0.000000 -0.997527 -0.070291
vn 0.000000 -0.997527 -0.070291
vn 0.000000 0.997527 0.070291
vn 0.000000 0.997527 0.070291
vn 0.000000 0.997527 0.070291
vn 0.000000 0.997527 0.070291
vn 0.000000 -0.997527 -0.070290
vn 0.000000 -0.997527 -0.070290
vn 0.000000 -0.997527 -0.070290
vn 0.000000 -0.997527 -0.070290
vn 0.000000 0.997527 0.070290
vn 0.000000 0.997527 0.070290
vn 0.000000 0.997527 0.070290
vn 0.000000 0.997527 0.070290
vn 0.000000 -0.997527 -0.070290
vn 0.000000 -0.997527 -0.070290
vn 0.000000 -0.997527 -0.070290
vn 0.000000 -0.997527 -0.070290
vn 0.000000 0.997527 0.070291
vn 0.000000 0.997527 0.070291
vn 0.000000 0.997527 0.070291
vn 0.000000 0.997527 0.070291
vn 0.000000 0.997527 0.070291
vn 0.000000 0.997527 0.070291
vn 0.000000 0.997527 0.070291
vn 0.000000 0.997527 0.070291
vn 1.000000 0.000000 0.000000
vn 1.000000 0.000000 0.000000
vn 1.000000 0.000000 0.000000
vn 1.000000 0.000000 0.000000
vn -0.000000 -0.997527 -0.070291
vn -0.000000 -0.997527 -0.070291
vn -0.000000 -0.997527 -0.070291
vn -0.000000 -0.997527 -0.070291
vn 0.000000 -0.997527 -0.070290
vn 0.000000 -0.997527 -0.070290
vn 0.000000 -0.997527 -0.070290
vn 0.000000 -0.997527 -0.070290
vn -1.000000 0.000000 0.000000
vn -1.000000 0.000000 0.000000
vn -1.000000 0.000000 0.000000
vn -1.000000 0.000000 0.000000
vn 0.000000 0.997527 0.070290
vn 0.000000 0.997527 0.070290
vn 0.000000 0.997527 0.070290
vn 0.000000 0.997527 0.070290
vn 0.000000 -1.000000 0.000001
vn 0.000000 -1.000000 0.000000
vn 0.000000 -1.000000 0.000000
vn 0.000000 -1.000000 0.000001
vn 0.000000 -1.000000 0.000000
vn 0.000000 -1.000000 0.000000
vn 0.000000 -1.000000 0.000000
vn 0.000000 -1.000000 0.000000
vn 0.000000 -1.000000 0.000000
vn 0.000000 -1.000000 0.000000
vn 0.000000 -1.000000 0.000000
vn 0.000000 -1.000000 0.000000
vn 0.000000 -0.021852 -0.999761
vn 0.000000 -0.021852 -0.999761
vn 0.000000 -0.021852 -0.999761
vn -0.000000 -0.021852 -0.999761
vn 0.000000 -0.524271 0.851552
vn 0.000000 -0.524271 0.851552
vn 0.000000 -0.524271 0.851552
vn 0.000000 -0.524271 0.851552
vn 0.000000 -1.000000 0.000000
vn 0.000000 -1.000000 0.000001
vn 0.000000 -1.000000 0.000000
vn 0.000000 -1.000000 0.000000
vn 0.000000 -1.000000 0.000000
vn 0.000000 -1.000000 0.000000
vn 0.000000 -0.021852 -0.999761
vn 0.000000 -0.021852 -0.999761
vn 0.000000 -1.000000 0.000000
vn 0.000000 -1.000000 0.000000
vn 0.000000 -1.000000 0.000000
vn 0.000000 -1.000000 0.000000
vn 0.000000 -1.000000 0.000000
vn 0.000000 -1.000000 0.000000
vn 0.000000 -1.000000 0.000000
vn 0.000000 -1.000000 0.000000
vn 0.000000 -1.000000 0.000000
vn 0.000000 -1.000000 0.000000
vn 0.000000 -1.000000 0.000001
vn 0.000000 -1.000000 0.000001
vn 0.000000 -0.524271 0.851551
vn 0.000000 -0.524271 0.851551
vn 0.000000 -0.524271 0.851551
vn 0.000000 -0.524271 0.851551
vn -0.000000 -0.021852 -0.999761
vn 0.000000 -0.021852 -0.999761
vn 0.000001 -0.021852 -0.999761
vn 0.000001 -0.021852 -0.999761
vn 0.000000 -0.524271 0.851551
vn 0.000000 -0.524271 0.851551
vn 0.000000 -0.524271 0.851551
vn 0.000000 -0.524271 0.851551
vn 0.000000 -0.524271 0.851551
vn 0.000000 -0.524271 0.851551
vn 0.000000 -0.524271 0.851552
vn 0.000000 -0.524271 0.851551
vn 0.000000 0.000000 1.000000
vn 0.000000 0.000000 1.000000
vn 0.000000 0.000000 1.000000
vn 0.000000 0.000000 1.000000
vn 0.000001 0.996942 0.078147
vn 0.000001 0.996942 0.078147
vn 0.000001 0.996942 0.078147
vn 0.000001 0.996942 0.078147
vn 0.000000 0.997276 0.073757
vn 0.000000 0.997276 0.073757
vn 0.000000 0.997276 0.073757
vn 0.000000 0.997276 0.073757
vn 0.000000 0.996796 0.079992
vn 0.000000 0.996796 0.079992
vn 0.000000 0.996796 0.079992
vn 0.000000 0.996796 0.079992
vn 1.000000 -0.000000 0.000001
vn 1.000000 0.000000 0.000000
vn 1.000000 0.000000 0.000000
vn 1.000000 -0.000000 0.000001
vn 1.000000 0.000000 0.000000
vn 1.000000 0.000000 0.000000
vn 1.000000 0.000000 0.000000
vn 1.000000 0.000000 0.000000
vn 1.000000 0.000000 0.000000
vn 1.000000 0.000000 0.000000
vn 1.000000 0.000000 0.000000
vn 1.000000 0.000000 0.000000
s 1
g SingleDesk_LP
usemtl initialShadingGroup
f 2/1/1 9/146/2 21/163/3 17/4/4
s 2
f 17/140/5 18/5/6 1/6/7 2/149/8
s 1
f 19/161/9 20/8/10 7/147/11 11/143/12
f 20/8/10 21/3/3 9/162/2 7/147/11
s 2
f 5/11/13 22/12/14 23/132/15 3/138/16
s 4
f 40/15/17 39/16/18 37/17/19 38/18/20
f 42/19/21 41/20/22 39/16/18 40/15/17
f 44/21/23 43/22/24 41/20/22 42/19/21
f 45/23/25 43/22/24 44/21/23 46/24/26
s 2
f 13/25/27 14/26/28 18/5/6 17/140/5
s 1
f 17/4/4 21/163/3 16/153/29 13/141/30
s 2
f 55/28/31 105/29/32 14/26/28 13/25/27
s 5
f 35/30/33 36/166/34 30/169/35 31/158/36
f 34/167/37 35/30/33 31/158/36 33/157/38
s off
f 25/137/39 24/134/40 28/38/41 29/39/42
s 6
f 30/32/43 36/31/44 16/27/45 21/152/46
s off
f 26/40/47 25/137/48 29/39/49 32/41/50
f 21/3/51 20/8/52 31/33/53 30/159/54
f 20/8/55 19/161/56 33/35/57 31/33/58
s 7
f 33/168/59 19/151/60 15/154/61 34/34/62
s 5
f 32/41/63 29/39/64 111/43/65 112/164/66
f 29/39/64 28/38/67 110/45/68 111/43/65
s 7
f 112/44/69 49/46/70 26/40/71 32/41/72
s 6
f 53/47/73 110/165/74 28/38/75 24/134/76
s off
f 57/48/77 58/49/78 59/50/79 60/178/80
f 69/52/81 71/53/82 72/54/83 70/55/84
f 51/56/85 49/120/86 50/57/87 52/58/88
f 71/53/89 73/59/90 74/60/91 72/54/92
f 53/130/93 51/56/94 52/58/95 54/61/96
f 73/59/97 75/62/98 76/63/99 74/60/100
f 75/62/101 77/64/102 78/65/103 76/63/104
f 64/66/105 63/67/106 65/68/107 66/174/108
f 57/48/109 60/178/110 61/179/111 62/71/112
f 37/17/113 39/16/114 50/57/115 48/72/116
f 25/36/117 26/135/118 49/119/119 51/133/120
f 39/16/121 41/20/122 52/58/123 50/57/124
f 24/37/125 25/36/126 51/133/127 53/131/128
f 41/20/129 43/22/130 54/61/131 52/58/132
f 43/22/133 45/23/134 56/73/135 54/61/136
f 65/68/137 63/67/138 67/170/139 68/177/140
s 1
f 13/141/30 16/153/29 53/155/141 55/128/142
s off
f 54/61/143 56/73/144 55/171/145 53/129/146
f 27/136/147 4/122/148 58/49/149 57/48/150
f 69/52/151 70/55/152 79/181/153 80/79/154
f 38/18/155 37/17/156 60/51/157 59/175/158
f 37/17/159 48/72/160 61/70/161 60/51/162
f 48/72/163 47/116/164 62/172/165 61/70/166
f 47/173/167 27/136/168 57/48/169 62/71/170
f 3/14/171 23/13/172 63/67/173 64/66/174
f 45/23/175 46/24/176 66/69/177 65/176/178
f 78/65/179 77/64/180 81/81/181 82/82/182
f 23/13/183 55/127/184 67/170/185 63/67/186
f 55/171/187 56/73/188 68/75/189 67/74/190
f 56/73/191 45/23/192 65/176/193 68/75/194
f 4/122/195 12/142/196 71/53/197 69/52/198
f 40/15/199 38/18/200 70/55/201 72/54/202
f 12/142/203 8/145/204 73/59/205 71/53/206
f 42/19/207 40/15/208 72/54/209 74/60/210
f 8/145/211 10/144/212 75/62/213 73/59/214
f 44/21/215 42/19/216 74/60/217 76/63/218
f 10/144/219 3/14/220 77/64/221 75/62/222
f 46/24/223 44/21/224 76/63/225 78/65/226
f 38/18/227 59/175/228 79/181/229 70/55/230
f 59/50/231 58/49/232 80/79/233 79/78/234
f 58/49/235 4/122/236 69/52/237 80/79/238
f 3/14/239 64/66/240 81/81/241 77/64/242
f 64/66/243 66/174/244 82/180/245 81/81/246
f 66/69/247 46/24/248 78/65/249 82/82/250
s 9
f 83/86/251 84/87/252 91/88/253 92/125/254
f 84/87/252 85/90/255 90/91/256 91/88/253
f 85/90/255 106/92/257 107/93/258 90/91/256
f 86/94/259 87/95/260 88/96/261 89/97/262
s 11
f 87/95/263 10/85/264 8/84/265 88/96/266
s off
f 1/150/267 83/126/268 9/2/269 2/148/270
s 9
f 18/5/271 84/87/252 83/86/251 1/6/272
f 14/26/273 85/90/255 84/87/252 18/5/271
f 105/29/274 106/92/257 85/90/255 14/26/273
f 5/11/275 87/95/260 86/94/259 22/12/276
s 11
f 3/139/277 10/85/264 87/95/263 5/11/278
s 9
f 96/98/279 97/99/280 98/100/281 99/101/282
f 95/102/283 108/103/284 109/104/285 100/105/286
f 94/106/287 95/102/283 100/105/286 101/107/288
f 93/124/289 94/106/287 101/107/288 102/109/290
s off
f 7/9/291 9/2/292 83/126/293 92/89/294
s 9
f 92/125/254 91/88/253 94/106/287 93/124/289
f 91/88/253 90/91/256 95/102/283 94/106/287
f 90/91/256 107/93/258 108/103/284 95/102/283
f 89/97/262 88/96/261 97/99/280 96/98/279
s 11
f 88/96/266 8/84/265 12/83/295 97/99/296
f 97/99/296 12/83/295 4/123/297 98/100/298
s off
f 11/10/299 7/9/300 92/89/301 93/108/302
f 6/117/303 11/10/304 93/108/305 102/121/306
f 48/72/307 50/57/308 49/120/309 47/116/310
f 19/7/311 11/160/312 6/118/313 103/113/314
f 49/156/315 15/42/316 104/114/317 47/115/318
f 15/42/319 19/7/320 103/113/321 104/114/322
s 12
f 4/77/323 27/76/324 99/101/325 98/100/326
f 100/105/327 104/112/328 103/111/329 101/107/330
f 47/80/331 109/104/332 99/101/325 27/76/324
s 2
f 23/132/15 22/12/14 105/29/32 55/28/31
s 9
f 22/12/276 86/94/259 106/92/257 105/29/274
f 107/93/258 106/92/257 86/94/259 89/97/262
f 108/103/284 107/93/258 89/97/262 96/98/279
f 109/104/285 108/103/284 96/98/279 99/101/282
s 12
f 100/105/327 109/104/332 47/80/331 104/112/328
f 101/107/330 103/111/329 6/110/333 102/109/334
s 6
f 36/31/44 110/165/74 53/47/73 16/27/45
s 5
f 111/43/65 110/45/68 36/166/34 35/30/33
f 112/164/66 111/43/65 35/30/33 34/167/37
s 7
f 34/34/62 15/154/61 49/46/70 112/44/69
