# This file uses centimeters as units for non-parametric coordinates.

mtllib LeftDoubleDoor_LP.mtl
g default
v 0.240583 1.982069 2.139620
v 0.240583 2.630794 2.139620
v 0.240583 1.982069 1.974016
v 0.240583 2.630794 1.974016
v 0.137478 1.982069 1.974016
v 0.137478 2.630794 1.974016
v 0.137478 1.982069 2.139620
v 0.137478 2.630794 2.139620
v -0.169484 0.000000 2.430158
v -0.169484 0.000000 0.000000
v -0.169484 5.267586 2.430158
v -0.169484 4.698952 0.000000
v 0.169483 5.267586 2.430158
v 0.169483 4.698952 0.000000
v 0.169483 0.000000 2.430158
v 0.169483 0.000000 0.000000
v -0.169484 0.000000 1.207714
v -0.169484 5.123522 1.207714
v 0.169483 5.123522 1.207714
v 0.169483 0.000000 1.207714
v -0.169484 0.000000 0.563408
v -0.169484 4.974363 0.563408
v 0.169483 4.974363 0.563408
v 0.169483 0.000000 0.563408
v -0.169484 0.000000 1.811571
v -0.169484 5.248872 1.811571
v 0.169483 5.248872 1.811571
v 0.169483 0.000000 1.811571
v -0.264466 1.982069 1.974016
v -0.264466 2.630794 1.974016
v -0.264466 1.982069 2.139620
v -0.264466 2.630794 2.139620
v -0.161361 1.982069 2.139620
v -0.161361 2.630794 2.139620
v -0.161361 1.982069 1.974016
v -0.161361 2.630794 1.974016
vt 0.625320 0.684870
vt 0.608264 0.684869
vt 0.608268 0.618057
vt 0.625323 0.618058
vt 0.597646 0.684868
vt 0.597649 0.618057
vt 0.635938 0.684870
vt 0.635942 0.618059
vt 0.608269 0.607439
vt 0.625324 0.607439
vt 0.625319 0.695489
vt 0.608264 0.695488
vt 0.979727 0.019697
vt 0.979727 0.615887
vt 0.921756 0.613769
vt 0.921756 0.019697
vt 0.090533 0.600781
vt 0.126875 0.600781
vt 0.126875 0.664343
vt 0.090533 0.664343
vt 0.509452 0.605574
vt 0.509452 0.019697
vt 0.568444 0.019697
vt 0.568444 0.603492
vt 0.697773 0.597514
vt 0.697773 0.924793
vt 0.646152 0.924793
vt 0.646152 0.597514
vt 0.767849 0.578194
vt 0.767849 0.894046
vt 0.707888 0.894046
vt 0.707888 0.578194
vt 0.865165 0.599582
vt 0.804783 0.582700
vt 0.804783 0.019697
vt 0.865165 0.019697
vt 0.126875 0.726392
vt 0.126875 0.792598
vt 0.090533 0.792598
vt 0.090533 0.726392
vt 0.626030 0.019697
vt 0.687474 0.019697
vt 0.687474 0.572961
vt 0.626030 0.589551
vt 0.751984 0.551529
vt 0.751984 0.019697
vt 0.126875 0.850490
vt 0.090533 0.850490
vt 0.741204 0.019697
vt 0.741204 0.542329
vt 0.625320 0.684870
vt 0.608264 0.684869
vt 0.608268 0.618057
vt 0.625323 0.618058
vt 0.597646 0.684868
vt 0.597649 0.618057
vt 0.635938 0.684870
vt 0.635942 0.618059
vt 0.608269 0.607439
vt 0.625324 0.607439
vt 0.625319 0.695489
vt 0.608264 0.695488
vn 1.000000 0.000000 0.000000
vn 1.000000 0.000000 0.000000
vn 1.000000 0.000000 0.000000
vn 1.000000 0.000000 0.000000
vn 0.000000 0.000000 -1.000000
vn 0.000000 0.000000 -1.000000
vn 0.000000 0.000000 -1.000000
vn 0.000000 0.000000 -1.000000
vn 0.000000 0.000000 1.000000
vn 0.000000 0.000000 1.000000
vn 0.000000 0.000000 1.000000
vn 0.000000 0.000000 1.000000
vn 0.000000 1.000000 0.000000
vn 0.000000 1.000000 0.000000
vn 0.000000 1.000000 0.000000
vn 0.000000 1.000000 0.000000
vn 0.000000 -1.000000 0.000000
vn 0.000000 -1.000000 0.000000
vn 0.000000 -1.000000 0.000000
vn 0.000000 -1.000000 0.000000
vn -1.000000 0.000000 0.000000
vn -1.000000 0.000000 0.000000
vn -1.000000 0.000000 0.000000
vn -1.000000 0.000000 0.000000
vn 0.000000 0.999543 -0.030239
vn 0.000000 0.999543 -0.030239
vn 0.000000 0.993127 -0.117039
vn 0.000000 0.993127 -0.117039
vn 1.000000 0.000000 0.000000
vn 1.000000 0.000000 0.000000
vn 1.000000 0.000000 0.000000
vn 1.000000 0.000000 0.000000
vn 0.000000 0.000000 -1.000000
vn 0.000000 0.000000 -1.000000
vn 0.000000 0.000000 -1.000000
vn 0.000000 0.000000 -1.000000
vn 0.000000 0.000000 1.000000
vn 0.000000 0.000000 1.000000
vn 0.000000 0.000000 1.000000
vn 0.000000 0.000000 1.000000
vn -1.000000 0.000000 0.000000
vn -1.000000 0.000000 0.000000
vn -1.000000 0.000000 0.000000
vn -1.000000 0.000000 0.000000
vn 0.000000 0.976659 -0.214797
vn 0.000000 0.943402 -0.331651
vn 0.000000 0.943402 -0.331651
vn 0.000000 0.976659 -0.214797
vn 1.000000 0.000000 0.000000
vn 1.000000 0.000000 0.000000
vn 1.000000 0.000000 0.000000
vn 1.000000 0.000000 0.000000
vn -1.000000 0.000000 0.000000
vn -1.000000 0.000000 0.000000
vn 0.000000 0.898405 -0.439167
vn 0.000000 0.898405 -0.439167
vn 1.000000 0.000000 0.000000
vn 1.000000 0.000000 0.000000
vn -1.000000 0.000000 0.000000
vn -1.000000 0.000000 0.000000
vn -1.000000 0.000000 0.000000
vn -1.000000 0.000000 0.000000
vn 0.000000 0.000000 1.000000
vn 0.000000 0.000000 1.000000
vn 0.000000 0.000000 1.000000
vn 0.000000 0.000000 1.000000
vn 0.000000 0.000000 -1.000000
vn 0.000000 0.000000 -1.000000
vn 0.000000 0.000000 -1.000000
vn 0.000000 0.000000 -1.000000
vn 0.000000 1.000000 0.000000
vn 0.000000 1.000000 0.000000
vn 0.000000 1.000000 0.000000
vn 0.000000 1.000000 0.000000
vn 0.000000 -1.000000 0.000000
vn 0.000000 -1.000000 0.000000
vn 0.000000 -1.000000 0.000000
vn 0.000000 -1.000000 0.000000
s off
g LeftDoubleDoor_LP
usemtl initialShadingGroup
f 1/1/1 3/2/2 4/3/3 2/4/4
f 3/2/5 5/5/6 6/6/7 4/3/8
f 7/7/9 1/1/10 2/4/11 8/8/12
f 2/4/13 4/3/14 6/9/15 8/10/16
f 7/11/17 5/12/18 3/2/19 1/1/20
s 1
f 9/13/21 11/14/22 26/15/23 25/16/24
s 2
f 11/17/25 13/18/26 27/19/27 26/20/28
s 3
f 13/21/29 15/22/30 28/23/31 27/24/32
s off
f 10/25/33 12/26/34 14/27/35 16/28/36
f 15/29/37 13/30/38 11/31/39 9/32/40
s 1
f 18/33/41 22/34/42 21/35/43 17/36/44
s 2
f 19/37/45 23/38/46 22/39/47 18/40/48
s 3
f 20/41/49 24/42/50 23/43/51 19/44/52
s 1
f 22/34/42 12/45/53 10/46/54 21/35/43
s 2
f 23/38/46 14/47/55 12/48/56 22/39/47
s 3
f 24/42/50 16/49/57 14/50/58 23/43/51
s 1
f 26/15/23 18/33/41 17/36/44 25/16/24
s 2
f 27/19/27 19/37/45 18/40/48 26/20/28
s 3
f 28/23/31 20/41/49 19/44/52 27/24/32
s off
f 29/51/59 31/52/60 32/53/61 30/54/62
f 31/52/63 33/55/64 34/56/65 32/53/66
f 35/57/67 29/51/68 30/54/69 36/58/70
f 30/54/71 32/53/72 34/59/73 36/60/74
f 35/61/75 33/62/76 31/52/77 29/51/78
