# This file uses centimeters as units for non-parametric coordinates.

mtllib RightDoubleDoor_LP.mtl
g default
v -0.264465 1.982069 -2.127508
v -0.264465 2.630794 -2.127508
v -0.264465 1.982069 -2.293112
v -0.264465 2.630794 -2.293112
v -0.161360 1.982069 -2.293112
v -0.161360 2.630794 -2.293112
v -0.161360 1.982069 -2.127508
v -0.161360 2.630794 -2.127508
v -0.169483 0.000000 -2.462400
v -0.169483 0.000000 0.000000
v -0.169483 5.267586 -2.462400
v -0.169483 4.698952 0.000000
v 0.169484 5.267586 -2.462400
v 0.169484 4.698952 0.000000
v 0.169484 0.000000 -2.462400
v 0.169484 0.000000 0.000000
v -0.169483 0.000000 -1.239957
v -0.169483 5.123522 -1.239957
v 0.169484 5.123522 -1.239957
v 0.169484 0.000000 -1.239957
v -0.169483 0.000000 -0.595651
v -0.169483 4.974362 -0.595651
v 0.169484 4.974362 -0.595651
v 0.169484 0.000000 -0.595651
v -0.169483 0.000000 -1.843813
v -0.169483 5.248872 -1.843813
v 0.169484 5.248872 -1.843813
v 0.169484 0.000000 -1.843813
v 0.247331 1.982069 -2.293112
v 0.247331 2.630794 -2.293112
v 0.247331 1.982069 -2.127509
v 0.247331 2.630794 -2.127509
v 0.144225 1.982069 -2.127509
v 0.144225 2.630794 -2.127509
v 0.144225 1.982069 -2.293112
v 0.144225 2.630794 -2.293112
vt 0.409835 0.683071
vt 0.409829 0.616260
vt 0.426884 0.616258
vt 0.426890 0.683070
vt 0.437503 0.616257
vt 0.437509 0.683069
vt 0.399216 0.683072
vt 0.399210 0.616260
vt 0.409828 0.605641
vt 0.426883 0.605639
vt 0.409836 0.693690
vt 0.426891 0.693688
vt 0.266920 0.019697
vt 0.324891 0.019697
vt 0.324891 0.613770
vt 0.266920 0.615888
vt 0.778442 0.852736
vt 0.778442 0.789228
vt 0.814753 0.789228
vt 0.814753 0.852736
vt 0.254805 0.605574
vt 0.195813 0.603493
vt 0.195813 0.019697
vt 0.254805 0.019697
vt 0.447717 0.594545
vt 0.499338 0.594545
vt 0.499338 0.921822
vt 0.447717 0.921822
vt 0.019978 0.587707
vt 0.079940 0.587707
vt 0.079940 0.903558
vt 0.019978 0.903558
vt 0.381481 0.599583
vt 0.381481 0.019697
vt 0.441863 0.019697
vt 0.441863 0.582701
vt 0.814753 0.727232
vt 0.778442 0.727232
vt 0.778442 0.661084
vt 0.814753 0.661084
vt 0.138226 0.019697
vt 0.138226 0.589551
vt 0.076783 0.572961
vt 0.076783 0.019697
vt 0.497684 0.019697
vt 0.497684 0.551530
vt 0.778442 0.599931
vt 0.814753 0.599931
vt 0.019978 0.542329
vt 0.019978 0.019697
vt 0.409835 0.683071
vt 0.409829 0.616260
vt 0.426884 0.616258
vt 0.426890 0.683070
vt 0.437503 0.616257
vt 0.437509 0.683069
vt 0.399216 0.683072
vt 0.399210 0.616260
vt 0.409828 0.605641
vt 0.426883 0.605639
vt 0.409836 0.693690
vt 0.426891 0.693688
vn -1.000000 0.000000 0.000000
vn -1.000000 0.000000 0.000000
vn -1.000000 0.000000 0.000000
vn -1.000000 0.000000 0.000000
vn 0.000000 0.000000 -1.000000
vn 0.000000 0.000000 -1.000000
vn 0.000000 0.000000 -1.000000
vn 0.000000 0.000000 -1.000000
vn 0.000000 0.000000 1.000000
vn 0.000000 0.000000 1.000000
vn 0.000000 0.000000 1.000000
vn 0.000000 0.000000 1.000000
vn 0.000000 1.000000 0.000000
vn 0.000000 1.000000 0.000000
vn 0.000000 1.000000 0.000000
vn 0.000000 1.000000 0.000000
vn 0.000000 -1.000000 0.000000
vn 0.000000 -1.000000 0.000000
vn 0.000000 -1.000000 0.000000
vn 0.000000 -1.000000 0.000000
vn -1.000000 0.000000 0.000000
vn -1.000000 0.000000 0.000000
vn -1.000000 0.000000 0.000000
vn -1.000000 0.000000 0.000000
vn 0.000000 0.999543 0.030239
vn 0.000000 0.993127 0.117039
vn 0.000000 0.993127 0.117039
vn 0.000000 0.999543 0.030239
vn 1.000000 0.000000 0.000000
vn 1.000000 0.000000 0.000000
vn 1.000000 0.000000 0.000000
vn 1.000000 0.000000 0.000000
vn 0.000000 0.000000 1.000000
vn 0.000000 0.000000 1.000000
vn 0.000000 0.000000 1.000000
vn 0.000000 0.000000 1.000000
vn 0.000000 0.000000 -1.000000
vn 0.000000 0.000000 -1.000000
vn 0.000000 0.000000 -1.000000
vn 0.000000 0.000000 -1.000000
vn -1.000000 0.000000 0.000000
vn -1.000000 0.000000 0.000000
vn -1.000000 0.000000 0.000000
vn -1.000000 0.000000 0.000000
vn 0.000000 0.976659 0.214797
vn 0.000000 0.976659 0.214797
vn 0.000000 0.946077 0.323943
vn 0.000000 0.946077 0.323943
vn 1.000000 0.000000 0.000000
vn 1.000000 0.000000 0.000000
vn 1.000000 0.000000 0.000000
vn 1.000000 0.000000 0.000000
vn -1.000000 0.000000 0.000000
vn -1.000000 0.000000 0.000000
vn 0.000000 0.907672 0.419680
vn 0.000000 0.907672 0.419680
vn 1.000000 0.000000 0.000000
vn 1.000000 0.000000 0.000000
vn 1.000000 0.000000 0.000000
vn 1.000000 0.000000 0.000000
vn 1.000000 0.000000 0.000000
vn 1.000000 0.000000 0.000000
vn 0.000000 0.000000 1.000000
vn 0.000000 0.000000 1.000000
vn 0.000000 0.000000 1.000000
vn 0.000000 0.000000 1.000000
vn 0.000000 0.000000 -1.000000
vn 0.000000 0.000000 -1.000000
vn 0.000000 0.000000 -1.000000
vn 0.000000 0.000000 -1.000000
vn 0.000000 1.000000 0.000000
vn 0.000000 1.000000 0.000000
vn 0.000000 1.000000 0.000000
vn 0.000000 1.000000 0.000000
vn 0.000000 -1.000000 0.000000
vn 0.000000 -1.000000 0.000000
vn 0.000000 -1.000000 0.000000
vn 0.000000 -1.000000 0.000000
s off
g RightDoubleDoor_LP
usemtl initialShadingGroup
f 1/1/1 2/2/2 4/3/3 3/4/4
f 3/4/5 4/3/6 6/5/7 5/6/8
f 7/7/9 8/8/10 2/2/11 1/1/12
f 2/2/13 8/9/14 6/10/15 4/3/16
f 7/11/17 1/1/18 3/4/19 5/12/20
s 1
f 9/13/21 25/14/22 26/15/23 11/16/24
s 2
f 11/17/25 26/18/26 27/19/27 13/20/28
s 3
f 13/21/29 27/22/30 28/23/31 15/24/32
s off
f 10/25/33 16/26/34 14/27/35 12/28/36
f 15/29/37 9/30/38 11/31/39 13/32/40
s 1
f 18/33/41 17/34/42 21/35/43 22/36/44
s 2
f 19/37/45 18/38/46 22/39/47 23/40/48
s 3
f 20/41/49 19/42/50 23/43/51 24/44/52
s 1
f 22/36/44 21/35/43 10/45/53 12/46/54
s 2
f 23/40/48 22/39/47 12/47/55 14/48/56
s 3
f 24/44/52 23/43/51 14/49/57 16/50/58
s 1
f 26/15/23 25/14/22 17/34/42 18/33/41
s 2
f 27/19/27 26/18/26 18/38/46 19/37/45
s 3
f 28/23/31 27/22/30 19/42/50 20/41/49
s off
f 29/51/59 30/52/60 32/53/61 31/54/62
f 31/54/63 32/53/64 34/55/65 33/56/66
f 35/57/67 36/58/68 30/52/69 29/51/70
f 30/52/71 36/59/72 34/60/73 32/53/74
f 35/61/75 29/51/76 31/54/77 33/62/78
