# This file uses centimeters as units for non-parametric coordinates.

mtllib SingleDoor_LP.mtl
g default
v 0.074647 2.609872 1.847123
v 0.061548 2.157489 1.845836
v 0.194263 2.608030 1.847447
v 0.181164 2.155648 1.846160
v 0.194692 2.608462 1.691427
v 0.181593 2.156079 1.690140
v 0.075077 2.610304 1.691103
v 0.061978 2.157921 1.689816
v 0.080978 0.002766 2.000238
v 0.086423 -0.000238 0.000238
v 0.093973 4.713025 2.000238
v 0.099418 4.710020 0.000238
v -0.082046 4.713511 1.999753
v -0.076601 4.710506 -0.000247
v -0.095041 0.003252 1.999753
v -0.089596 0.000247 -0.000247
v 0.083697 0.001264 0.989844
v 0.097268 4.924613 0.994370
v -0.078752 4.925098 0.993885
v -0.092321 0.001749 0.989358
v 0.084979 0.000513 0.520071
v 0.098469 4.894023 0.523963
v -0.077550 4.894509 0.523478
v -0.091040 0.000999 0.519585
v 0.082316 0.002015 1.490283
v 0.095806 4.895525 1.494175
v -0.080213 4.896011 1.493690
v -0.093702 0.002501 1.489798
v -0.074751 2.609872 1.689176
v -0.061652 2.157489 1.690464
v -0.194367 2.608030 1.688852
v -0.181268 2.155648 1.690140
v -0.194796 2.608462 1.844872
v -0.181697 2.156079 1.846160
v -0.075181 2.610304 1.845196
v -0.062082 2.157921 1.846484
vt 0.728856 0.958007
vt 0.811588 0.957996
vt 0.811294 0.979863
vt 0.728562 0.979874
vt 0.916188 0.957982
vt 0.833457 0.957993
vt 0.833453 0.929472
vt 0.916185 0.929461
vt 0.728553 0.907620
vt 0.811285 0.907608
vt 0.811584 0.929475
vt 0.728852 0.929486
vt 0.706987 0.958010
vt 0.706983 0.929489
vt 0.398268 0.020127
vt 0.488703 0.020240
vt 0.485526 0.913905
vt 0.395895 0.880328
vt 0.857814 0.387939
vt 0.857814 0.296803
vt 0.890499 0.296803
vt 0.890499 0.387939
vt 0.018818 0.059265
vt 0.108450 0.025688
vt 0.111626 0.919353
vt 0.021191 0.919466
vt 0.772972 0.020127
vt 0.805149 0.020127
vt 0.805149 0.881176
vt 0.772972 0.881176
vt 0.815393 0.020127
vt 0.847570 0.020127
vt 0.847570 0.881176
vt 0.815393 0.881176
vt 0.575831 0.919467
vt 0.579138 0.020353
vt 0.669573 0.020466
vt 0.666396 0.914131
vt 0.890499 0.204983
vt 0.857814 0.204983
vt 0.857814 0.112897
vt 0.890499 0.112897
vt 0.202060 0.919240
vt 0.198754 0.020126
vt 0.289319 0.025462
vt 0.292496 0.919127
vt 0.760007 0.020579
vt 0.757634 0.880780
vt 0.857814 0.020127
vt 0.890499 0.020127
vt 0.380557 0.058813
vt 0.382930 0.919014
vt 0.728856 0.958007
vt 0.811588 0.957996
vt 0.811294 0.979863
vt 0.728562 0.979874
vt 0.916188 0.957982
vt 0.833457 0.957993
vt 0.833453 0.929472
vt 0.916185 0.929461
vt 0.728553 0.907620
vt 0.811285 0.907608
vt 0.811584 0.929475
vt 0.728852 0.929486
vt 0.706987 0.958010
vt 0.706983 0.929489
vn -0.002754 -0.002766 0.999992
vn -0.002754 -0.002766 0.999992
vn -0.002754 -0.002766 0.999992
vn -0.002754 -0.002766 0.999992
vn 0.999577 -0.028950 0.002669
vn 0.999577 -0.028950 0.002669
vn 0.999577 -0.028950 0.002669
vn 0.999577 -0.028950 0.002669
vn 0.002754 0.002766 -0.999992
vn 0.002754 0.002766 -0.999992
vn 0.002754 0.002766 -0.999992
vn 0.002754 0.002766 -0.999992
vn -0.999577 0.028951 -0.002671
vn -0.999577 0.028951 -0.002671
vn -0.999577 0.028951 -0.002671
vn -0.999577 0.028951 -0.002671
vn -0.015388 -0.999878 -0.002807
vn -0.015388 -0.999878 -0.002807
vn -0.015388 -0.999878 -0.002807
vn -0.015388 -0.999878 -0.002807
vn 0.015388 0.999878 0.002810
vn 0.015388 0.999878 0.002810
vn 0.015388 0.999878 0.002810
vn 0.015388 0.999878 0.002810
vn 0.999993 -0.002759 0.002628
vn 0.999993 -0.002759 0.002696
vn 0.999993 -0.002759 0.002706
vn 0.999993 -0.002759 0.002628
vn 0.001661 0.940696 0.339248
vn 0.002133 0.978579 0.205860
vn 0.002133 0.978581 0.205849
vn 0.001661 0.940696 0.339248
vn -0.999993 0.002759 -0.002628
vn -0.999993 0.002759 -0.002706
vn -0.999993 0.002759 -0.002696
vn -0.999993 0.002759 -0.002628
vn 0.002758 -0.000008 -0.999996
vn 0.002758 -0.000008 -0.999996
vn 0.002758 -0.000008 -0.999996
vn 0.002758 -0.000008 -0.999996
vn -0.002759 0.000008 0.999996
vn -0.002759 0.000008 0.999996
vn -0.002759 0.000008 0.999996
vn -0.002759 0.000008 0.999996
vn 0.999992 -0.002759 0.002749
vn 0.999992 -0.002759 0.002749
vn 0.999992 -0.002759 0.002758
vn 0.999992 -0.002759 0.002755
vn 0.002765 0.999995 -0.001541
vn 0.002765 0.999995 -0.001540
vn 0.003280 0.977482 -0.210991
vn 0.003280 0.977483 -0.210991
vn -0.999992 0.002759 -0.002749
vn -0.999992 0.002759 -0.002749
vn -0.999992 0.002759 -0.002755
vn -0.999992 0.002759 -0.002758
vn 0.999992 -0.002759 0.002781
vn 0.999992 -0.002759 0.002781
vn 0.003519 0.943461 -0.331465
vn 0.003519 0.943461 -0.331465
vn -0.999992 0.002759 -0.002781
vn -0.999992 0.002759 -0.002781
vn 0.002749 -0.002767 -0.999992
vn 0.002749 -0.002767 -0.999992
vn 0.002749 -0.002767 -0.999992
vn 0.002749 -0.002767 -0.999992
vn -0.999577 -0.028950 -0.002669
vn -0.999577 -0.028950 -0.002669
vn -0.999577 -0.028950 -0.002669
vn -0.999577 -0.028950 -0.002669
vn -0.002751 0.002767 0.999992
vn -0.002751 0.002767 0.999992
vn -0.002751 0.002767 0.999992
vn -0.002751 0.002767 0.999992
vn 0.999577 0.028951 0.002671
vn 0.999577 0.028951 0.002671
vn 0.999577 0.028951 0.002671
vn 0.999577 0.028951 0.002671
vn 0.015388 -0.999878 0.002807
vn 0.015388 -0.999878 0.002807
vn 0.015388 -0.999878 0.002807
vn 0.015388 -0.999878 0.002807
vn -0.015388 0.999878 -0.002810
vn -0.015388 0.999878 -0.002810
vn -0.015388 0.999878 -0.002810
vn -0.015388 0.999878 -0.002810
s off
g SingleDoor_LP
usemtl initialShadingGroup
f 1/1/1 2/2/2 4/3/3 3/4/4
f 3/5/5 4/6/6 6/7/7 5/8/8
f 5/9/9 6/10/10 8/11/11 7/12/12
f 7/12/13 8/11/14 2/2/15 1/1/16
f 2/2/17 8/11/18 6/7/19 4/6/20
f 7/12/21 1/1/22 3/13/23 5/14/24
s 1
f 9/15/25 25/16/26 26/17/27 11/18/28
s 2
f 11/19/29 26/20/30 27/21/31 13/22/32
s 3
f 13/23/33 27/24/34 28/25/35 15/26/36
s off
f 10/27/37 16/28/38 14/29/39 12/30/40
f 15/31/41 9/32/42 11/33/43 13/34/44
s 1
f 18/35/45 17/36/46 21/37/47 22/38/48
s 2
f 19/39/49 18/40/50 22/41/51 23/42/52
s 3
f 20/43/53 19/44/54 23/45/55 24/46/56
s 1
f 22/38/48 21/37/47 10/47/57 12/48/58
s 2
f 23/42/52 22/41/51 12/49/59 14/50/60
s 3
f 24/46/56 23/45/55 14/51/61 16/52/62
s 1
f 26/17/27 25/16/26 17/36/46 18/35/45
s 2
f 27/21/31 26/20/30 18/40/50 19/39/49
s 3
f 28/25/35 27/24/34 19/44/54 20/43/53
s off
f 29/53/63 30/54/64 32/55/65 31/56/66
f 31/57/67 32/58/68 34/59/69 33/60/70
f 33/61/71 34/62/72 36/63/73 35/64/74
f 35/64/75 36/63/76 30/54/77 29/53/78
f 30/54/79 36/63/80 34/59/81 32/58/82
f 35/64/83 29/53/84 31/65/85 33/66/86
